<?xml version="1.0" encoding="UTF-8" standalone="no"?>
<!DOCTYPE svg  PUBLIC '-//W3C//DTD SVG 1.1//EN'  'http://www.w3.org/Graphics/SVG/1.1/DTD/svg11.dtd'>
<svg xmlns="http://www.w3.org/2000/svg" version="1.1">
<defs>
<font id="Bucanera-FFP" horiz-adv-x="720">
<font-face x-height="430" descent="-168" font-weight="400" unicode-range="U+000D-F8FF" underline-thickness="126" underline-position="-125" units-per-em="1000" bbox="-3926 -859 4351 962" ascent="832" font-family="Bucanera" panose-1="3 2 5 0 0 0 0 0 0 5" cap-height="695"/>
<missing-glyph d="M155 532h229v-155h155v-229h-384v384zM299 425v56h-56v-56h56zM155 148v-155l-154 155h154z" horiz-adv-x="576"/>
<glyph d="M155 532h229v-155h155v-229h-384v384zM299 425v56h-56v-56h56zM155 148v-155l-154 155h154z" horiz-adv-x="576" glyph-name=".notdef"/>
<glyph horiz-adv-x="525" d="M481 452q6 -8 11 -27t8 -42t4.5 -45.5t1.5 -37.5q0 -40 -6 -83t-19 -83t-34.5 -75t-52.5 -59h-207q-19 0 -37 9t-34.5 22.5t-30.5 29.5t-25 30h200l9 -11q49 103 49 218q0 68 -18 133q-25 -21 -45.5 -52.5t-37 -67.5t-29.5 -72t-23 -66l-91 -30l-11 14q-23 47 -31 97 t-8 101q0 54 6 117.5t18 127t31 124t45 108.5l96 30q-19 -50 -37 -107t-32.5 -118t-23 -125t-8.5 -128q0 -26 2 -50.5t6 -47.5q15 32 42.5 62t55.5 53q32 27 68 51h188z" unicode="b" glyph-name="b"/>
<glyph horiz-adv-x="470" d="M488 130q-56 -64 -133 -105t-171 -41q-53 0 -85.5 19t-50.5 48t-24 63t-6 65q0 36 17.5 87t47 98t68.5 80t83 33l149 -45q23 -11 32 -38t9 -56q0 -20 -3 -37.5t-9 -31.5l-171 53q3 8 6 18l4 18q3 10 3 21q0 5 -0.5 9t-1.5 9q-39 -11 -76 -41t-65.5 -70.5t-46 -86 t-17.5 -86.5q1 -12 12 -21q9 -8 29 -14t58 -6q49 13 95.5 46.5t80.5 79.5z" unicode="c" glyph-name="c"/>
<glyph horiz-adv-x="519" d="M517 861q-14 -76 -25 -162q-9 -74 -16.5 -169t-7.5 -199q0 -55 3 -108.5t13.5 -103t31.5 -93t57 -77.5l-92 -29q-11 8 -23 24.5t-23.5 35t-19.5 35t-10 25.5q-17 -14 -36.5 -21.5t-40 -12t-40 -5.5t-35.5 -1h-101q-37 0 -62.5 6t-41.5 20.5t-23 37.5t-7 57 q0 42 20.5 93.5t54 99.5t75 85.5t83.5 52.5h126q0 51 7 116t15 125q10 69 22 140zM403 46q-18 60 -24.5 125.5t-6.5 130.5q0 21 0.5 48.5t1.5 47.5q-30 -25 -58 -56.5t-50 -67.5t-35 -76t-13 -81t15 -71h170z" unicode="d" glyph-name="d"/>
<glyph horiz-adv-x="422" d="M459 71q-47 -36 -97 -59.5t-113 -23.5q-33 0 -61 6l-152 107q-8 17 -13 39q-5 19 -9 46t-4 62t13 72.5t39 68.5t65 51t91 20q19 0 37 -8t31.5 -22.5t21.5 -34t8 -42.5q0 -26 -11.5 -49t-29.5 -42.5t-40.5 -35.5t-45.5 -28l-59 53q63 41 92.5 79.5t34.5 76.5 q-38 -6 -70 -25.5t-55.5 -48t-37 -65t-13.5 -75.5q0 -22 5.5 -50.5t12.5 -47.5q24 0 48.5 4t50.5 13.5t55 26t62 40.5z" unicode="e" glyph-name="e"/>
<glyph horiz-adv-x="375" d="M-36 -46q7 -25 18.5 -51.5t28 -48t37.5 -35.5t48 -14q16 21 26 48t16 57.5t8 63.5t2 65q0 17 -0.5 37t-1.5 40t-1.5 38t-1.5 31q-25 -14 -51 -36.5t-42 -48.5v191q3 8 13 21.5t22.5 27t25 24.5t19.5 15q-1 29 -2 56q-1 23 -1.5 47t-0.5 40q0 106 12.5 170t53.5 94l132 81 q8 3 15 3.5t14 0.5q28 0 49.5 -12.5t35 -34t20.5 -50t7 -59.5l-102 -69q0 30 -6.5 58t-20 49.5t-34.5 34.5t-49 14q-19 -43 -23.5 -97.5t-4.5 -102.5q0 -53 0.5 -84t2.5 -48q1 -19 3 -27q10 9 22.5 17t25.5 15t26 11t24 4q14 0 22.5 -8t13.5 -19.5t7 -24.5t2 -22v-181 q-5 15 -17 33t-31 18t-41 -12t-39 -24q1 -12 1.5 -29t1 -35.5t1 -37.5t0.5 -34q0 -69 -13 -129.5t-43 -109.5t-79.5 -85t-123.5 -54q-26 0 -46.5 14t-36.5 35.5t-27.5 48t-18.5 51.5z" unicode="f" glyph-name="f"/>
<glyph horiz-adv-x="525" d="M378 437q-27 -18 -55.5 -47t-51.5 -64t-37.5 -73t-14.5 -73q0 -11 1.5 -21t6.5 -18h132q28 21 38.5 54.5t10.5 71.5q0 45 -10 91t-20 79zM566 1q33 -11 59 -31q23 -17 41.5 -47t18.5 -77q0 -62 -31.5 -110t-79.5 -81.5t-106 -51t-111 -17.5q-19 0 -44 3.5t-47 13.5 t-37 28.5t-15 48.5l80 5q7 -36 16 -47.5t19.5 -19.5t21.5 -12t20 -4q38 7 79.5 28.5t76 53t57 71t22.5 82.5q0 10 -2.5 18t-5.5 13q-4 6 -7 11q-93 -11 -181 -41.5t-168 -79.5q-29 21 -55.5 50.5t-47.5 63t-33.5 68.5t-12.5 67q0 26 8.5 53.5t19.5 48.5q-48 0 -75 14t-27 56 q0 36 16 76t41.5 77t56.5 68.5t61 51.5h202l-10 24l38 111q8 -20 17.5 -44.5t21.5 -46.5t28 -36.5t37 -14.5q8 0 15 2.5t12 5.5q6 4 11 9q-2 -18 -5 -40t-11.5 -41.5t-24.5 -33t-44 -13.5q1 -10 1.5 -19.5t0.5 -19.5q0 -51 -18 -86t-49.5 -57.5t-74.5 -32.5t-92 -10h-35 q-17 -17 -28.5 -38.5t-20 -49t-8.5 -62.5v-46q97 44 195 66t214 22z" unicode="g" glyph-name="g"/>
<glyph horiz-adv-x="495" d="M519 38q-23 -12 -51.5 -22.5t-55.5 -19t-51 -13.5t-38 -5q-42 0 -65 32t-33 79t-12 101t-2 99q-16 -23 -31.5 -57.5t-27.5 -73t-20.5 -75t-9.5 -61.5l-94 -34q6 78 10 156q2 33 3.5 69.5t3 73.5t2.5 72t1 67q0 58 -2.5 127t-5.5 130q-4 70 -8 142l94 35 q5 -109 6.5 -193.5t1.5 -150.5t-1 -111t-2 -74q-2 -33 -3 -55q21 43 43.5 79t51.5 62t66.5 42t90.5 18q-5 -36 -8.5 -76t-3.5 -85q0 -42 3.5 -85.5t12.5 -81.5t24.5 -66.5t39.5 -39.5l62 23z" unicode="h" glyph-name="h"/>
<glyph horiz-adv-x="218" d="M156 452q13 -63 17 -127.5t4 -134.5q0 -72 -5 -117.5t-16 -83.5l-99 11q14 52 17.5 107.5t3.5 116.5q0 20 -1 35t-2 26q-2 12 -3 23l-60 14l34 144zM38 524q-34 5 -48 28.5t-14 51.5q0 17 3.5 33.5t9.5 31.5l177 34q-5 -14 -9.5 -31t-4.5 -34q0 -69 79 -81z" unicode="i" glyph-name="i"/>
<glyph horiz-adv-x="227" d="M62 524q-34 5 -48 28.5t-14 51.5q0 17 3.5 33.5t9.5 31.5l177 34q-5 -14 -9.5 -31t-4.5 -34q0 -69 79 -81zM121 -196q-11 -27 -38.5 -54.5t-62.5 -50t-72 -36.5t-66 -14q-17 0 -33 8.5t-29 33.5l-49 142l164 83q1 -46 9 -82q7 -31 21.5 -56.5t42.5 -25.5q14 0 26 19.5 t21 50.5t16 69t11.5 75.5t7 70.5t2.5 53q0 75 -3.5 123t-8.5 77q-5 33 -12 51l-88 -23l105 134l78 24q6 -41 10 -91q4 -43 7 -102t3 -129q0 -59 -10 -120.5t-21 -112.5q-14 -60 -31 -117z" unicode="j" glyph-name="j"/>
<glyph horiz-adv-x="543" d="M535 218q0 -8 -6.5 -14t-16 -11.5t-19.5 -9t-17 -5.5l-17 75q-42 0 -83.5 -19.5t-73.5 -45.5l83 -148q7 1 12 6t9 15t4 29q0 8 -1.5 15.5t-3.5 12.5l-4 12l103 -30q1 -3 3 -7q4 -10 4 -18q0 -17 -8.5 -31t-22 -26t-29 -21t-29.5 -15l-83 23l-76 153q-46 -37 -89 -85 q11 -25 25.5 -49t37.5 -44l-92 -28q-33 28 -54 70t-33 93t-17 108t-5 116q0 128 13 249.5t35 248.5l97 27l-19 -133q-9 -63 -15.5 -123.5t-10.5 -119.5t-4 -122q0 -47 3 -95q19 21 51.5 52t71 59t80 48t79.5 20q10 0 22 -2t23 -6.5t20 -12.5t13 -19z" unicode="k" glyph-name="k"/>
<glyph horiz-adv-x="364" d="M127 355q0 -63 2.5 -101t6.5 -59q4 -25 10 -35q43 10 81.5 34t66.5 48l73 -164q-20 -15 -41.5 -30.5t-45 -28t-48.5 -20.5t-52 -8q-40 0 -66 37.5t-41.5 92t-21.5 115.5t-6 109q0 40 1.5 82t4 84t6 82t6.5 76q8 84 19 165l96 28q-17 -125 -34 -250.5t-17 -256.5z" unicode="l" glyph-name="l"/>
<glyph horiz-adv-x="687" d="M439 274q41 117 90 172q40 6 80 1q45 -184 26.5 -318.5t-37 -160t-51 -33.5t-76.5 -4l27 112h55q29 183 -2 312q-93 -158 -116 -344l-200 -16q20 214 -7 338q-84 -131 -123 -349q-7 6 -15 16t-15.5 20.5t-12.5 20t-6 15.5v201l-48 65l54 163q11 -9 20 -19t15.5 -21.5 t6.5 -22.5v-204q38 109 107 227h177q31 -54 51 -171z" unicode="m" glyph-name="m"/>
<glyph horiz-adv-x="473" d="M266 -5q-14 27 -25 63q-10 31 -17.5 75t-7.5 101q0 41 3 70q2 17 4 31q-8 -14 -20.5 -41t-26.5 -60.5t-28 -70.5t-25.5 -70.5t-18.5 -61t-7 -41.5q-5 0 -13.5 9.5t-16 22.5t-13 26.5t-5.5 22.5v186l-42 65l54 163q13 -11 24 -24q9 -11 17 -25.5t8 -30.5v-181 q17 55 35.5 108.5t52.5 101.5l246 27q-14 -51 -21.5 -104t-7.5 -107q0 -62 12 -121.5t38 -114.5z" unicode="n" glyph-name="n"/>
<glyph horiz-adv-x="460" d="M452 491l-33 -112q9 -33 16 -67q6 -30 11 -66.5t5 -74.5q0 -53 -16.5 -86.5t-49.5 -52.5t-83.5 -25.5t-118.5 -6.5q-23 0 -45.5 1.5t-36.5 9.5q-20 10 -33 32.5t-21 50t-11.5 57.5t-3.5 56q0 30 4.5 63t13 66t20.5 63t27 53h177zM374 150q0 49 -10 93.5t-23.5 81 t-28.5 64.5t-25 44q-27 -52 -41 -112t-14 -118q0 -11 2 -35t9 -51.5t20 -53t35 -38.5q18 1 32.5 12.5t24 29.5t14.5 39.5t5 43.5z" unicode="o" glyph-name="o"/>
<glyph horiz-adv-x="495" d="M166 444q27 8 54 13t55 5q21 0 46 -2.5t45 -10.5q16 -8 34.5 -34.5t34.5 -62.5t26.5 -77t10.5 -77q0 -31 -11.5 -66t-33 -64.5t-52 -49t-67.5 -19.5q-28 0 -49 3.5t-35 15t-21 31.5t-7 53q2 0 5 1q2 0 5.5 0.5t8.5 0.5q16 0 27.5 -1t19.5 -3q9 -2 14 -3q0 -19 2.5 -39.5 t14.5 -36.5q22 13 40 33t31 43.5t20 50t7 53.5q0 17 -4.5 31.5t-9.5 25.5q-6 12 -14 23q-59 0 -112.5 -16.5t-98.5 -48.5q-3 -23 -5 -54q-2 -26 -3 -64.5t-1 -87.5q0 -100 16.5 -197.5t52.5 -199.5q-4 -4 -14 -10t-23.5 -12t-28.5 -10t-27 -4q-41 103 -55 201.5t-14 199.5 q0 50 2 99t4 87q3 45 7 86l-43 102q0 3 8 11t18 16q11 10 27 20v103l93 36v-94z" unicode="p" glyph-name="p"/>
<glyph horiz-adv-x="539" d="M395 452q-48 -5 -85.5 -27t-63.5 -55t-39.5 -75.5t-13.5 -87.5q0 -24 2.5 -49.5t9 -50.5t18.5 -46t31 -36q29 25 50.5 65.5t39 94.5t31.5 121t29 146l80 15q0 -126 -1.5 -223.5t-6.5 -175t-15 -139.5t-28 -117q12 5 24.5 6.5t25.5 1.5q15 0 30 -3t27 -14l95 -111 q-21 11 -49 11q-45 0 -83.5 -23.5t-67.5 -51.5q-34 -33 -62 -75l-123 131q11 15 25 29q12 12 28 25.5t34 24.5q32 80 45 166.5t18 171.5q-19 -30 -48 -53q-25 -20 -63.5 -36.5t-92.5 -16.5q-35 0 -66 13t-55 39t-38 65t-14 92q0 81 36.5 139t99.5 90q21 11 45 15t51 4h140z " unicode="q" glyph-name="q"/>
<glyph horiz-adv-x="447" d="M301 437q27 -19 50.5 -45t41 -56.5t28 -64.5t10.5 -69q0 -60 -29.5 -112t-77.5 -90h-170q-14 0 -38 11.5t-47 30t-40 42.5t-17 49q0 14 9.5 27.5t23.5 13.5q3 0 14 -6.5t23 -14t21.5 -14.5t8.5 -8q-14 -6 -23 -16.5t-9 -26.5q0 -11 2 -19t4 -13q3 -6 6 -9q7 -2 15 -4 q13 -3 37 -3h9q5 0 8 1q4 0 7 1q20 17 37 41q14 20 26 50t12 68q0 37 -13 70t-29 58q-18 29 -42 53q-1 -9 -5.5 -27t-12.5 -36.5t-18.5 -32t-22.5 -13.5l-56 57q27 18 41 46.5t17 60.5h199z" unicode="s" glyph-name="s"/>
<glyph horiz-adv-x="383" d="M130 423q40 5 74.5 11.5t67 15t65 19.5t68.5 25v-31q-57 -41 -128.5 -63.5t-151.5 -33.5q-2 -12 -4 -30q-3 -30 -3 -87q0 -52 3 -77q1 -15 3 -26q27 1 53.5 9t50.5 20t45.5 27t38.5 30l73 -164q-20 -15 -41.5 -30.5t-45 -28t-48.5 -20.5t-52 -8q-26 0 -46.5 19.5 t-35.5 51t-25.5 71.5t-17 82t-9 82.5t-2.5 72.5q-22 -3 -45 -4t-46 -1l62 61h16q8 0 16 1q1 46 5 84t11 76t17.5 78.5t24.5 91.5l95 28q-12 -33 -26.5 -80t-27 -96.5t-22 -96t-12.5 -79.5z" unicode="t" glyph-name="t"/>
<glyph horiz-adv-x="526" d="M494 424q-10 -42 -17 -103t-7 -128q0 -63 11 -113t69 -80h-172q-39 0 -63 24t-35 63q-20 -40 -39 -63.5t-28 -27.5q-5 -2 -27 -2q-81 2 -124 47.5t-43 130.5q0 64 15.5 126.5t39.5 131.5q40 5 80 0q30 -22 58 -62q-42 -5 -79 -1q-34 -103 -34 -195q0 -48 13 -87.5 t47 -62.5q31 40 54 88t39 100t26 106t16 108h200z" unicode="u" glyph-name="u"/>
<glyph horiz-adv-x="564" d="M521 460q-5 -14 -9.5 -31t-4.5 -34q0 -69 79 -81l-138 -28l-94 -231q5 -14 9 -27.5t8 -27.5h-200q-36 112 -82.5 223t-107.5 212h200q44 -72 79.5 -150t66.5 -156l64 155q-34 5 -47 27t-13 50q0 17 3.5 33.5t9.5 31.5q13 7 36 13t48.5 10.5t50.5 7t42 3.5z" unicode="v" glyph-name="v"/>
<glyph horiz-adv-x="640" d="M593 399q0 -35 20 -54.5t59 -26.5l-114 -25q-3 -11 -5 -29q-2 -15 -3 -39t-1 -59q0 -45 2 -72t4 -41q3 -17 6 -24q11 -10 23.5 -17.5t25.5 -11.5h-200q-26 10 -49 26.5t-43 36.5t-38 42t-34 44q-20 -38 -41.5 -75t-47.5 -72q-4 -2 -8 -3q-10 -2 -20 -2q-27 0 -40 5 q-7 2 -12 5q-16 22 -27 55q-10 28 -18 69t-8 97q0 47 7 85.5t16 65.5q10 32 23 57q3 1 7 2q8 2 18 2q12 0 21.5 -1.5t17.5 -3.5t15 -4q-13 -24 -23 -57q-8 -29 -15 -70t-7 -96q0 -35 2.5 -60t5.5 -42q4 -19 9 -33q23 35 43 71.5t35 80.5q-19 37 -33.5 75.5t-19.5 86.5h200 q7 -76 43 -144.5t84 -128.5q0 52 4 92t12 78q-32 3 -52.5 23.5t-20.5 55.5q0 17 3.5 33.5t9.5 31.5l177 34q-13 -29 -13 -63z" unicode="w" glyph-name="w"/>
<glyph horiz-adv-x="550" d="M348 208q65 -112 130.5 -157.5t110.5 -50.5h-134q-90 1 -115.5 8t-49.5 21.5t-50 40.5q-71 -73 -104.5 -89.5t-64.5 -16.5q-18 0 -44.5 46t-17.5 117l102 68q-10 -99 56 -162q29 30 51 61q-89 114 -150 323h200l49 -135q37 79 47 94t22 25q40 37 76 56t48 19 q23 0 33 -21.5t8 -54.5l-102 -69q5 39 -11 61z" unicode="x" glyph-name="x"/>
<glyph horiz-adv-x="457" d="M349 135q1 1 1 4v5q0 3 1 8l-191 -68q-46 0 -74.5 33.5t-44 86.5t-20.5 118.5t-5 129.5h196q0 -24 0.5 -54.5t3 -62t7.5 -61.5t15 -54.5t25.5 -41t37.5 -19.5l52 19q2 23 4.5 55.5t4.5 71t3.5 81.5t1.5 87l73 -30q-5 -119 -11 -208t-13.5 -156t-16 -115.5t-18.5 -87.5 t-22 -71.5t-25 -66.5q-72 0 -130 17.5t-100 39.5q-49 26 -87 58v155q42 -33 90 -59q41 -22 91 -40t104 -18q9 35 18 75q8 34 15.5 77.5t13.5 91.5z" unicode="y" glyph-name="y"/>
<glyph horiz-adv-x="504" d="M502 2q-13 -11 -31 -20q-16 -8 -40.5 -13.5t-59.5 -5.5q-26 0 -51.5 8t-51 18t-51.5 18t-53 8q-35 0 -63 -13.5t-43 -51.5l-39 182q0 15 10.5 27t26 21t34 13.5t33.5 4.5q28 0 54 -6q42 20 83.5 43.5t77.5 52.5q-7 1 -14 3q-6 2 -14 3t-17 1q-21 0 -42.5 -4t-43 -9 t-43 -9t-42.5 -4q-12 0 -23.5 3t-17.5 11q-14 17 -22 39.5t-13 47t-6.5 48.5t-1.5 43q8 -4 17 -8q17 -7 36 -7q22 0 48 4.5t55 10.5t61.5 10.5t67.5 4.5q25 0 47.5 -5.5t33.5 -13.5q2 -1 8 -16t13 -40.5t15 -60.5t14 -77q-8 7 -16 12t-16.5 8.5t-18.5 3.5q-14 -15 -34 -30 t-42.5 -29.5t-44.5 -27t-41 -21.5q14 -10 30 -17q14 -6 30 -11t32 -5q38 0 63 5.5t40 13.5q18 8 27 19z" unicode="z" glyph-name="z"/>
<glyph horiz-adv-x="419" d="M236 229q-9 8 -16.5 17.5t-12.5 17.5q-6 10 -11 19q-19 -49 -31.5 -115.5t-20.5 -148.5q-2 -4 -11.5 -10t-20.5 -11.5t-22.5 -9.5t-17.5 -4q0 109 -11 200.5t-32 177.5l-50 -20l40 83q4 7 14.5 13t21.5 10.5t21 7.5t14 3q1 0 3.5 -9t5.5 -23.5t6 -33.5l6 -38 q7 -46 16 -103q8 20 19 39t26 35q-8 15 -15 33q-6 16 -12 36.5t-8 45.5h200q7 -42 22.5 -80t32.5 -67q19 -34 41 -65h-197z" unicode="r" glyph-name="r"/>
<glyph horiz-adv-x="280" d="M63 159q23 8 54.5 11.5t60.5 3.5q26 0 47 -9.5t21 -38.5l-25 -182q-2 -15 -10 -30.5t-19.5 -30t-25.5 -25.5t-28 -16l21 159q-30 0 -61 -3t-59 -12z" unicode="," glyph-name="comma"/>
<glyph horiz-adv-x="473" d="M50 312q17 6 41.5 11t50.5 9t51 6t43 2q49 0 100 -5t101 -16l-24 -173q-45 11 -93.5 15.5t-99.5 4.5t-100 -7t-94 -20z" unicode="-" glyph-name="hyphen"/>
<glyph horiz-adv-x="280" d="M225 0h-188l24 173h188z" unicode="." glyph-name="period"/>
<glyph horiz-adv-x="552" d="M0 -59l447 756h106l-440 -716z" unicode="/" glyph-name="slash"/>
<glyph d="M205 -91v153h96v-23h-71v-40h46v-23h-46v-67h-25zM322 -91v153h96v-23h-71v-40h46v-23h-46v-67h-25zM464 39v-54h14q13 0 23.5 6t10.5 22q0 14 -9.5 20t-21.5 6h-17zM439 62h38q24 0 42.5 -10.5t18.5 -38.5q0 -25 -16.5 -38t-39.5 -13h-18v-53h-25v153zM513 463 q7 -1 7 -9q0 -11 -5 -16.5t-5 -7.5t0.5 -4t0.5 -4q0 -1 -4.5 -8.5t-20.5 -7.5h-8q0 -4 2.5 -5.5t2.5 -4.5q-1 -1 -5 -2q-2 0 -7 6.5t-6 10.5q-1 0 -1 -2t-1 -3h-9q-2 0 -3 4q0 -4 -4 -6t-9 -4l-12 -3q0 3 -6 6t-12 3q-1 -1 -1 -3q0 -5 3 -8l14 -10q4 -1 4 -6q-1 -1 -1 -3v-6 l3 -1v-6l-3 -1l-2 5q0 -3 -1 -5.5t-1 -4.5q-5 0 -5 6t-1 9q-2 0 -2 -5q0 -7 3.5 -17.5t3.5 -14.5q0 -3 -4 -3q-1 0 -3 2q3 3 3 6q0 5 -4 8t-6 5q1 -2 2 -6t1 -8q0 -3 -1 -6t-6 -3v10q0 8 -0.5 14.5t-3.5 15.5q-1 -1 -1 -5q0 -2 1.5 -9t1.5 -16q0 -10 -7 -11q-3 0 -3 3v22 q-3 -2 -3 -10v-7q0 -3 -3 -7t-4 -4q-3 0 -6 1t-3 9l2 17h-7l1 -3q0 -2 0.5 -4t0.5 -5v-6q-2 -2 -2 -8q-8 2 -9.5 6.5t-1.5 9t-1 8t-8 3.5q0 -3 3 -8.5t3 -10.5q0 -8 -14 -8q-1 0 -3.5 2.5t-2.5 3.5v10q0 1 0.5 3.5l1.5 7.5l-10 1q1 -5 1.5 -8t0.5 -4q0 -13 -7 -13h-4 q-4 1 -4 8v11q0 5 1 6q-1 0 -3 -0.5t-2 -1.5q0 -3 1 -4.5t1 -6.5q0 -13 -5 -13q-2 0 -3 3.5t-2.5 8t-2.5 8t-2 3.5q0 -4 2 -6q0 -4 -2 -9t-3 -5q-3 0 -4 5t-1 9q1 1 1 4q-2 2 -2 3q0 2 1 5.5t1 5.5q0 3 -2 3q-2 -3 -2 -6t-2 -8q-2 2 -2 4l-2 4q0 2 3.5 13.5t3.5 24.5 q0 2 -1 3q-1 -1 -4 -1q-10 7 -20 7q-8 0 -12 -3t-9 -3q-3 0 -3 5q-2 -1 -3.5 -3.5t-2.5 -2.5q-5 3 -10 4.5t-5 6.5t1 6l-2 3q-3 0 -10 6.5t-7 26.5q0 10 7 11l6 -4q3 2 4.5 4t6.5 4q0 -3 4 -4l3 -2q0 5 -8 16.5t-8 22.5q3 6 2 13.5t4 12.5l6 7q2 3 4.5 5.5t2.5 3.5 q-2 0 -3 1q0 3 1.5 6t1.5 5l-3 4q0 -4 -7 -14t-11 -15q-4 7 -4 26q0 8 1.5 11.5t1.5 8.5q0 3 -1 4q-1 -3 -2.5 -10.5t-5.5 -7.5q0 8 2 13t3 13v8q0 10 7.5 23.5t18.5 27t23.5 25.5t21.5 18q17 11 37.5 16t41.5 5q23 0 46.5 -6t43.5 -17.5t34 -28.5t19 -39q0 5 -1 6h4 q1 -4 2 -7t1 -6q0 -5 -2 -7q0 -11 1 -22.5t2 -23.5q0 -5 -2 -15.5t-2 -12.5l-3 -1q-8 6 -9.5 14.5t-1.5 17.5v22l-7 -24v-5q0 -4 -1 -5q-8 5 -17 5q-2 0 -3 -1q13 -4 20.5 -13.5t11.5 -21.5t5 -24.5t1 -21.5q0 -6 -0.5 -11.5t-2.5 -11.5q2 2 4 11t7 9l3 -5q4 0 4 -4z M495 174q-61 6 -129.5 31.5t-131.5 64.5t-114 89.5t-77 107.5q-5 11 -9 22.5t-4 23.5q0 11 1 12q42 -60 96.5 -112.5t118 -93.5t133 -68t141.5 -36q-3 -9 -13 -12.5t-21 -3.5q-8 0 -16 1t-13 3q-58 20 -116.5 44t-109.5 60q45 -41 104 -65t117 -44q7 -3 14 -4t12.5 -2.5 t10.5 -5t9 -11.5zM689 538q-9 -48 -34 -92t-60 -82t-76.5 -69.5t-83.5 -53.5q-15 2 -28 9q24 14 42.5 25.5t36.5 28.5l-2 4q-22 -15 -44.5 -28.5t-46.5 -24.5q-6 1 -10.5 3.5t-9.5 5.5q94 48 173.5 115.5t142.5 158.5zM472 526q-15 12 -36 12q-2 0 -4.5 -1.5t-5.5 -2.5h-4 q-2 0 -2.5 0.5t-5.5 2.5q-6 0 -11 -5l-7 -7l-3 1l-1 -4q1 -1 1 -5q0 -3 -4 -6.5t-4 -5.5q2 0 9.5 -10t11.5 -17l4 -5l-3 -1q-3 0 -4 -1l-6 6q0 -17 15.5 -21.5t29.5 -4.5q3 0 5 0.5t4 0.5q4 0 6 -2q2 0 4 0.5t4 0.5q-2 2 -2 4q0 3 2.5 5t6.5 6l3 -4q10 16 10 35 q0 13 -5.5 18t-7.5 11zM265 459q3 0 8.5 -0.5t8.5 -0.5q15 2 29 14t14 32q0 6 -2 7t-2 6q0 2 0.5 4.5t0.5 4.5q0 8 -9.5 10.5t-16.5 2.5q-6 0 -17.5 -1.5t-23 -5t-20 -10t-8.5 -16.5q2 -3 5 -10t3 -13q0 -2 -0.5 -3.5t-0.5 -3.5q0 -6 7 -8t12 -2h4q2 -2 2 -7v-6q2 0 3 2.5 t3 3.5zM222 192q-5 -18 -5 -20q0 -8 8 -18t20 -10q4 1 8 2.5t8 1.5q9 0 9 -9q0 -11 -10.5 -13.5t-16.5 -2.5q-18 0 -32.5 13t-19.5 30q1 1 1 7t-3.5 10t-7.5 8l-9 8q-5 5 -13.5 17.5t-22.5 23.5l-5 4q0 5 8.5 11.5t15.5 6.5q9 -1 13 -7t6.5 -14.5t5.5 -16.5t11 -14 q8 -7 15 -10t16 -8zM588 243q-12 -2 -18.5 -9.5t-12 -16.5t-11 -19t-14.5 -16q0 -29 -16.5 -44.5t-41.5 -15.5q-9 0 -15.5 3.5t-6.5 10.5q0 4 1 7.5t8 3.5q5 0 8.5 -2t10.5 -2q27 6 27 26q0 9 -8 23q10 5 22 12.5t16 18.5q2 9 7.5 24t19.5 15q8 0 15 -6t9 -13zM361 428 q0 -8 4.5 -13t9.5 -5q2 0 7 1.5t5 3.5q0 9 -4 16l-5 15q0 3 -3 13.5l-5 17.5l-1 6l-9 -8q-2 2 -4.5 1.5t-4.5 0.5l-5 3q0 -2 0.5 -3.5t0.5 -2.5q-1 -7 -4 -11.5t-6 -9.5t-5.5 -13t-2.5 -22q4 -2 8.5 -4.5t5.5 -2.5q6 0 8 5.5t2 11.5q0 5 -0.5 8t-0.5 5q0 5 2.5 9t5.5 9 q3 -5 3 -11q0 -5 -1 -10t-1 -10zM318 217q2 0 6.5 -1.5t9 -4t8 -4.5t3.5 -3q0 -3 -14.5 -8.5t-34 -10t-40.5 -8t-34 -3.5q3 10 15 16t27 10.5t30 8t24 8.5zM201 215q21 4 41.5 7.5t41.5 11.5q8 -2 13 -5.5t12 -8.5l-70 -21q-4 -1 -5 -0.5t-3 -1.5q-9 0 -19.5 7.5t-10.5 10.5 zM118 200q7 0 13.5 0.5t14.5 0.5q10 0 20 -5t10 -22l-54 -4q-8 5 -9.5 13t-6.5 14l5 3h7zM613 200q0 -17 -11 -26h-55q-3 0 -3 3q0 5 6 12.5t8 9.5h5q9 0 17.5 1.5t17.5 1.5q2 0 6 -0.5t9 -1.5zM99 197q2 -6 6 -11t4 -11q0 -3 -5 -9.5t-13 -6.5q-10 0 -16.5 8.5t-6.5 18.5 q0 16 18 21h6q4 0 8 -0.5t9 -1.5q0 -5 -4 -4.5t-6 -3.5zM611 207q5 1 8.5 1.5t5.5 0.5q11 0 19 -5t8 -16q0 -10 -6.5 -17.5t-14.5 -7.5q-10 0 -18 11q0 8 3.5 13.5t5.5 11.5q-2 2 -6 2.5t-5 5.5zM120 169q2 0 2 -2q-1 -7 -8 -12t-13 -6q-2 2 -2 3q0 4 6 8t11 9h4zM606 169 q4 -5 11 -8t7 -8q-2 -2 -6 -2q-5 0 -10 4t-7 9q1 2 1.5 3.5t3.5 1.5zM331 360q2 0 2.5 5t1.5 6v4q0 7 -5 7q0 -4 1 -6t1 -5q0 -2 -0.5 -4.5t-0.5 -6.5zM354 363q1 5 1.5 8t0.5 4q0 2 -0.5 5t-2.5 3q0 -5 -1 -6q0 -5 0.5 -7t1.5 -7zM300 361q1 1 1 5t-3 4q-1 0 -1 -5 q0 -3 3 -4zM374 365q-2 0 -2 6q-1 -1 -1 -7q0 -3 3 -6v7zM349 394q0 1 3 1v8l-3 1v-10zM317 372q0 2 -2 4q0 -1 -0.5 -4t-1.5 -8z" unicode="0" glyph-name="zero"/>
<glyph d="M205 -91v153h96v-23h-71v-40h46v-23h-46v-67h-25zM322 -91v153h96v-23h-71v-40h46v-23h-46v-67h-25zM464 39v-54h14q13 0 23.5 6t10.5 22q0 14 -9.5 20t-21.5 6h-17zM439 62h38q24 0 42.5 -10.5t18.5 -38.5q0 -25 -16.5 -38t-39.5 -13h-18v-53h-25v153zM513 463 q7 -1 7 -9q0 -11 -5 -16.5t-5 -7.5t0.5 -4t0.5 -4q0 -1 -4.5 -8.5t-20.5 -7.5h-8q0 -4 2.5 -5.5t2.5 -4.5q-1 -1 -5 -2q-2 0 -7 6.5t-6 10.5q-1 0 -1 -2t-1 -3h-9q-2 0 -3 4q0 -4 -4 -6t-9 -4l-12 -3q0 3 -6 6t-12 3q-1 -1 -1 -3q0 -5 3 -8l14 -10q4 -1 4 -6q-1 -1 -1 -3v-6 l3 -1v-6l-3 -1l-2 5q0 -3 -1 -5.5t-1 -4.5q-5 0 -5 6t-1 9q-2 0 -2 -5q0 -7 3.5 -17.5t3.5 -14.5q0 -3 -4 -3q-1 0 -3 2q3 3 3 6q0 5 -4 8t-6 5q1 -2 2 -6t1 -8q0 -3 -1 -6t-6 -3v10q0 8 -0.5 14.5t-3.5 15.5q-1 -1 -1 -5q0 -2 1.5 -9t1.5 -16q0 -10 -7 -11q-3 0 -3 3v22 q-3 -2 -3 -10v-7q0 -3 -3 -7t-4 -4q-3 0 -6 1t-3 9l2 17h-7l1 -3q0 -2 0.5 -4t0.5 -5v-6q-2 -2 -2 -8q-8 2 -9.5 6.5t-1.5 9t-1 8t-8 3.5q0 -3 3 -8.5t3 -10.5q0 -8 -14 -8q-1 0 -3.5 2.5t-2.5 3.5v10q0 1 0.5 3.5l1.5 7.5l-10 1q1 -5 1.5 -8t0.5 -4q0 -13 -7 -13h-4 q-4 1 -4 8v11q0 5 1 6q-1 0 -3 -0.5t-2 -1.5q0 -3 1 -4.5t1 -6.5q0 -13 -5 -13q-2 0 -3 3.5t-2.5 8t-2.5 8t-2 3.5q0 -4 2 -6q0 -4 -2 -9t-3 -5q-3 0 -4 5t-1 9q1 1 1 4q-2 2 -2 3q0 2 1 5.5t1 5.5q0 3 -2 3q-2 -3 -2 -6t-2 -8q-2 2 -2 4l-2 4q0 2 3.5 13.5t3.5 24.5 q0 2 -1 3q-1 -1 -4 -1q-10 7 -20 7q-8 0 -12 -3t-9 -3q-3 0 -3 5q-2 -1 -3.5 -3.5t-2.5 -2.5q-5 3 -10 4.5t-5 6.5t1 6l-2 3q-3 0 -10 6.5t-7 26.5q0 10 7 11l6 -4q3 2 4.5 4t6.5 4q0 -3 4 -4l3 -2q0 5 -8 16.5t-8 22.5q3 6 2 13.5t4 12.5l6 7q2 3 4.5 5.5t2.5 3.5 q-2 0 -3 1q0 3 1.5 6t1.5 5l-3 4q0 -4 -7 -14t-11 -15q-4 7 -4 26q0 8 1.5 11.5t1.5 8.5q0 3 -1 4q-1 -3 -2.5 -10.5t-5.5 -7.5q0 8 2 13t3 13v8q0 10 7.5 23.5t18.5 27t23.5 25.5t21.5 18q17 11 37.5 16t41.5 5q23 0 46.5 -6t43.5 -17.5t34 -28.5t19 -39q0 5 -1 6h4 q1 -4 2 -7t1 -6q0 -5 -2 -7q0 -11 1 -22.5t2 -23.5q0 -5 -2 -15.5t-2 -12.5l-3 -1q-8 6 -9.5 14.5t-1.5 17.5v22l-7 -24v-5q0 -4 -1 -5q-8 5 -17 5q-2 0 -3 -1q13 -4 20.5 -13.5t11.5 -21.5t5 -24.5t1 -21.5q0 -6 -0.5 -11.5t-2.5 -11.5q2 2 4 11t7 9l3 -5q4 0 4 -4z M495 174q-61 6 -129.5 31.5t-131.5 64.5t-114 89.5t-77 107.5q-5 11 -9 22.5t-4 23.5q0 11 1 12q42 -60 96.5 -112.5t118 -93.5t133 -68t141.5 -36q-3 -9 -13 -12.5t-21 -3.5q-8 0 -16 1t-13 3q-58 20 -116.5 44t-109.5 60q45 -41 104 -65t117 -44q7 -3 14 -4t12.5 -2.5 t10.5 -5t9 -11.5zM689 538q-9 -48 -34 -92t-60 -82t-76.5 -69.5t-83.5 -53.5q-15 2 -28 9q24 14 42.5 25.5t36.5 28.5l-2 4q-22 -15 -44.5 -28.5t-46.5 -24.5q-6 1 -10.5 3.5t-9.5 5.5q94 48 173.5 115.5t142.5 158.5zM472 526q-15 12 -36 12q-2 0 -4.5 -1.5t-5.5 -2.5h-4 q-2 0 -2.5 0.5t-5.5 2.5q-6 0 -11 -5l-7 -7l-3 1l-1 -4q1 -1 1 -5q0 -3 -4 -6.5t-4 -5.5q2 0 9.5 -10t11.5 -17l4 -5l-3 -1q-3 0 -4 -1l-6 6q0 -17 15.5 -21.5t29.5 -4.5q3 0 5 0.5t4 0.5q4 0 6 -2q2 0 4 0.5t4 0.5q-2 2 -2 4q0 3 2.5 5t6.5 6l3 -4q10 16 10 35 q0 13 -5.5 18t-7.5 11zM265 459q3 0 8.5 -0.5t8.5 -0.5q15 2 29 14t14 32q0 6 -2 7t-2 6q0 2 0.5 4.5t0.5 4.5q0 8 -9.5 10.5t-16.5 2.5q-6 0 -17.5 -1.5t-23 -5t-20 -10t-8.5 -16.5q2 -3 5 -10t3 -13q0 -2 -0.5 -3.5t-0.5 -3.5q0 -6 7 -8t12 -2h4q2 -2 2 -7v-6q2 0 3 2.5 t3 3.5zM222 192q-5 -18 -5 -20q0 -8 8 -18t20 -10q4 1 8 2.5t8 1.5q9 0 9 -9q0 -11 -10.5 -13.5t-16.5 -2.5q-18 0 -32.5 13t-19.5 30q1 1 1 7t-3.5 10t-7.5 8l-9 8q-5 5 -13.5 17.5t-22.5 23.5l-5 4q0 5 8.5 11.5t15.5 6.5q9 -1 13 -7t6.5 -14.5t5.5 -16.5t11 -14 q8 -7 15 -10t16 -8zM588 243q-12 -2 -18.5 -9.5t-12 -16.5t-11 -19t-14.5 -16q0 -29 -16.5 -44.5t-41.5 -15.5q-9 0 -15.5 3.5t-6.5 10.5q0 4 1 7.5t8 3.5q5 0 8.5 -2t10.5 -2q27 6 27 26q0 9 -8 23q10 5 22 12.5t16 18.5q2 9 7.5 24t19.5 15q8 0 15 -6t9 -13zM361 428 q0 -8 4.5 -13t9.5 -5q2 0 7 1.5t5 3.5q0 9 -4 16l-5 15q0 3 -3 13.5l-5 17.5l-1 6l-9 -8q-2 2 -4.5 1.5t-4.5 0.5l-5 3q0 -2 0.5 -3.5t0.5 -2.5q-1 -7 -4 -11.5t-6 -9.5t-5.5 -13t-2.5 -22q4 -2 8.5 -4.5t5.5 -2.5q6 0 8 5.5t2 11.5q0 5 -0.5 8t-0.5 5q0 5 2.5 9t5.5 9 q3 -5 3 -11q0 -5 -1 -10t-1 -10zM318 217q2 0 6.5 -1.5t9 -4t8 -4.5t3.5 -3q0 -3 -14.5 -8.5t-34 -10t-40.5 -8t-34 -3.5q3 10 15 16t27 10.5t30 8t24 8.5zM201 215q21 4 41.5 7.5t41.5 11.5q8 -2 13 -5.5t12 -8.5l-70 -21q-4 -1 -5 -0.5t-3 -1.5q-9 0 -19.5 7.5t-10.5 10.5 zM118 200q7 0 13.5 0.5t14.5 0.5q10 0 20 -5t10 -22l-54 -4q-8 5 -9.5 13t-6.5 14l5 3h7zM613 200q0 -17 -11 -26h-55q-3 0 -3 3q0 5 6 12.5t8 9.5h5q9 0 17.5 1.5t17.5 1.5q2 0 6 -0.5t9 -1.5zM99 197q2 -6 6 -11t4 -11q0 -3 -5 -9.5t-13 -6.5q-10 0 -16.5 8.5t-6.5 18.5 q0 16 18 21h6q4 0 8 -0.5t9 -1.5q0 -5 -4 -4.5t-6 -3.5zM611 207q5 1 8.5 1.5t5.5 0.5q11 0 19 -5t8 -16q0 -10 -6.5 -17.5t-14.5 -7.5q-10 0 -18 11q0 8 3.5 13.5t5.5 11.5q-2 2 -6 2.5t-5 5.5zM120 169q2 0 2 -2q-1 -7 -8 -12t-13 -6q-2 2 -2 3q0 4 6 8t11 9h4zM606 169 q4 -5 11 -8t7 -8q-2 -2 -6 -2q-5 0 -10 4t-7 9q1 2 1.5 3.5t3.5 1.5zM331 360q2 0 2.5 5t1.5 6v4q0 7 -5 7q0 -4 1 -6t1 -5q0 -2 -0.5 -4.5t-0.5 -6.5zM354 363q1 5 1.5 8t0.5 4q0 2 -0.5 5t-2.5 3q0 -5 -1 -6q0 -5 0.5 -7t1.5 -7zM300 361q1 1 1 5t-3 4q-1 0 -1 -5 q0 -3 3 -4zM374 365q-2 0 -2 6q-1 -1 -1 -7q0 -3 3 -6v7zM349 394q0 1 3 1v8l-3 1v-10zM317 372q0 2 -2 4q0 -1 -0.5 -4t-1.5 -8z" unicode="1" glyph-name="one"/>
<glyph d="M205 -91v153h96v-23h-71v-40h46v-23h-46v-67h-25zM322 -91v153h96v-23h-71v-40h46v-23h-46v-67h-25zM464 39v-54h14q13 0 23.5 6t10.5 22q0 14 -9.5 20t-21.5 6h-17zM439 62h38q24 0 42.5 -10.5t18.5 -38.5q0 -25 -16.5 -38t-39.5 -13h-18v-53h-25v153zM513 463 q7 -1 7 -9q0 -11 -5 -16.5t-5 -7.5t0.5 -4t0.5 -4q0 -1 -4.5 -8.5t-20.5 -7.5h-8q0 -4 2.5 -5.5t2.5 -4.5q-1 -1 -5 -2q-2 0 -7 6.5t-6 10.5q-1 0 -1 -2t-1 -3h-9q-2 0 -3 4q0 -4 -4 -6t-9 -4l-12 -3q0 3 -6 6t-12 3q-1 -1 -1 -3q0 -5 3 -8l14 -10q4 -1 4 -6q-1 -1 -1 -3v-6 l3 -1v-6l-3 -1l-2 5q0 -3 -1 -5.5t-1 -4.5q-5 0 -5 6t-1 9q-2 0 -2 -5q0 -7 3.5 -17.5t3.5 -14.5q0 -3 -4 -3q-1 0 -3 2q3 3 3 6q0 5 -4 8t-6 5q1 -2 2 -6t1 -8q0 -3 -1 -6t-6 -3v10q0 8 -0.5 14.5t-3.5 15.5q-1 -1 -1 -5q0 -2 1.5 -9t1.5 -16q0 -10 -7 -11q-3 0 -3 3v22 q-3 -2 -3 -10v-7q0 -3 -3 -7t-4 -4q-3 0 -6 1t-3 9l2 17h-7l1 -3q0 -2 0.5 -4t0.5 -5v-6q-2 -2 -2 -8q-8 2 -9.5 6.5t-1.5 9t-1 8t-8 3.5q0 -3 3 -8.5t3 -10.5q0 -8 -14 -8q-1 0 -3.5 2.5t-2.5 3.5v10q0 1 0.5 3.5l1.5 7.5l-10 1q1 -5 1.5 -8t0.5 -4q0 -13 -7 -13h-4 q-4 1 -4 8v11q0 5 1 6q-1 0 -3 -0.5t-2 -1.5q0 -3 1 -4.5t1 -6.5q0 -13 -5 -13q-2 0 -3 3.5t-2.5 8t-2.5 8t-2 3.5q0 -4 2 -6q0 -4 -2 -9t-3 -5q-3 0 -4 5t-1 9q1 1 1 4q-2 2 -2 3q0 2 1 5.5t1 5.5q0 3 -2 3q-2 -3 -2 -6t-2 -8q-2 2 -2 4l-2 4q0 2 3.5 13.5t3.5 24.5 q0 2 -1 3q-1 -1 -4 -1q-10 7 -20 7q-8 0 -12 -3t-9 -3q-3 0 -3 5q-2 -1 -3.5 -3.5t-2.5 -2.5q-5 3 -10 4.5t-5 6.5t1 6l-2 3q-3 0 -10 6.5t-7 26.5q0 10 7 11l6 -4q3 2 4.5 4t6.5 4q0 -3 4 -4l3 -2q0 5 -8 16.5t-8 22.5q3 6 2 13.5t4 12.5l6 7q2 3 4.5 5.5t2.5 3.5 q-2 0 -3 1q0 3 1.5 6t1.5 5l-3 4q0 -4 -7 -14t-11 -15q-4 7 -4 26q0 8 1.5 11.5t1.5 8.5q0 3 -1 4q-1 -3 -2.5 -10.5t-5.5 -7.5q0 8 2 13t3 13v8q0 10 7.5 23.5t18.5 27t23.5 25.5t21.5 18q17 11 37.5 16t41.5 5q23 0 46.5 -6t43.5 -17.5t34 -28.5t19 -39q0 5 -1 6h4 q1 -4 2 -7t1 -6q0 -5 -2 -7q0 -11 1 -22.5t2 -23.5q0 -5 -2 -15.5t-2 -12.5l-3 -1q-8 6 -9.5 14.5t-1.5 17.5v22l-7 -24v-5q0 -4 -1 -5q-8 5 -17 5q-2 0 -3 -1q13 -4 20.5 -13.5t11.5 -21.5t5 -24.5t1 -21.5q0 -6 -0.5 -11.5t-2.5 -11.5q2 2 4 11t7 9l3 -5q4 0 4 -4z M495 174q-61 6 -129.5 31.5t-131.5 64.5t-114 89.5t-77 107.5q-5 11 -9 22.5t-4 23.5q0 11 1 12q42 -60 96.5 -112.5t118 -93.5t133 -68t141.5 -36q-3 -9 -13 -12.5t-21 -3.5q-8 0 -16 1t-13 3q-58 20 -116.5 44t-109.5 60q45 -41 104 -65t117 -44q7 -3 14 -4t12.5 -2.5 t10.5 -5t9 -11.5zM689 538q-9 -48 -34 -92t-60 -82t-76.5 -69.5t-83.5 -53.5q-15 2 -28 9q24 14 42.5 25.5t36.5 28.5l-2 4q-22 -15 -44.5 -28.5t-46.5 -24.5q-6 1 -10.5 3.5t-9.5 5.5q94 48 173.5 115.5t142.5 158.5zM472 526q-15 12 -36 12q-2 0 -4.5 -1.5t-5.5 -2.5h-4 q-2 0 -2.5 0.5t-5.5 2.5q-6 0 -11 -5l-7 -7l-3 1l-1 -4q1 -1 1 -5q0 -3 -4 -6.5t-4 -5.5q2 0 9.5 -10t11.5 -17l4 -5l-3 -1q-3 0 -4 -1l-6 6q0 -17 15.5 -21.5t29.5 -4.5q3 0 5 0.5t4 0.5q4 0 6 -2q2 0 4 0.5t4 0.5q-2 2 -2 4q0 3 2.5 5t6.5 6l3 -4q10 16 10 35 q0 13 -5.5 18t-7.5 11zM265 459q3 0 8.5 -0.5t8.5 -0.5q15 2 29 14t14 32q0 6 -2 7t-2 6q0 2 0.5 4.5t0.5 4.5q0 8 -9.5 10.5t-16.5 2.5q-6 0 -17.5 -1.5t-23 -5t-20 -10t-8.5 -16.5q2 -3 5 -10t3 -13q0 -2 -0.5 -3.5t-0.5 -3.5q0 -6 7 -8t12 -2h4q2 -2 2 -7v-6q2 0 3 2.5 t3 3.5zM222 192q-5 -18 -5 -20q0 -8 8 -18t20 -10q4 1 8 2.5t8 1.5q9 0 9 -9q0 -11 -10.5 -13.5t-16.5 -2.5q-18 0 -32.5 13t-19.5 30q1 1 1 7t-3.5 10t-7.5 8l-9 8q-5 5 -13.5 17.5t-22.5 23.5l-5 4q0 5 8.5 11.5t15.5 6.5q9 -1 13 -7t6.5 -14.5t5.5 -16.5t11 -14 q8 -7 15 -10t16 -8zM588 243q-12 -2 -18.5 -9.5t-12 -16.5t-11 -19t-14.5 -16q0 -29 -16.5 -44.5t-41.5 -15.5q-9 0 -15.5 3.5t-6.5 10.5q0 4 1 7.5t8 3.5q5 0 8.5 -2t10.5 -2q27 6 27 26q0 9 -8 23q10 5 22 12.5t16 18.5q2 9 7.5 24t19.5 15q8 0 15 -6t9 -13zM361 428 q0 -8 4.5 -13t9.5 -5q2 0 7 1.5t5 3.5q0 9 -4 16l-5 15q0 3 -3 13.5l-5 17.5l-1 6l-9 -8q-2 2 -4.5 1.5t-4.5 0.5l-5 3q0 -2 0.5 -3.5t0.5 -2.5q-1 -7 -4 -11.5t-6 -9.5t-5.5 -13t-2.5 -22q4 -2 8.5 -4.5t5.5 -2.5q6 0 8 5.5t2 11.5q0 5 -0.5 8t-0.5 5q0 5 2.5 9t5.5 9 q3 -5 3 -11q0 -5 -1 -10t-1 -10zM318 217q2 0 6.5 -1.5t9 -4t8 -4.5t3.5 -3q0 -3 -14.5 -8.5t-34 -10t-40.5 -8t-34 -3.5q3 10 15 16t27 10.5t30 8t24 8.5zM201 215q21 4 41.5 7.5t41.5 11.5q8 -2 13 -5.5t12 -8.5l-70 -21q-4 -1 -5 -0.5t-3 -1.5q-9 0 -19.5 7.5t-10.5 10.5 zM118 200q7 0 13.5 0.5t14.5 0.5q10 0 20 -5t10 -22l-54 -4q-8 5 -9.5 13t-6.5 14l5 3h7zM613 200q0 -17 -11 -26h-55q-3 0 -3 3q0 5 6 12.5t8 9.5h5q9 0 17.5 1.5t17.5 1.5q2 0 6 -0.5t9 -1.5zM99 197q2 -6 6 -11t4 -11q0 -3 -5 -9.5t-13 -6.5q-10 0 -16.5 8.5t-6.5 18.5 q0 16 18 21h6q4 0 8 -0.5t9 -1.5q0 -5 -4 -4.5t-6 -3.5zM611 207q5 1 8.5 1.5t5.5 0.5q11 0 19 -5t8 -16q0 -10 -6.5 -17.5t-14.5 -7.5q-10 0 -18 11q0 8 3.5 13.5t5.5 11.5q-2 2 -6 2.5t-5 5.5zM120 169q2 0 2 -2q-1 -7 -8 -12t-13 -6q-2 2 -2 3q0 4 6 8t11 9h4zM606 169 q4 -5 11 -8t7 -8q-2 -2 -6 -2q-5 0 -10 4t-7 9q1 2 1.5 3.5t3.5 1.5zM331 360q2 0 2.5 5t1.5 6v4q0 7 -5 7q0 -4 1 -6t1 -5q0 -2 -0.5 -4.5t-0.5 -6.5zM354 363q1 5 1.5 8t0.5 4q0 2 -0.5 5t-2.5 3q0 -5 -1 -6q0 -5 0.5 -7t1.5 -7zM300 361q1 1 1 5t-3 4q-1 0 -1 -5 q0 -3 3 -4zM374 365q-2 0 -2 6q-1 -1 -1 -7q0 -3 3 -6v7zM349 394q0 1 3 1v8l-3 1v-10zM317 372q0 2 -2 4q0 -1 -0.5 -4t-1.5 -8z" unicode="2" glyph-name="two"/>
<glyph d="M205 -91v153h96v-23h-71v-40h46v-23h-46v-67h-25zM322 -91v153h96v-23h-71v-40h46v-23h-46v-67h-25zM464 39v-54h14q13 0 23.5 6t10.5 22q0 14 -9.5 20t-21.5 6h-17zM439 62h38q24 0 42.5 -10.5t18.5 -38.5q0 -25 -16.5 -38t-39.5 -13h-18v-53h-25v153zM513 463 q7 -1 7 -9q0 -11 -5 -16.5t-5 -7.5t0.5 -4t0.5 -4q0 -1 -4.5 -8.5t-20.5 -7.5h-8q0 -4 2.5 -5.5t2.5 -4.5q-1 -1 -5 -2q-2 0 -7 6.5t-6 10.5q-1 0 -1 -2t-1 -3h-9q-2 0 -3 4q0 -4 -4 -6t-9 -4l-12 -3q0 3 -6 6t-12 3q-1 -1 -1 -3q0 -5 3 -8l14 -10q4 -1 4 -6q-1 -1 -1 -3v-6 l3 -1v-6l-3 -1l-2 5q0 -3 -1 -5.5t-1 -4.5q-5 0 -5 6t-1 9q-2 0 -2 -5q0 -7 3.5 -17.5t3.5 -14.5q0 -3 -4 -3q-1 0 -3 2q3 3 3 6q0 5 -4 8t-6 5q1 -2 2 -6t1 -8q0 -3 -1 -6t-6 -3v10q0 8 -0.5 14.5t-3.5 15.5q-1 -1 -1 -5q0 -2 1.5 -9t1.5 -16q0 -10 -7 -11q-3 0 -3 3v22 q-3 -2 -3 -10v-7q0 -3 -3 -7t-4 -4q-3 0 -6 1t-3 9l2 17h-7l1 -3q0 -2 0.5 -4t0.5 -5v-6q-2 -2 -2 -8q-8 2 -9.5 6.5t-1.5 9t-1 8t-8 3.5q0 -3 3 -8.5t3 -10.5q0 -8 -14 -8q-1 0 -3.5 2.5t-2.5 3.5v10q0 1 0.5 3.5l1.5 7.5l-10 1q1 -5 1.5 -8t0.5 -4q0 -13 -7 -13h-4 q-4 1 -4 8v11q0 5 1 6q-1 0 -3 -0.5t-2 -1.5q0 -3 1 -4.5t1 -6.5q0 -13 -5 -13q-2 0 -3 3.5t-2.5 8t-2.5 8t-2 3.5q0 -4 2 -6q0 -4 -2 -9t-3 -5q-3 0 -4 5t-1 9q1 1 1 4q-2 2 -2 3q0 2 1 5.5t1 5.5q0 3 -2 3q-2 -3 -2 -6t-2 -8q-2 2 -2 4l-2 4q0 2 3.5 13.5t3.5 24.5 q0 2 -1 3q-1 -1 -4 -1q-10 7 -20 7q-8 0 -12 -3t-9 -3q-3 0 -3 5q-2 -1 -3.5 -3.5t-2.5 -2.5q-5 3 -10 4.5t-5 6.5t1 6l-2 3q-3 0 -10 6.5t-7 26.5q0 10 7 11l6 -4q3 2 4.5 4t6.5 4q0 -3 4 -4l3 -2q0 5 -8 16.5t-8 22.5q3 6 2 13.5t4 12.5l6 7q2 3 4.5 5.5t2.5 3.5 q-2 0 -3 1q0 3 1.5 6t1.5 5l-3 4q0 -4 -7 -14t-11 -15q-4 7 -4 26q0 8 1.5 11.5t1.5 8.5q0 3 -1 4q-1 -3 -2.5 -10.5t-5.5 -7.5q0 8 2 13t3 13v8q0 10 7.5 23.5t18.5 27t23.5 25.5t21.5 18q17 11 37.5 16t41.5 5q23 0 46.5 -6t43.5 -17.5t34 -28.5t19 -39q0 5 -1 6h4 q1 -4 2 -7t1 -6q0 -5 -2 -7q0 -11 1 -22.5t2 -23.5q0 -5 -2 -15.5t-2 -12.5l-3 -1q-8 6 -9.5 14.5t-1.5 17.5v22l-7 -24v-5q0 -4 -1 -5q-8 5 -17 5q-2 0 -3 -1q13 -4 20.5 -13.5t11.5 -21.5t5 -24.5t1 -21.5q0 -6 -0.5 -11.5t-2.5 -11.5q2 2 4 11t7 9l3 -5q4 0 4 -4z M495 174q-61 6 -129.5 31.5t-131.5 64.5t-114 89.5t-77 107.5q-5 11 -9 22.5t-4 23.5q0 11 1 12q42 -60 96.5 -112.5t118 -93.5t133 -68t141.5 -36q-3 -9 -13 -12.5t-21 -3.5q-8 0 -16 1t-13 3q-58 20 -116.5 44t-109.5 60q45 -41 104 -65t117 -44q7 -3 14 -4t12.5 -2.5 t10.5 -5t9 -11.5zM689 538q-9 -48 -34 -92t-60 -82t-76.5 -69.5t-83.5 -53.5q-15 2 -28 9q24 14 42.5 25.5t36.5 28.5l-2 4q-22 -15 -44.5 -28.5t-46.5 -24.5q-6 1 -10.5 3.5t-9.5 5.5q94 48 173.5 115.5t142.5 158.5zM472 526q-15 12 -36 12q-2 0 -4.5 -1.5t-5.5 -2.5h-4 q-2 0 -2.5 0.5t-5.5 2.5q-6 0 -11 -5l-7 -7l-3 1l-1 -4q1 -1 1 -5q0 -3 -4 -6.5t-4 -5.5q2 0 9.5 -10t11.5 -17l4 -5l-3 -1q-3 0 -4 -1l-6 6q0 -17 15.5 -21.5t29.5 -4.5q3 0 5 0.5t4 0.5q4 0 6 -2q2 0 4 0.5t4 0.5q-2 2 -2 4q0 3 2.5 5t6.5 6l3 -4q10 16 10 35 q0 13 -5.5 18t-7.5 11zM265 459q3 0 8.5 -0.5t8.5 -0.5q15 2 29 14t14 32q0 6 -2 7t-2 6q0 2 0.5 4.5t0.5 4.5q0 8 -9.5 10.5t-16.5 2.5q-6 0 -17.5 -1.5t-23 -5t-20 -10t-8.5 -16.5q2 -3 5 -10t3 -13q0 -2 -0.5 -3.5t-0.5 -3.5q0 -6 7 -8t12 -2h4q2 -2 2 -7v-6q2 0 3 2.5 t3 3.5zM222 192q-5 -18 -5 -20q0 -8 8 -18t20 -10q4 1 8 2.5t8 1.5q9 0 9 -9q0 -11 -10.5 -13.5t-16.5 -2.5q-18 0 -32.5 13t-19.5 30q1 1 1 7t-3.5 10t-7.5 8l-9 8q-5 5 -13.5 17.5t-22.5 23.5l-5 4q0 5 8.5 11.5t15.5 6.5q9 -1 13 -7t6.5 -14.5t5.5 -16.5t11 -14 q8 -7 15 -10t16 -8zM588 243q-12 -2 -18.5 -9.5t-12 -16.5t-11 -19t-14.5 -16q0 -29 -16.5 -44.5t-41.5 -15.5q-9 0 -15.5 3.5t-6.5 10.5q0 4 1 7.5t8 3.5q5 0 8.5 -2t10.5 -2q27 6 27 26q0 9 -8 23q10 5 22 12.5t16 18.5q2 9 7.5 24t19.5 15q8 0 15 -6t9 -13zM361 428 q0 -8 4.5 -13t9.5 -5q2 0 7 1.5t5 3.5q0 9 -4 16l-5 15q0 3 -3 13.5l-5 17.5l-1 6l-9 -8q-2 2 -4.5 1.5t-4.5 0.5l-5 3q0 -2 0.5 -3.5t0.5 -2.5q-1 -7 -4 -11.5t-6 -9.5t-5.5 -13t-2.5 -22q4 -2 8.5 -4.5t5.5 -2.5q6 0 8 5.5t2 11.5q0 5 -0.5 8t-0.5 5q0 5 2.5 9t5.5 9 q3 -5 3 -11q0 -5 -1 -10t-1 -10zM318 217q2 0 6.5 -1.5t9 -4t8 -4.5t3.5 -3q0 -3 -14.5 -8.5t-34 -10t-40.5 -8t-34 -3.5q3 10 15 16t27 10.5t30 8t24 8.5zM201 215q21 4 41.5 7.5t41.5 11.5q8 -2 13 -5.5t12 -8.5l-70 -21q-4 -1 -5 -0.5t-3 -1.5q-9 0 -19.5 7.5t-10.5 10.5 zM118 200q7 0 13.5 0.5t14.5 0.5q10 0 20 -5t10 -22l-54 -4q-8 5 -9.5 13t-6.5 14l5 3h7zM613 200q0 -17 -11 -26h-55q-3 0 -3 3q0 5 6 12.5t8 9.5h5q9 0 17.5 1.5t17.5 1.5q2 0 6 -0.5t9 -1.5zM99 197q2 -6 6 -11t4 -11q0 -3 -5 -9.5t-13 -6.5q-10 0 -16.5 8.5t-6.5 18.5 q0 16 18 21h6q4 0 8 -0.5t9 -1.5q0 -5 -4 -4.5t-6 -3.5zM611 207q5 1 8.5 1.5t5.5 0.5q11 0 19 -5t8 -16q0 -10 -6.5 -17.5t-14.5 -7.5q-10 0 -18 11q0 8 3.5 13.5t5.5 11.5q-2 2 -6 2.5t-5 5.5zM120 169q2 0 2 -2q-1 -7 -8 -12t-13 -6q-2 2 -2 3q0 4 6 8t11 9h4zM606 169 q4 -5 11 -8t7 -8q-2 -2 -6 -2q-5 0 -10 4t-7 9q1 2 1.5 3.5t3.5 1.5zM331 360q2 0 2.5 5t1.5 6v4q0 7 -5 7q0 -4 1 -6t1 -5q0 -2 -0.5 -4.5t-0.5 -6.5zM354 363q1 5 1.5 8t0.5 4q0 2 -0.5 5t-2.5 3q0 -5 -1 -6q0 -5 0.5 -7t1.5 -7zM300 361q1 1 1 5t-3 4q-1 0 -1 -5 q0 -3 3 -4zM374 365q-2 0 -2 6q-1 -1 -1 -7q0 -3 3 -6v7zM349 394q0 1 3 1v8l-3 1v-10zM317 372q0 2 -2 4q0 -1 -0.5 -4t-1.5 -8z" unicode="3" glyph-name="three"/>
<glyph d="M205 -91v153h96v-23h-71v-40h46v-23h-46v-67h-25zM322 -91v153h96v-23h-71v-40h46v-23h-46v-67h-25zM464 39v-54h14q13 0 23.5 6t10.5 22q0 14 -9.5 20t-21.5 6h-17zM439 62h38q24 0 42.5 -10.5t18.5 -38.5q0 -25 -16.5 -38t-39.5 -13h-18v-53h-25v153zM513 463 q7 -1 7 -9q0 -11 -5 -16.5t-5 -7.5t0.5 -4t0.5 -4q0 -1 -4.5 -8.5t-20.5 -7.5h-8q0 -4 2.5 -5.5t2.5 -4.5q-1 -1 -5 -2q-2 0 -7 6.5t-6 10.5q-1 0 -1 -2t-1 -3h-9q-2 0 -3 4q0 -4 -4 -6t-9 -4l-12 -3q0 3 -6 6t-12 3q-1 -1 -1 -3q0 -5 3 -8l14 -10q4 -1 4 -6q-1 -1 -1 -3v-6 l3 -1v-6l-3 -1l-2 5q0 -3 -1 -5.5t-1 -4.5q-5 0 -5 6t-1 9q-2 0 -2 -5q0 -7 3.5 -17.5t3.5 -14.5q0 -3 -4 -3q-1 0 -3 2q3 3 3 6q0 5 -4 8t-6 5q1 -2 2 -6t1 -8q0 -3 -1 -6t-6 -3v10q0 8 -0.5 14.5t-3.5 15.5q-1 -1 -1 -5q0 -2 1.5 -9t1.5 -16q0 -10 -7 -11q-3 0 -3 3v22 q-3 -2 -3 -10v-7q0 -3 -3 -7t-4 -4q-3 0 -6 1t-3 9l2 17h-7l1 -3q0 -2 0.5 -4t0.5 -5v-6q-2 -2 -2 -8q-8 2 -9.5 6.5t-1.5 9t-1 8t-8 3.5q0 -3 3 -8.5t3 -10.5q0 -8 -14 -8q-1 0 -3.5 2.5t-2.5 3.5v10q0 1 0.5 3.5l1.5 7.5l-10 1q1 -5 1.5 -8t0.5 -4q0 -13 -7 -13h-4 q-4 1 -4 8v11q0 5 1 6q-1 0 -3 -0.5t-2 -1.5q0 -3 1 -4.5t1 -6.5q0 -13 -5 -13q-2 0 -3 3.5t-2.5 8t-2.5 8t-2 3.5q0 -4 2 -6q0 -4 -2 -9t-3 -5q-3 0 -4 5t-1 9q1 1 1 4q-2 2 -2 3q0 2 1 5.5t1 5.5q0 3 -2 3q-2 -3 -2 -6t-2 -8q-2 2 -2 4l-2 4q0 2 3.5 13.5t3.5 24.5 q0 2 -1 3q-1 -1 -4 -1q-10 7 -20 7q-8 0 -12 -3t-9 -3q-3 0 -3 5q-2 -1 -3.5 -3.5t-2.5 -2.5q-5 3 -10 4.5t-5 6.5t1 6l-2 3q-3 0 -10 6.5t-7 26.5q0 10 7 11l6 -4q3 2 4.5 4t6.5 4q0 -3 4 -4l3 -2q0 5 -8 16.5t-8 22.5q3 6 2 13.5t4 12.5l6 7q2 3 4.5 5.5t2.5 3.5 q-2 0 -3 1q0 3 1.5 6t1.5 5l-3 4q0 -4 -7 -14t-11 -15q-4 7 -4 26q0 8 1.5 11.5t1.5 8.5q0 3 -1 4q-1 -3 -2.5 -10.5t-5.5 -7.5q0 8 2 13t3 13v8q0 10 7.5 23.5t18.5 27t23.5 25.5t21.5 18q17 11 37.5 16t41.5 5q23 0 46.5 -6t43.5 -17.5t34 -28.5t19 -39q0 5 -1 6h4 q1 -4 2 -7t1 -6q0 -5 -2 -7q0 -11 1 -22.5t2 -23.5q0 -5 -2 -15.5t-2 -12.5l-3 -1q-8 6 -9.5 14.5t-1.5 17.5v22l-7 -24v-5q0 -4 -1 -5q-8 5 -17 5q-2 0 -3 -1q13 -4 20.5 -13.5t11.5 -21.5t5 -24.5t1 -21.5q0 -6 -0.5 -11.5t-2.5 -11.5q2 2 4 11t7 9l3 -5q4 0 4 -4z M495 174q-61 6 -129.5 31.5t-131.5 64.5t-114 89.5t-77 107.5q-5 11 -9 22.5t-4 23.5q0 11 1 12q42 -60 96.5 -112.5t118 -93.5t133 -68t141.5 -36q-3 -9 -13 -12.5t-21 -3.5q-8 0 -16 1t-13 3q-58 20 -116.5 44t-109.5 60q45 -41 104 -65t117 -44q7 -3 14 -4t12.5 -2.5 t10.5 -5t9 -11.5zM689 538q-9 -48 -34 -92t-60 -82t-76.5 -69.5t-83.5 -53.5q-15 2 -28 9q24 14 42.5 25.5t36.5 28.5l-2 4q-22 -15 -44.5 -28.5t-46.5 -24.5q-6 1 -10.5 3.5t-9.5 5.5q94 48 173.5 115.5t142.5 158.5zM472 526q-15 12 -36 12q-2 0 -4.5 -1.5t-5.5 -2.5h-4 q-2 0 -2.5 0.5t-5.5 2.5q-6 0 -11 -5l-7 -7l-3 1l-1 -4q1 -1 1 -5q0 -3 -4 -6.5t-4 -5.5q2 0 9.5 -10t11.5 -17l4 -5l-3 -1q-3 0 -4 -1l-6 6q0 -17 15.5 -21.5t29.5 -4.5q3 0 5 0.5t4 0.5q4 0 6 -2q2 0 4 0.5t4 0.5q-2 2 -2 4q0 3 2.5 5t6.5 6l3 -4q10 16 10 35 q0 13 -5.5 18t-7.5 11zM265 459q3 0 8.5 -0.5t8.5 -0.5q15 2 29 14t14 32q0 6 -2 7t-2 6q0 2 0.5 4.5t0.5 4.5q0 8 -9.5 10.5t-16.5 2.5q-6 0 -17.5 -1.5t-23 -5t-20 -10t-8.5 -16.5q2 -3 5 -10t3 -13q0 -2 -0.5 -3.5t-0.5 -3.5q0 -6 7 -8t12 -2h4q2 -2 2 -7v-6q2 0 3 2.5 t3 3.5zM222 192q-5 -18 -5 -20q0 -8 8 -18t20 -10q4 1 8 2.5t8 1.5q9 0 9 -9q0 -11 -10.5 -13.5t-16.5 -2.5q-18 0 -32.5 13t-19.5 30q1 1 1 7t-3.5 10t-7.5 8l-9 8q-5 5 -13.5 17.5t-22.5 23.5l-5 4q0 5 8.5 11.5t15.5 6.5q9 -1 13 -7t6.5 -14.5t5.5 -16.5t11 -14 q8 -7 15 -10t16 -8zM588 243q-12 -2 -18.5 -9.5t-12 -16.5t-11 -19t-14.5 -16q0 -29 -16.5 -44.5t-41.5 -15.5q-9 0 -15.5 3.5t-6.5 10.5q0 4 1 7.5t8 3.5q5 0 8.5 -2t10.5 -2q27 6 27 26q0 9 -8 23q10 5 22 12.5t16 18.5q2 9 7.5 24t19.5 15q8 0 15 -6t9 -13zM361 428 q0 -8 4.5 -13t9.5 -5q2 0 7 1.5t5 3.5q0 9 -4 16l-5 15q0 3 -3 13.5l-5 17.5l-1 6l-9 -8q-2 2 -4.5 1.5t-4.5 0.5l-5 3q0 -2 0.5 -3.5t0.5 -2.5q-1 -7 -4 -11.5t-6 -9.5t-5.5 -13t-2.5 -22q4 -2 8.5 -4.5t5.5 -2.5q6 0 8 5.5t2 11.5q0 5 -0.5 8t-0.5 5q0 5 2.5 9t5.5 9 q3 -5 3 -11q0 -5 -1 -10t-1 -10zM318 217q2 0 6.5 -1.5t9 -4t8 -4.5t3.5 -3q0 -3 -14.5 -8.5t-34 -10t-40.5 -8t-34 -3.5q3 10 15 16t27 10.5t30 8t24 8.5zM201 215q21 4 41.5 7.5t41.5 11.5q8 -2 13 -5.5t12 -8.5l-70 -21q-4 -1 -5 -0.5t-3 -1.5q-9 0 -19.5 7.5t-10.5 10.5 zM118 200q7 0 13.5 0.5t14.5 0.5q10 0 20 -5t10 -22l-54 -4q-8 5 -9.5 13t-6.5 14l5 3h7zM613 200q0 -17 -11 -26h-55q-3 0 -3 3q0 5 6 12.5t8 9.5h5q9 0 17.5 1.5t17.5 1.5q2 0 6 -0.5t9 -1.5zM99 197q2 -6 6 -11t4 -11q0 -3 -5 -9.5t-13 -6.5q-10 0 -16.5 8.5t-6.5 18.5 q0 16 18 21h6q4 0 8 -0.5t9 -1.5q0 -5 -4 -4.5t-6 -3.5zM611 207q5 1 8.5 1.5t5.5 0.5q11 0 19 -5t8 -16q0 -10 -6.5 -17.5t-14.5 -7.5q-10 0 -18 11q0 8 3.5 13.5t5.5 11.5q-2 2 -6 2.5t-5 5.5zM120 169q2 0 2 -2q-1 -7 -8 -12t-13 -6q-2 2 -2 3q0 4 6 8t11 9h4zM606 169 q4 -5 11 -8t7 -8q-2 -2 -6 -2q-5 0 -10 4t-7 9q1 2 1.5 3.5t3.5 1.5zM331 360q2 0 2.5 5t1.5 6v4q0 7 -5 7q0 -4 1 -6t1 -5q0 -2 -0.5 -4.5t-0.5 -6.5zM354 363q1 5 1.5 8t0.5 4q0 2 -0.5 5t-2.5 3q0 -5 -1 -6q0 -5 0.5 -7t1.5 -7zM300 361q1 1 1 5t-3 4q-1 0 -1 -5 q0 -3 3 -4zM374 365q-2 0 -2 6q-1 -1 -1 -7q0 -3 3 -6v7zM349 394q0 1 3 1v8l-3 1v-10zM317 372q0 2 -2 4q0 -1 -0.5 -4t-1.5 -8z" unicode="4" glyph-name="four"/>
<glyph d="M205 -91v153h96v-23h-71v-40h46v-23h-46v-67h-25zM322 -91v153h96v-23h-71v-40h46v-23h-46v-67h-25zM464 39v-54h14q13 0 23.5 6t10.5 22q0 14 -9.5 20t-21.5 6h-17zM439 62h38q24 0 42.5 -10.5t18.5 -38.5q0 -25 -16.5 -38t-39.5 -13h-18v-53h-25v153zM513 463 q7 -1 7 -9q0 -11 -5 -16.5t-5 -7.5t0.5 -4t0.5 -4q0 -1 -4.5 -8.5t-20.5 -7.5h-8q0 -4 2.5 -5.5t2.5 -4.5q-1 -1 -5 -2q-2 0 -7 6.5t-6 10.5q-1 0 -1 -2t-1 -3h-9q-2 0 -3 4q0 -4 -4 -6t-9 -4l-12 -3q0 3 -6 6t-12 3q-1 -1 -1 -3q0 -5 3 -8l14 -10q4 -1 4 -6q-1 -1 -1 -3v-6 l3 -1v-6l-3 -1l-2 5q0 -3 -1 -5.5t-1 -4.5q-5 0 -5 6t-1 9q-2 0 -2 -5q0 -7 3.5 -17.5t3.5 -14.5q0 -3 -4 -3q-1 0 -3 2q3 3 3 6q0 5 -4 8t-6 5q1 -2 2 -6t1 -8q0 -3 -1 -6t-6 -3v10q0 8 -0.5 14.5t-3.5 15.5q-1 -1 -1 -5q0 -2 1.5 -9t1.5 -16q0 -10 -7 -11q-3 0 -3 3v22 q-3 -2 -3 -10v-7q0 -3 -3 -7t-4 -4q-3 0 -6 1t-3 9l2 17h-7l1 -3q0 -2 0.5 -4t0.5 -5v-6q-2 -2 -2 -8q-8 2 -9.5 6.5t-1.5 9t-1 8t-8 3.5q0 -3 3 -8.5t3 -10.5q0 -8 -14 -8q-1 0 -3.5 2.5t-2.5 3.5v10q0 1 0.5 3.5l1.5 7.5l-10 1q1 -5 1.5 -8t0.5 -4q0 -13 -7 -13h-4 q-4 1 -4 8v11q0 5 1 6q-1 0 -3 -0.5t-2 -1.5q0 -3 1 -4.5t1 -6.5q0 -13 -5 -13q-2 0 -3 3.5t-2.5 8t-2.5 8t-2 3.5q0 -4 2 -6q0 -4 -2 -9t-3 -5q-3 0 -4 5t-1 9q1 1 1 4q-2 2 -2 3q0 2 1 5.5t1 5.5q0 3 -2 3q-2 -3 -2 -6t-2 -8q-2 2 -2 4l-2 4q0 2 3.5 13.5t3.5 24.5 q0 2 -1 3q-1 -1 -4 -1q-10 7 -20 7q-8 0 -12 -3t-9 -3q-3 0 -3 5q-2 -1 -3.5 -3.5t-2.5 -2.5q-5 3 -10 4.5t-5 6.5t1 6l-2 3q-3 0 -10 6.5t-7 26.5q0 10 7 11l6 -4q3 2 4.5 4t6.5 4q0 -3 4 -4l3 -2q0 5 -8 16.5t-8 22.5q3 6 2 13.5t4 12.5l6 7q2 3 4.5 5.5t2.5 3.5 q-2 0 -3 1q0 3 1.5 6t1.5 5l-3 4q0 -4 -7 -14t-11 -15q-4 7 -4 26q0 8 1.5 11.5t1.5 8.5q0 3 -1 4q-1 -3 -2.5 -10.5t-5.5 -7.5q0 8 2 13t3 13v8q0 10 7.5 23.5t18.5 27t23.5 25.5t21.5 18q17 11 37.5 16t41.5 5q23 0 46.5 -6t43.5 -17.5t34 -28.5t19 -39q0 5 -1 6h4 q1 -4 2 -7t1 -6q0 -5 -2 -7q0 -11 1 -22.5t2 -23.5q0 -5 -2 -15.5t-2 -12.5l-3 -1q-8 6 -9.5 14.5t-1.5 17.5v22l-7 -24v-5q0 -4 -1 -5q-8 5 -17 5q-2 0 -3 -1q13 -4 20.5 -13.5t11.5 -21.5t5 -24.5t1 -21.5q0 -6 -0.5 -11.5t-2.5 -11.5q2 2 4 11t7 9l3 -5q4 0 4 -4z M495 174q-61 6 -129.5 31.5t-131.5 64.5t-114 89.5t-77 107.5q-5 11 -9 22.5t-4 23.5q0 11 1 12q42 -60 96.5 -112.5t118 -93.5t133 -68t141.5 -36q-3 -9 -13 -12.5t-21 -3.5q-8 0 -16 1t-13 3q-58 20 -116.5 44t-109.5 60q45 -41 104 -65t117 -44q7 -3 14 -4t12.5 -2.5 t10.5 -5t9 -11.5zM689 538q-9 -48 -34 -92t-60 -82t-76.5 -69.5t-83.5 -53.5q-15 2 -28 9q24 14 42.5 25.5t36.5 28.5l-2 4q-22 -15 -44.5 -28.5t-46.5 -24.5q-6 1 -10.5 3.5t-9.5 5.5q94 48 173.5 115.5t142.5 158.5zM472 526q-15 12 -36 12q-2 0 -4.5 -1.5t-5.5 -2.5h-4 q-2 0 -2.5 0.5t-5.5 2.5q-6 0 -11 -5l-7 -7l-3 1l-1 -4q1 -1 1 -5q0 -3 -4 -6.5t-4 -5.5q2 0 9.5 -10t11.5 -17l4 -5l-3 -1q-3 0 -4 -1l-6 6q0 -17 15.5 -21.5t29.5 -4.5q3 0 5 0.5t4 0.5q4 0 6 -2q2 0 4 0.5t4 0.5q-2 2 -2 4q0 3 2.5 5t6.5 6l3 -4q10 16 10 35 q0 13 -5.5 18t-7.5 11zM265 459q3 0 8.5 -0.5t8.5 -0.5q15 2 29 14t14 32q0 6 -2 7t-2 6q0 2 0.5 4.5t0.5 4.5q0 8 -9.5 10.5t-16.5 2.5q-6 0 -17.5 -1.5t-23 -5t-20 -10t-8.5 -16.5q2 -3 5 -10t3 -13q0 -2 -0.5 -3.5t-0.5 -3.5q0 -6 7 -8t12 -2h4q2 -2 2 -7v-6q2 0 3 2.5 t3 3.5zM222 192q-5 -18 -5 -20q0 -8 8 -18t20 -10q4 1 8 2.5t8 1.5q9 0 9 -9q0 -11 -10.5 -13.5t-16.5 -2.5q-18 0 -32.5 13t-19.5 30q1 1 1 7t-3.5 10t-7.5 8l-9 8q-5 5 -13.5 17.5t-22.5 23.5l-5 4q0 5 8.5 11.5t15.5 6.5q9 -1 13 -7t6.5 -14.5t5.5 -16.5t11 -14 q8 -7 15 -10t16 -8zM588 243q-12 -2 -18.5 -9.5t-12 -16.5t-11 -19t-14.5 -16q0 -29 -16.5 -44.5t-41.5 -15.5q-9 0 -15.5 3.5t-6.5 10.5q0 4 1 7.5t8 3.5q5 0 8.5 -2t10.5 -2q27 6 27 26q0 9 -8 23q10 5 22 12.5t16 18.5q2 9 7.5 24t19.5 15q8 0 15 -6t9 -13zM361 428 q0 -8 4.5 -13t9.5 -5q2 0 7 1.5t5 3.5q0 9 -4 16l-5 15q0 3 -3 13.5l-5 17.5l-1 6l-9 -8q-2 2 -4.5 1.5t-4.5 0.5l-5 3q0 -2 0.5 -3.5t0.5 -2.5q-1 -7 -4 -11.5t-6 -9.5t-5.5 -13t-2.5 -22q4 -2 8.5 -4.5t5.5 -2.5q6 0 8 5.5t2 11.5q0 5 -0.5 8t-0.5 5q0 5 2.5 9t5.5 9 q3 -5 3 -11q0 -5 -1 -10t-1 -10zM318 217q2 0 6.5 -1.5t9 -4t8 -4.5t3.5 -3q0 -3 -14.5 -8.5t-34 -10t-40.5 -8t-34 -3.5q3 10 15 16t27 10.5t30 8t24 8.5zM201 215q21 4 41.5 7.5t41.5 11.5q8 -2 13 -5.5t12 -8.5l-70 -21q-4 -1 -5 -0.5t-3 -1.5q-9 0 -19.5 7.5t-10.5 10.5 zM118 200q7 0 13.5 0.5t14.5 0.5q10 0 20 -5t10 -22l-54 -4q-8 5 -9.5 13t-6.5 14l5 3h7zM613 200q0 -17 -11 -26h-55q-3 0 -3 3q0 5 6 12.5t8 9.5h5q9 0 17.5 1.5t17.5 1.5q2 0 6 -0.5t9 -1.5zM99 197q2 -6 6 -11t4 -11q0 -3 -5 -9.5t-13 -6.5q-10 0 -16.5 8.5t-6.5 18.5 q0 16 18 21h6q4 0 8 -0.5t9 -1.5q0 -5 -4 -4.5t-6 -3.5zM611 207q5 1 8.5 1.5t5.5 0.5q11 0 19 -5t8 -16q0 -10 -6.5 -17.5t-14.5 -7.5q-10 0 -18 11q0 8 3.5 13.5t5.5 11.5q-2 2 -6 2.5t-5 5.5zM120 169q2 0 2 -2q-1 -7 -8 -12t-13 -6q-2 2 -2 3q0 4 6 8t11 9h4zM606 169 q4 -5 11 -8t7 -8q-2 -2 -6 -2q-5 0 -10 4t-7 9q1 2 1.5 3.5t3.5 1.5zM331 360q2 0 2.5 5t1.5 6v4q0 7 -5 7q0 -4 1 -6t1 -5q0 -2 -0.5 -4.5t-0.5 -6.5zM354 363q1 5 1.5 8t0.5 4q0 2 -0.5 5t-2.5 3q0 -5 -1 -6q0 -5 0.5 -7t1.5 -7zM300 361q1 1 1 5t-3 4q-1 0 -1 -5 q0 -3 3 -4zM374 365q-2 0 -2 6q-1 -1 -1 -7q0 -3 3 -6v7zM349 394q0 1 3 1v8l-3 1v-10zM317 372q0 2 -2 4q0 -1 -0.5 -4t-1.5 -8z" unicode="5" glyph-name="five"/>
<glyph d="M205 -91v153h96v-23h-71v-40h46v-23h-46v-67h-25zM322 -91v153h96v-23h-71v-40h46v-23h-46v-67h-25zM464 39v-54h14q13 0 23.5 6t10.5 22q0 14 -9.5 20t-21.5 6h-17zM439 62h38q24 0 42.5 -10.5t18.5 -38.5q0 -25 -16.5 -38t-39.5 -13h-18v-53h-25v153zM513 463 q7 -1 7 -9q0 -11 -5 -16.5t-5 -7.5t0.5 -4t0.5 -4q0 -1 -4.5 -8.5t-20.5 -7.5h-8q0 -4 2.5 -5.5t2.5 -4.5q-1 -1 -5 -2q-2 0 -7 6.5t-6 10.5q-1 0 -1 -2t-1 -3h-9q-2 0 -3 4q0 -4 -4 -6t-9 -4l-12 -3q0 3 -6 6t-12 3q-1 -1 -1 -3q0 -5 3 -8l14 -10q4 -1 4 -6q-1 -1 -1 -3v-6 l3 -1v-6l-3 -1l-2 5q0 -3 -1 -5.5t-1 -4.5q-5 0 -5 6t-1 9q-2 0 -2 -5q0 -7 3.5 -17.5t3.5 -14.5q0 -3 -4 -3q-1 0 -3 2q3 3 3 6q0 5 -4 8t-6 5q1 -2 2 -6t1 -8q0 -3 -1 -6t-6 -3v10q0 8 -0.5 14.5t-3.5 15.5q-1 -1 -1 -5q0 -2 1.5 -9t1.5 -16q0 -10 -7 -11q-3 0 -3 3v22 q-3 -2 -3 -10v-7q0 -3 -3 -7t-4 -4q-3 0 -6 1t-3 9l2 17h-7l1 -3q0 -2 0.5 -4t0.5 -5v-6q-2 -2 -2 -8q-8 2 -9.5 6.5t-1.5 9t-1 8t-8 3.5q0 -3 3 -8.5t3 -10.5q0 -8 -14 -8q-1 0 -3.5 2.5t-2.5 3.5v10q0 1 0.5 3.5l1.5 7.5l-10 1q1 -5 1.5 -8t0.5 -4q0 -13 -7 -13h-4 q-4 1 -4 8v11q0 5 1 6q-1 0 -3 -0.5t-2 -1.5q0 -3 1 -4.5t1 -6.5q0 -13 -5 -13q-2 0 -3 3.5t-2.5 8t-2.5 8t-2 3.5q0 -4 2 -6q0 -4 -2 -9t-3 -5q-3 0 -4 5t-1 9q1 1 1 4q-2 2 -2 3q0 2 1 5.5t1 5.5q0 3 -2 3q-2 -3 -2 -6t-2 -8q-2 2 -2 4l-2 4q0 2 3.5 13.5t3.5 24.5 q0 2 -1 3q-1 -1 -4 -1q-10 7 -20 7q-8 0 -12 -3t-9 -3q-3 0 -3 5q-2 -1 -3.5 -3.5t-2.5 -2.5q-5 3 -10 4.5t-5 6.5t1 6l-2 3q-3 0 -10 6.5t-7 26.5q0 10 7 11l6 -4q3 2 4.5 4t6.5 4q0 -3 4 -4l3 -2q0 5 -8 16.5t-8 22.5q3 6 2 13.5t4 12.5l6 7q2 3 4.5 5.5t2.5 3.5 q-2 0 -3 1q0 3 1.5 6t1.5 5l-3 4q0 -4 -7 -14t-11 -15q-4 7 -4 26q0 8 1.5 11.5t1.5 8.5q0 3 -1 4q-1 -3 -2.5 -10.5t-5.5 -7.5q0 8 2 13t3 13v8q0 10 7.5 23.5t18.5 27t23.5 25.5t21.5 18q17 11 37.5 16t41.5 5q23 0 46.5 -6t43.5 -17.5t34 -28.5t19 -39q0 5 -1 6h4 q1 -4 2 -7t1 -6q0 -5 -2 -7q0 -11 1 -22.5t2 -23.5q0 -5 -2 -15.5t-2 -12.5l-3 -1q-8 6 -9.5 14.5t-1.5 17.5v22l-7 -24v-5q0 -4 -1 -5q-8 5 -17 5q-2 0 -3 -1q13 -4 20.5 -13.5t11.5 -21.5t5 -24.5t1 -21.5q0 -6 -0.5 -11.5t-2.5 -11.5q2 2 4 11t7 9l3 -5q4 0 4 -4z M495 174q-61 6 -129.5 31.5t-131.5 64.5t-114 89.5t-77 107.5q-5 11 -9 22.5t-4 23.5q0 11 1 12q42 -60 96.5 -112.5t118 -93.5t133 -68t141.5 -36q-3 -9 -13 -12.5t-21 -3.5q-8 0 -16 1t-13 3q-58 20 -116.5 44t-109.5 60q45 -41 104 -65t117 -44q7 -3 14 -4t12.5 -2.5 t10.5 -5t9 -11.5zM689 538q-9 -48 -34 -92t-60 -82t-76.5 -69.5t-83.5 -53.5q-15 2 -28 9q24 14 42.5 25.5t36.5 28.5l-2 4q-22 -15 -44.5 -28.5t-46.5 -24.5q-6 1 -10.5 3.5t-9.5 5.5q94 48 173.5 115.5t142.5 158.5zM472 526q-15 12 -36 12q-2 0 -4.5 -1.5t-5.5 -2.5h-4 q-2 0 -2.5 0.5t-5.5 2.5q-6 0 -11 -5l-7 -7l-3 1l-1 -4q1 -1 1 -5q0 -3 -4 -6.5t-4 -5.5q2 0 9.5 -10t11.5 -17l4 -5l-3 -1q-3 0 -4 -1l-6 6q0 -17 15.5 -21.5t29.5 -4.5q3 0 5 0.5t4 0.5q4 0 6 -2q2 0 4 0.5t4 0.5q-2 2 -2 4q0 3 2.5 5t6.5 6l3 -4q10 16 10 35 q0 13 -5.5 18t-7.5 11zM265 459q3 0 8.5 -0.5t8.5 -0.5q15 2 29 14t14 32q0 6 -2 7t-2 6q0 2 0.5 4.5t0.5 4.5q0 8 -9.5 10.5t-16.5 2.5q-6 0 -17.5 -1.5t-23 -5t-20 -10t-8.5 -16.5q2 -3 5 -10t3 -13q0 -2 -0.5 -3.5t-0.5 -3.5q0 -6 7 -8t12 -2h4q2 -2 2 -7v-6q2 0 3 2.5 t3 3.5zM222 192q-5 -18 -5 -20q0 -8 8 -18t20 -10q4 1 8 2.5t8 1.5q9 0 9 -9q0 -11 -10.5 -13.5t-16.5 -2.5q-18 0 -32.5 13t-19.5 30q1 1 1 7t-3.5 10t-7.5 8l-9 8q-5 5 -13.5 17.5t-22.5 23.5l-5 4q0 5 8.5 11.5t15.5 6.5q9 -1 13 -7t6.5 -14.5t5.5 -16.5t11 -14 q8 -7 15 -10t16 -8zM588 243q-12 -2 -18.5 -9.5t-12 -16.5t-11 -19t-14.5 -16q0 -29 -16.5 -44.5t-41.5 -15.5q-9 0 -15.5 3.5t-6.5 10.5q0 4 1 7.5t8 3.5q5 0 8.5 -2t10.5 -2q27 6 27 26q0 9 -8 23q10 5 22 12.5t16 18.5q2 9 7.5 24t19.5 15q8 0 15 -6t9 -13zM361 428 q0 -8 4.5 -13t9.5 -5q2 0 7 1.5t5 3.5q0 9 -4 16l-5 15q0 3 -3 13.5l-5 17.5l-1 6l-9 -8q-2 2 -4.5 1.5t-4.5 0.5l-5 3q0 -2 0.5 -3.5t0.5 -2.5q-1 -7 -4 -11.5t-6 -9.5t-5.5 -13t-2.5 -22q4 -2 8.5 -4.5t5.5 -2.5q6 0 8 5.5t2 11.5q0 5 -0.5 8t-0.5 5q0 5 2.5 9t5.5 9 q3 -5 3 -11q0 -5 -1 -10t-1 -10zM318 217q2 0 6.5 -1.5t9 -4t8 -4.5t3.5 -3q0 -3 -14.5 -8.5t-34 -10t-40.5 -8t-34 -3.5q3 10 15 16t27 10.5t30 8t24 8.5zM201 215q21 4 41.5 7.5t41.5 11.5q8 -2 13 -5.5t12 -8.5l-70 -21q-4 -1 -5 -0.5t-3 -1.5q-9 0 -19.5 7.5t-10.5 10.5 zM118 200q7 0 13.5 0.5t14.5 0.5q10 0 20 -5t10 -22l-54 -4q-8 5 -9.5 13t-6.5 14l5 3h7zM613 200q0 -17 -11 -26h-55q-3 0 -3 3q0 5 6 12.5t8 9.5h5q9 0 17.5 1.5t17.5 1.5q2 0 6 -0.5t9 -1.5zM99 197q2 -6 6 -11t4 -11q0 -3 -5 -9.5t-13 -6.5q-10 0 -16.5 8.5t-6.5 18.5 q0 16 18 21h6q4 0 8 -0.5t9 -1.5q0 -5 -4 -4.5t-6 -3.5zM611 207q5 1 8.5 1.5t5.5 0.5q11 0 19 -5t8 -16q0 -10 -6.5 -17.5t-14.5 -7.5q-10 0 -18 11q0 8 3.5 13.5t5.5 11.5q-2 2 -6 2.5t-5 5.5zM120 169q2 0 2 -2q-1 -7 -8 -12t-13 -6q-2 2 -2 3q0 4 6 8t11 9h4zM606 169 q4 -5 11 -8t7 -8q-2 -2 -6 -2q-5 0 -10 4t-7 9q1 2 1.5 3.5t3.5 1.5zM331 360q2 0 2.5 5t1.5 6v4q0 7 -5 7q0 -4 1 -6t1 -5q0 -2 -0.5 -4.5t-0.5 -6.5zM354 363q1 5 1.5 8t0.5 4q0 2 -0.5 5t-2.5 3q0 -5 -1 -6q0 -5 0.5 -7t1.5 -7zM300 361q1 1 1 5t-3 4q-1 0 -1 -5 q0 -3 3 -4zM374 365q-2 0 -2 6q-1 -1 -1 -7q0 -3 3 -6v7zM349 394q0 1 3 1v8l-3 1v-10zM317 372q0 2 -2 4q0 -1 -0.5 -4t-1.5 -8z" unicode="6" glyph-name="six"/>
<glyph d="M205 -91v153h96v-23h-71v-40h46v-23h-46v-67h-25zM322 -91v153h96v-23h-71v-40h46v-23h-46v-67h-25zM464 39v-54h14q13 0 23.5 6t10.5 22q0 14 -9.5 20t-21.5 6h-17zM439 62h38q24 0 42.5 -10.5t18.5 -38.5q0 -25 -16.5 -38t-39.5 -13h-18v-53h-25v153zM513 463 q7 -1 7 -9q0 -11 -5 -16.5t-5 -7.5t0.5 -4t0.5 -4q0 -1 -4.5 -8.5t-20.5 -7.5h-8q0 -4 2.5 -5.5t2.5 -4.5q-1 -1 -5 -2q-2 0 -7 6.5t-6 10.5q-1 0 -1 -2t-1 -3h-9q-2 0 -3 4q0 -4 -4 -6t-9 -4l-12 -3q0 3 -6 6t-12 3q-1 -1 -1 -3q0 -5 3 -8l14 -10q4 -1 4 -6q-1 -1 -1 -3v-6 l3 -1v-6l-3 -1l-2 5q0 -3 -1 -5.5t-1 -4.5q-5 0 -5 6t-1 9q-2 0 -2 -5q0 -7 3.5 -17.5t3.5 -14.5q0 -3 -4 -3q-1 0 -3 2q3 3 3 6q0 5 -4 8t-6 5q1 -2 2 -6t1 -8q0 -3 -1 -6t-6 -3v10q0 8 -0.5 14.5t-3.5 15.5q-1 -1 -1 -5q0 -2 1.5 -9t1.5 -16q0 -10 -7 -11q-3 0 -3 3v22 q-3 -2 -3 -10v-7q0 -3 -3 -7t-4 -4q-3 0 -6 1t-3 9l2 17h-7l1 -3q0 -2 0.5 -4t0.5 -5v-6q-2 -2 -2 -8q-8 2 -9.5 6.5t-1.5 9t-1 8t-8 3.5q0 -3 3 -8.5t3 -10.5q0 -8 -14 -8q-1 0 -3.5 2.5t-2.5 3.5v10q0 1 0.5 3.5l1.5 7.5l-10 1q1 -5 1.5 -8t0.5 -4q0 -13 -7 -13h-4 q-4 1 -4 8v11q0 5 1 6q-1 0 -3 -0.5t-2 -1.5q0 -3 1 -4.5t1 -6.5q0 -13 -5 -13q-2 0 -3 3.5t-2.5 8t-2.5 8t-2 3.5q0 -4 2 -6q0 -4 -2 -9t-3 -5q-3 0 -4 5t-1 9q1 1 1 4q-2 2 -2 3q0 2 1 5.5t1 5.5q0 3 -2 3q-2 -3 -2 -6t-2 -8q-2 2 -2 4l-2 4q0 2 3.5 13.5t3.5 24.5 q0 2 -1 3q-1 -1 -4 -1q-10 7 -20 7q-8 0 -12 -3t-9 -3q-3 0 -3 5q-2 -1 -3.5 -3.5t-2.5 -2.5q-5 3 -10 4.5t-5 6.5t1 6l-2 3q-3 0 -10 6.5t-7 26.5q0 10 7 11l6 -4q3 2 4.5 4t6.5 4q0 -3 4 -4l3 -2q0 5 -8 16.5t-8 22.5q3 6 2 13.5t4 12.5l6 7q2 3 4.5 5.5t2.5 3.5 q-2 0 -3 1q0 3 1.5 6t1.5 5l-3 4q0 -4 -7 -14t-11 -15q-4 7 -4 26q0 8 1.5 11.5t1.5 8.5q0 3 -1 4q-1 -3 -2.5 -10.5t-5.5 -7.5q0 8 2 13t3 13v8q0 10 7.5 23.5t18.5 27t23.5 25.5t21.5 18q17 11 37.5 16t41.5 5q23 0 46.5 -6t43.5 -17.5t34 -28.5t19 -39q0 5 -1 6h4 q1 -4 2 -7t1 -6q0 -5 -2 -7q0 -11 1 -22.5t2 -23.5q0 -5 -2 -15.5t-2 -12.5l-3 -1q-8 6 -9.5 14.5t-1.5 17.5v22l-7 -24v-5q0 -4 -1 -5q-8 5 -17 5q-2 0 -3 -1q13 -4 20.5 -13.5t11.5 -21.5t5 -24.5t1 -21.5q0 -6 -0.5 -11.5t-2.5 -11.5q2 2 4 11t7 9l3 -5q4 0 4 -4z M495 174q-61 6 -129.5 31.5t-131.5 64.5t-114 89.5t-77 107.5q-5 11 -9 22.5t-4 23.5q0 11 1 12q42 -60 96.5 -112.5t118 -93.5t133 -68t141.5 -36q-3 -9 -13 -12.5t-21 -3.5q-8 0 -16 1t-13 3q-58 20 -116.5 44t-109.5 60q45 -41 104 -65t117 -44q7 -3 14 -4t12.5 -2.5 t10.5 -5t9 -11.5zM689 538q-9 -48 -34 -92t-60 -82t-76.5 -69.5t-83.5 -53.5q-15 2 -28 9q24 14 42.5 25.5t36.5 28.5l-2 4q-22 -15 -44.5 -28.5t-46.5 -24.5q-6 1 -10.5 3.5t-9.5 5.5q94 48 173.5 115.5t142.5 158.5zM472 526q-15 12 -36 12q-2 0 -4.5 -1.5t-5.5 -2.5h-4 q-2 0 -2.5 0.5t-5.5 2.5q-6 0 -11 -5l-7 -7l-3 1l-1 -4q1 -1 1 -5q0 -3 -4 -6.5t-4 -5.5q2 0 9.5 -10t11.5 -17l4 -5l-3 -1q-3 0 -4 -1l-6 6q0 -17 15.5 -21.5t29.5 -4.5q3 0 5 0.5t4 0.5q4 0 6 -2q2 0 4 0.5t4 0.5q-2 2 -2 4q0 3 2.5 5t6.5 6l3 -4q10 16 10 35 q0 13 -5.5 18t-7.5 11zM265 459q3 0 8.5 -0.5t8.5 -0.5q15 2 29 14t14 32q0 6 -2 7t-2 6q0 2 0.5 4.5t0.5 4.5q0 8 -9.5 10.5t-16.5 2.5q-6 0 -17.5 -1.5t-23 -5t-20 -10t-8.5 -16.5q2 -3 5 -10t3 -13q0 -2 -0.5 -3.5t-0.5 -3.5q0 -6 7 -8t12 -2h4q2 -2 2 -7v-6q2 0 3 2.5 t3 3.5zM222 192q-5 -18 -5 -20q0 -8 8 -18t20 -10q4 1 8 2.5t8 1.5q9 0 9 -9q0 -11 -10.5 -13.5t-16.5 -2.5q-18 0 -32.5 13t-19.5 30q1 1 1 7t-3.5 10t-7.5 8l-9 8q-5 5 -13.5 17.5t-22.5 23.5l-5 4q0 5 8.5 11.5t15.5 6.5q9 -1 13 -7t6.5 -14.5t5.5 -16.5t11 -14 q8 -7 15 -10t16 -8zM588 243q-12 -2 -18.5 -9.5t-12 -16.5t-11 -19t-14.5 -16q0 -29 -16.5 -44.5t-41.5 -15.5q-9 0 -15.5 3.5t-6.5 10.5q0 4 1 7.5t8 3.5q5 0 8.5 -2t10.5 -2q27 6 27 26q0 9 -8 23q10 5 22 12.5t16 18.5q2 9 7.5 24t19.5 15q8 0 15 -6t9 -13zM361 428 q0 -8 4.5 -13t9.5 -5q2 0 7 1.5t5 3.5q0 9 -4 16l-5 15q0 3 -3 13.5l-5 17.5l-1 6l-9 -8q-2 2 -4.5 1.5t-4.5 0.5l-5 3q0 -2 0.5 -3.5t0.5 -2.5q-1 -7 -4 -11.5t-6 -9.5t-5.5 -13t-2.5 -22q4 -2 8.5 -4.5t5.5 -2.5q6 0 8 5.5t2 11.5q0 5 -0.5 8t-0.5 5q0 5 2.5 9t5.5 9 q3 -5 3 -11q0 -5 -1 -10t-1 -10zM318 217q2 0 6.5 -1.5t9 -4t8 -4.5t3.5 -3q0 -3 -14.5 -8.5t-34 -10t-40.5 -8t-34 -3.5q3 10 15 16t27 10.5t30 8t24 8.5zM201 215q21 4 41.5 7.5t41.5 11.5q8 -2 13 -5.5t12 -8.5l-70 -21q-4 -1 -5 -0.5t-3 -1.5q-9 0 -19.5 7.5t-10.5 10.5 zM118 200q7 0 13.5 0.5t14.5 0.5q10 0 20 -5t10 -22l-54 -4q-8 5 -9.5 13t-6.5 14l5 3h7zM613 200q0 -17 -11 -26h-55q-3 0 -3 3q0 5 6 12.5t8 9.5h5q9 0 17.5 1.5t17.5 1.5q2 0 6 -0.5t9 -1.5zM99 197q2 -6 6 -11t4 -11q0 -3 -5 -9.5t-13 -6.5q-10 0 -16.5 8.5t-6.5 18.5 q0 16 18 21h6q4 0 8 -0.5t9 -1.5q0 -5 -4 -4.5t-6 -3.5zM611 207q5 1 8.5 1.5t5.5 0.5q11 0 19 -5t8 -16q0 -10 -6.5 -17.5t-14.5 -7.5q-10 0 -18 11q0 8 3.5 13.5t5.5 11.5q-2 2 -6 2.5t-5 5.5zM120 169q2 0 2 -2q-1 -7 -8 -12t-13 -6q-2 2 -2 3q0 4 6 8t11 9h4zM606 169 q4 -5 11 -8t7 -8q-2 -2 -6 -2q-5 0 -10 4t-7 9q1 2 1.5 3.5t3.5 1.5zM331 360q2 0 2.5 5t1.5 6v4q0 7 -5 7q0 -4 1 -6t1 -5q0 -2 -0.5 -4.5t-0.5 -6.5zM354 363q1 5 1.5 8t0.5 4q0 2 -0.5 5t-2.5 3q0 -5 -1 -6q0 -5 0.5 -7t1.5 -7zM300 361q1 1 1 5t-3 4q-1 0 -1 -5 q0 -3 3 -4zM374 365q-2 0 -2 6q-1 -1 -1 -7q0 -3 3 -6v7zM349 394q0 1 3 1v8l-3 1v-10zM317 372q0 2 -2 4q0 -1 -0.5 -4t-1.5 -8z" unicode="7" glyph-name="seven"/>
<glyph d="M205 -91v153h96v-23h-71v-40h46v-23h-46v-67h-25zM322 -91v153h96v-23h-71v-40h46v-23h-46v-67h-25zM464 39v-54h14q13 0 23.5 6t10.5 22q0 14 -9.5 20t-21.5 6h-17zM439 62h38q24 0 42.5 -10.5t18.5 -38.5q0 -25 -16.5 -38t-39.5 -13h-18v-53h-25v153zM513 463 q7 -1 7 -9q0 -11 -5 -16.5t-5 -7.5t0.5 -4t0.5 -4q0 -1 -4.5 -8.5t-20.5 -7.5h-8q0 -4 2.5 -5.5t2.5 -4.5q-1 -1 -5 -2q-2 0 -7 6.5t-6 10.5q-1 0 -1 -2t-1 -3h-9q-2 0 -3 4q0 -4 -4 -6t-9 -4l-12 -3q0 3 -6 6t-12 3q-1 -1 -1 -3q0 -5 3 -8l14 -10q4 -1 4 -6q-1 -1 -1 -3v-6 l3 -1v-6l-3 -1l-2 5q0 -3 -1 -5.5t-1 -4.5q-5 0 -5 6t-1 9q-2 0 -2 -5q0 -7 3.5 -17.5t3.5 -14.5q0 -3 -4 -3q-1 0 -3 2q3 3 3 6q0 5 -4 8t-6 5q1 -2 2 -6t1 -8q0 -3 -1 -6t-6 -3v10q0 8 -0.5 14.5t-3.5 15.5q-1 -1 -1 -5q0 -2 1.5 -9t1.5 -16q0 -10 -7 -11q-3 0 -3 3v22 q-3 -2 -3 -10v-7q0 -3 -3 -7t-4 -4q-3 0 -6 1t-3 9l2 17h-7l1 -3q0 -2 0.5 -4t0.5 -5v-6q-2 -2 -2 -8q-8 2 -9.5 6.5t-1.5 9t-1 8t-8 3.5q0 -3 3 -8.5t3 -10.5q0 -8 -14 -8q-1 0 -3.5 2.5t-2.5 3.5v10q0 1 0.5 3.5l1.5 7.5l-10 1q1 -5 1.5 -8t0.5 -4q0 -13 -7 -13h-4 q-4 1 -4 8v11q0 5 1 6q-1 0 -3 -0.5t-2 -1.5q0 -3 1 -4.5t1 -6.5q0 -13 -5 -13q-2 0 -3 3.5t-2.5 8t-2.5 8t-2 3.5q0 -4 2 -6q0 -4 -2 -9t-3 -5q-3 0 -4 5t-1 9q1 1 1 4q-2 2 -2 3q0 2 1 5.5t1 5.5q0 3 -2 3q-2 -3 -2 -6t-2 -8q-2 2 -2 4l-2 4q0 2 3.5 13.5t3.5 24.5 q0 2 -1 3q-1 -1 -4 -1q-10 7 -20 7q-8 0 -12 -3t-9 -3q-3 0 -3 5q-2 -1 -3.5 -3.5t-2.5 -2.5q-5 3 -10 4.5t-5 6.5t1 6l-2 3q-3 0 -10 6.5t-7 26.5q0 10 7 11l6 -4q3 2 4.5 4t6.5 4q0 -3 4 -4l3 -2q0 5 -8 16.5t-8 22.5q3 6 2 13.5t4 12.5l6 7q2 3 4.5 5.5t2.5 3.5 q-2 0 -3 1q0 3 1.5 6t1.5 5l-3 4q0 -4 -7 -14t-11 -15q-4 7 -4 26q0 8 1.5 11.5t1.5 8.5q0 3 -1 4q-1 -3 -2.5 -10.5t-5.5 -7.5q0 8 2 13t3 13v8q0 10 7.5 23.5t18.5 27t23.5 25.5t21.5 18q17 11 37.5 16t41.5 5q23 0 46.5 -6t43.5 -17.5t34 -28.5t19 -39q0 5 -1 6h4 q1 -4 2 -7t1 -6q0 -5 -2 -7q0 -11 1 -22.5t2 -23.5q0 -5 -2 -15.5t-2 -12.5l-3 -1q-8 6 -9.5 14.5t-1.5 17.5v22l-7 -24v-5q0 -4 -1 -5q-8 5 -17 5q-2 0 -3 -1q13 -4 20.5 -13.5t11.5 -21.5t5 -24.5t1 -21.5q0 -6 -0.5 -11.5t-2.5 -11.5q2 2 4 11t7 9l3 -5q4 0 4 -4z M495 174q-61 6 -129.5 31.5t-131.5 64.5t-114 89.5t-77 107.5q-5 11 -9 22.5t-4 23.5q0 11 1 12q42 -60 96.5 -112.5t118 -93.5t133 -68t141.5 -36q-3 -9 -13 -12.5t-21 -3.5q-8 0 -16 1t-13 3q-58 20 -116.5 44t-109.5 60q45 -41 104 -65t117 -44q7 -3 14 -4t12.5 -2.5 t10.5 -5t9 -11.5zM689 538q-9 -48 -34 -92t-60 -82t-76.5 -69.5t-83.5 -53.5q-15 2 -28 9q24 14 42.5 25.5t36.5 28.5l-2 4q-22 -15 -44.5 -28.5t-46.5 -24.5q-6 1 -10.5 3.5t-9.5 5.5q94 48 173.5 115.5t142.5 158.5zM472 526q-15 12 -36 12q-2 0 -4.5 -1.5t-5.5 -2.5h-4 q-2 0 -2.5 0.5t-5.5 2.5q-6 0 -11 -5l-7 -7l-3 1l-1 -4q1 -1 1 -5q0 -3 -4 -6.5t-4 -5.5q2 0 9.5 -10t11.5 -17l4 -5l-3 -1q-3 0 -4 -1l-6 6q0 -17 15.5 -21.5t29.5 -4.5q3 0 5 0.5t4 0.5q4 0 6 -2q2 0 4 0.5t4 0.5q-2 2 -2 4q0 3 2.5 5t6.5 6l3 -4q10 16 10 35 q0 13 -5.5 18t-7.5 11zM265 459q3 0 8.5 -0.5t8.5 -0.5q15 2 29 14t14 32q0 6 -2 7t-2 6q0 2 0.5 4.5t0.5 4.5q0 8 -9.5 10.5t-16.5 2.5q-6 0 -17.5 -1.5t-23 -5t-20 -10t-8.5 -16.5q2 -3 5 -10t3 -13q0 -2 -0.5 -3.5t-0.5 -3.5q0 -6 7 -8t12 -2h4q2 -2 2 -7v-6q2 0 3 2.5 t3 3.5zM222 192q-5 -18 -5 -20q0 -8 8 -18t20 -10q4 1 8 2.5t8 1.5q9 0 9 -9q0 -11 -10.5 -13.5t-16.5 -2.5q-18 0 -32.5 13t-19.5 30q1 1 1 7t-3.5 10t-7.5 8l-9 8q-5 5 -13.5 17.5t-22.5 23.5l-5 4q0 5 8.5 11.5t15.5 6.5q9 -1 13 -7t6.5 -14.5t5.5 -16.5t11 -14 q8 -7 15 -10t16 -8zM588 243q-12 -2 -18.5 -9.5t-12 -16.5t-11 -19t-14.5 -16q0 -29 -16.5 -44.5t-41.5 -15.5q-9 0 -15.5 3.5t-6.5 10.5q0 4 1 7.5t8 3.5q5 0 8.5 -2t10.5 -2q27 6 27 26q0 9 -8 23q10 5 22 12.5t16 18.5q2 9 7.5 24t19.5 15q8 0 15 -6t9 -13zM361 428 q0 -8 4.5 -13t9.5 -5q2 0 7 1.5t5 3.5q0 9 -4 16l-5 15q0 3 -3 13.5l-5 17.5l-1 6l-9 -8q-2 2 -4.5 1.5t-4.5 0.5l-5 3q0 -2 0.5 -3.5t0.5 -2.5q-1 -7 -4 -11.5t-6 -9.5t-5.5 -13t-2.5 -22q4 -2 8.5 -4.5t5.5 -2.5q6 0 8 5.5t2 11.5q0 5 -0.5 8t-0.5 5q0 5 2.5 9t5.5 9 q3 -5 3 -11q0 -5 -1 -10t-1 -10zM318 217q2 0 6.5 -1.5t9 -4t8 -4.5t3.5 -3q0 -3 -14.5 -8.5t-34 -10t-40.5 -8t-34 -3.5q3 10 15 16t27 10.5t30 8t24 8.5zM201 215q21 4 41.5 7.5t41.5 11.5q8 -2 13 -5.5t12 -8.5l-70 -21q-4 -1 -5 -0.5t-3 -1.5q-9 0 -19.5 7.5t-10.5 10.5 zM118 200q7 0 13.5 0.5t14.5 0.5q10 0 20 -5t10 -22l-54 -4q-8 5 -9.5 13t-6.5 14l5 3h7zM613 200q0 -17 -11 -26h-55q-3 0 -3 3q0 5 6 12.5t8 9.5h5q9 0 17.5 1.5t17.5 1.5q2 0 6 -0.5t9 -1.5zM99 197q2 -6 6 -11t4 -11q0 -3 -5 -9.5t-13 -6.5q-10 0 -16.5 8.5t-6.5 18.5 q0 16 18 21h6q4 0 8 -0.5t9 -1.5q0 -5 -4 -4.5t-6 -3.5zM611 207q5 1 8.5 1.5t5.5 0.5q11 0 19 -5t8 -16q0 -10 -6.5 -17.5t-14.5 -7.5q-10 0 -18 11q0 8 3.5 13.5t5.5 11.5q-2 2 -6 2.5t-5 5.5zM120 169q2 0 2 -2q-1 -7 -8 -12t-13 -6q-2 2 -2 3q0 4 6 8t11 9h4zM606 169 q4 -5 11 -8t7 -8q-2 -2 -6 -2q-5 0 -10 4t-7 9q1 2 1.5 3.5t3.5 1.5zM331 360q2 0 2.5 5t1.5 6v4q0 7 -5 7q0 -4 1 -6t1 -5q0 -2 -0.5 -4.5t-0.5 -6.5zM354 363q1 5 1.5 8t0.5 4q0 2 -0.5 5t-2.5 3q0 -5 -1 -6q0 -5 0.5 -7t1.5 -7zM300 361q1 1 1 5t-3 4q-1 0 -1 -5 q0 -3 3 -4zM374 365q-2 0 -2 6q-1 -1 -1 -7q0 -3 3 -6v7zM349 394q0 1 3 1v8l-3 1v-10zM317 372q0 2 -2 4q0 -1 -0.5 -4t-1.5 -8z" unicode="8" glyph-name="eight"/>
<glyph d="M205 -91v153h96v-23h-71v-40h46v-23h-46v-67h-25zM322 -91v153h96v-23h-71v-40h46v-23h-46v-67h-25zM464 39v-54h14q13 0 23.5 6t10.5 22q0 14 -9.5 20t-21.5 6h-17zM439 62h38q24 0 42.5 -10.5t18.5 -38.5q0 -25 -16.5 -38t-39.5 -13h-18v-53h-25v153zM513 463 q7 -1 7 -9q0 -11 -5 -16.5t-5 -7.5t0.5 -4t0.5 -4q0 -1 -4.5 -8.5t-20.5 -7.5h-8q0 -4 2.5 -5.5t2.5 -4.5q-1 -1 -5 -2q-2 0 -7 6.5t-6 10.5q-1 0 -1 -2t-1 -3h-9q-2 0 -3 4q0 -4 -4 -6t-9 -4l-12 -3q0 3 -6 6t-12 3q-1 -1 -1 -3q0 -5 3 -8l14 -10q4 -1 4 -6q-1 -1 -1 -3v-6 l3 -1v-6l-3 -1l-2 5q0 -3 -1 -5.5t-1 -4.5q-5 0 -5 6t-1 9q-2 0 -2 -5q0 -7 3.5 -17.5t3.5 -14.5q0 -3 -4 -3q-1 0 -3 2q3 3 3 6q0 5 -4 8t-6 5q1 -2 2 -6t1 -8q0 -3 -1 -6t-6 -3v10q0 8 -0.5 14.5t-3.5 15.5q-1 -1 -1 -5q0 -2 1.5 -9t1.5 -16q0 -10 -7 -11q-3 0 -3 3v22 q-3 -2 -3 -10v-7q0 -3 -3 -7t-4 -4q-3 0 -6 1t-3 9l2 17h-7l1 -3q0 -2 0.5 -4t0.5 -5v-6q-2 -2 -2 -8q-8 2 -9.5 6.5t-1.5 9t-1 8t-8 3.5q0 -3 3 -8.5t3 -10.5q0 -8 -14 -8q-1 0 -3.5 2.5t-2.5 3.5v10q0 1 0.5 3.5l1.5 7.5l-10 1q1 -5 1.5 -8t0.5 -4q0 -13 -7 -13h-4 q-4 1 -4 8v11q0 5 1 6q-1 0 -3 -0.5t-2 -1.5q0 -3 1 -4.5t1 -6.5q0 -13 -5 -13q-2 0 -3 3.5t-2.5 8t-2.5 8t-2 3.5q0 -4 2 -6q0 -4 -2 -9t-3 -5q-3 0 -4 5t-1 9q1 1 1 4q-2 2 -2 3q0 2 1 5.5t1 5.5q0 3 -2 3q-2 -3 -2 -6t-2 -8q-2 2 -2 4l-2 4q0 2 3.5 13.5t3.5 24.5 q0 2 -1 3q-1 -1 -4 -1q-10 7 -20 7q-8 0 -12 -3t-9 -3q-3 0 -3 5q-2 -1 -3.5 -3.5t-2.5 -2.5q-5 3 -10 4.5t-5 6.5t1 6l-2 3q-3 0 -10 6.5t-7 26.5q0 10 7 11l6 -4q3 2 4.5 4t6.5 4q0 -3 4 -4l3 -2q0 5 -8 16.5t-8 22.5q3 6 2 13.5t4 12.5l6 7q2 3 4.5 5.5t2.5 3.5 q-2 0 -3 1q0 3 1.5 6t1.5 5l-3 4q0 -4 -7 -14t-11 -15q-4 7 -4 26q0 8 1.5 11.5t1.5 8.5q0 3 -1 4q-1 -3 -2.5 -10.5t-5.5 -7.5q0 8 2 13t3 13v8q0 10 7.5 23.5t18.5 27t23.5 25.5t21.5 18q17 11 37.5 16t41.5 5q23 0 46.5 -6t43.5 -17.5t34 -28.5t19 -39q0 5 -1 6h4 q1 -4 2 -7t1 -6q0 -5 -2 -7q0 -11 1 -22.5t2 -23.5q0 -5 -2 -15.5t-2 -12.5l-3 -1q-8 6 -9.5 14.5t-1.5 17.5v22l-7 -24v-5q0 -4 -1 -5q-8 5 -17 5q-2 0 -3 -1q13 -4 20.5 -13.5t11.5 -21.5t5 -24.5t1 -21.5q0 -6 -0.5 -11.5t-2.5 -11.5q2 2 4 11t7 9l3 -5q4 0 4 -4z M495 174q-61 6 -129.5 31.5t-131.5 64.5t-114 89.5t-77 107.5q-5 11 -9 22.5t-4 23.5q0 11 1 12q42 -60 96.5 -112.5t118 -93.5t133 -68t141.5 -36q-3 -9 -13 -12.5t-21 -3.5q-8 0 -16 1t-13 3q-58 20 -116.5 44t-109.5 60q45 -41 104 -65t117 -44q7 -3 14 -4t12.5 -2.5 t10.5 -5t9 -11.5zM689 538q-9 -48 -34 -92t-60 -82t-76.5 -69.5t-83.5 -53.5q-15 2 -28 9q24 14 42.5 25.5t36.5 28.5l-2 4q-22 -15 -44.5 -28.5t-46.5 -24.5q-6 1 -10.5 3.5t-9.5 5.5q94 48 173.5 115.5t142.5 158.5zM472 526q-15 12 -36 12q-2 0 -4.5 -1.5t-5.5 -2.5h-4 q-2 0 -2.5 0.5t-5.5 2.5q-6 0 -11 -5l-7 -7l-3 1l-1 -4q1 -1 1 -5q0 -3 -4 -6.5t-4 -5.5q2 0 9.5 -10t11.5 -17l4 -5l-3 -1q-3 0 -4 -1l-6 6q0 -17 15.5 -21.5t29.5 -4.5q3 0 5 0.5t4 0.5q4 0 6 -2q2 0 4 0.5t4 0.5q-2 2 -2 4q0 3 2.5 5t6.5 6l3 -4q10 16 10 35 q0 13 -5.5 18t-7.5 11zM265 459q3 0 8.5 -0.5t8.5 -0.5q15 2 29 14t14 32q0 6 -2 7t-2 6q0 2 0.5 4.5t0.5 4.5q0 8 -9.5 10.5t-16.5 2.5q-6 0 -17.5 -1.5t-23 -5t-20 -10t-8.5 -16.5q2 -3 5 -10t3 -13q0 -2 -0.5 -3.5t-0.5 -3.5q0 -6 7 -8t12 -2h4q2 -2 2 -7v-6q2 0 3 2.5 t3 3.5zM222 192q-5 -18 -5 -20q0 -8 8 -18t20 -10q4 1 8 2.5t8 1.5q9 0 9 -9q0 -11 -10.5 -13.5t-16.5 -2.5q-18 0 -32.5 13t-19.5 30q1 1 1 7t-3.5 10t-7.5 8l-9 8q-5 5 -13.5 17.5t-22.5 23.5l-5 4q0 5 8.5 11.5t15.5 6.5q9 -1 13 -7t6.5 -14.5t5.5 -16.5t11 -14 q8 -7 15 -10t16 -8zM588 243q-12 -2 -18.5 -9.5t-12 -16.5t-11 -19t-14.5 -16q0 -29 -16.5 -44.5t-41.5 -15.5q-9 0 -15.5 3.5t-6.5 10.5q0 4 1 7.5t8 3.5q5 0 8.5 -2t10.5 -2q27 6 27 26q0 9 -8 23q10 5 22 12.5t16 18.5q2 9 7.5 24t19.5 15q8 0 15 -6t9 -13zM361 428 q0 -8 4.5 -13t9.5 -5q2 0 7 1.5t5 3.5q0 9 -4 16l-5 15q0 3 -3 13.5l-5 17.5l-1 6l-9 -8q-2 2 -4.5 1.5t-4.5 0.5l-5 3q0 -2 0.5 -3.5t0.5 -2.5q-1 -7 -4 -11.5t-6 -9.5t-5.5 -13t-2.5 -22q4 -2 8.5 -4.5t5.5 -2.5q6 0 8 5.5t2 11.5q0 5 -0.5 8t-0.5 5q0 5 2.5 9t5.5 9 q3 -5 3 -11q0 -5 -1 -10t-1 -10zM318 217q2 0 6.5 -1.5t9 -4t8 -4.5t3.5 -3q0 -3 -14.5 -8.5t-34 -10t-40.5 -8t-34 -3.5q3 10 15 16t27 10.5t30 8t24 8.5zM201 215q21 4 41.5 7.5t41.5 11.5q8 -2 13 -5.5t12 -8.5l-70 -21q-4 -1 -5 -0.5t-3 -1.5q-9 0 -19.5 7.5t-10.5 10.5 zM118 200q7 0 13.5 0.5t14.5 0.5q10 0 20 -5t10 -22l-54 -4q-8 5 -9.5 13t-6.5 14l5 3h7zM613 200q0 -17 -11 -26h-55q-3 0 -3 3q0 5 6 12.5t8 9.5h5q9 0 17.5 1.5t17.5 1.5q2 0 6 -0.5t9 -1.5zM99 197q2 -6 6 -11t4 -11q0 -3 -5 -9.5t-13 -6.5q-10 0 -16.5 8.5t-6.5 18.5 q0 16 18 21h6q4 0 8 -0.5t9 -1.5q0 -5 -4 -4.5t-6 -3.5zM611 207q5 1 8.5 1.5t5.5 0.5q11 0 19 -5t8 -16q0 -10 -6.5 -17.5t-14.5 -7.5q-10 0 -18 11q0 8 3.5 13.5t5.5 11.5q-2 2 -6 2.5t-5 5.5zM120 169q2 0 2 -2q-1 -7 -8 -12t-13 -6q-2 2 -2 3q0 4 6 8t11 9h4zM606 169 q4 -5 11 -8t7 -8q-2 -2 -6 -2q-5 0 -10 4t-7 9q1 2 1.5 3.5t3.5 1.5zM331 360q2 0 2.5 5t1.5 6v4q0 7 -5 7q0 -4 1 -6t1 -5q0 -2 -0.5 -4.5t-0.5 -6.5zM354 363q1 5 1.5 8t0.5 4q0 2 -0.5 5t-2.5 3q0 -5 -1 -6q0 -5 0.5 -7t1.5 -7zM300 361q1 1 1 5t-3 4q-1 0 -1 -5 q0 -3 3 -4zM374 365q-2 0 -2 6q-1 -1 -1 -7q0 -3 3 -6v7zM349 394q0 1 3 1v8l-3 1v-10zM317 372q0 2 -2 4q0 -1 -0.5 -4t-1.5 -8z" unicode="9" glyph-name="nine"/>
<glyph horiz-adv-x="280" d="M225 0h-188l24 173h188zM258 262h-188l24 173h188z" unicode=":" glyph-name="colon"/>
<glyph horiz-adv-x="280" d="M258 262h-188l24 173h188zM59 159q23 8 54.5 11.5t60.5 3.5q26 0 47 -9.5t21 -38.5l-25 -182q-2 -15 -10 -30.5t-19.5 -30t-25.5 -25.5t-28 -16l21 159q-30 0 -61 -3t-59 -12z" unicode=";" glyph-name="semicolon"/>
<glyph horiz-adv-x="450" d="M249 756q14 0 22.5 -8t16.5 -19q45 -60 74 -97t45 -60t22 -35.5t6 -23.5q0 -30 -15.5 -62.5t-38.5 -63.5t-50.5 -56.5t-51.5 -41.5q18 -8 30 -28t19 -43t10 -44t4 -30q-12 13 -27 24q-13 9 -31.5 17t-42.5 8q-26 0 -50.5 -7.5t-39.5 -17.5q-8 28 -15 56t-13 57 q17 11 41 16t47 5q8 0 15.5 -0.5t14.5 -1.5q24 24 47 50.5t41.5 55.5t30 61.5t11.5 68.5l-17 23q-22 -7 -50 -22.5t-55.5 -35t-50.5 -41t-35 -40.5l41 -55h-43l-136 179q-4 5 -7 10q-2 5 -4 10.5t-2 10.5q0 11 12.5 28.5t32.5 37.5t45.5 40.5t52 37t51 27t43.5 10.5z M154 114h188l16 -114h-188z" unicode="?" glyph-name="question"/>
<glyph horiz-adv-x="803" d="M250 180q45 12 84 25.5t75 30.5q-13 31 -25 68t-22.5 75.5t-19.5 76.5t-16 71q-5 -39 -12 -84.5t-16 -91.5t-21 -90t-27 -81zM801 127v-118l-196 -75q-57 54 -100 121t-76 136q-92 -31 -193 -43q-6 -15 -18 -40.5t-28 -51t-34.5 -44t-36.5 -18.5q-15 0 -34.5 3 t-37.5 10.5t-30 20.5t-12 33q0 6 2.5 17t7.5 22.5t11.5 20t15.5 8.5q7 0 19.5 -2.5t25 -6.5t23.5 -7.5t15 -5.5q28 51 50.5 112.5t40.5 126t32 130.5t26 126l-15 -3q-7 -1 -16 -1.5t-18 -0.5q-10 0 -21.5 1t-20.5 7l318 116q9 -72 29 -156.5t49 -169.5t65.5 -163t81.5 -137z " unicode="A" glyph-name="A"/>
<glyph horiz-adv-x="666" d="M120 660q51 18 100.5 34t100 28.5t102.5 19.5t108 7q69 0 101.5 -25.5t32.5 -79.5q0 -33 -12.5 -61.5t-31.5 -54t-42 -48.5t-44 -45l-53 -55q18 -9 41.5 -26t45 -40t36 -50.5t14.5 -56.5t-17 -52q-34 -44 -65.5 -79.5t-66.5 -60.5t-76 -38t-95 -13q-17 0 -33.5 2.5 t-29.5 9t-21.5 16.5t-8.5 25q0 18 14.5 39.5t34.5 42t40 38.5t31 28q-11 -22 -11 -36q0 -15 8.5 -24.5t22.5 -15.5t31.5 -8.5t35.5 -2.5q25 0 49.5 5t47.5 13q-1 28 -14.5 55t-34 49.5t-46 40.5t-50.5 29q-22 -14 -49 -21t-53 -7l197 205q-5 47 -34.5 68.5t-74.5 21.5 q-55 0 -92 -2.5t-71 -9.5q12 -87 19.5 -171t7.5 -172q0 -29 -3.5 -65t-12.5 -67.5t-25 -52.5t-40 -21t-44 9t-20 20q23 38 37 78.5t22 85.5t11 95t3 108q0 39 -1.5 73.5t-6.5 68.5q-56 -13 -110.5 -29t-108.5 -36z" unicode="B" glyph-name="B"/>
<glyph horiz-adv-x="624" d="M611 143q-38 -32 -81.5 -63t-90.5 -55t-97.5 -38.5t-101.5 -14.5q-41 0 -79.5 15t-68.5 43t-48 69t-18 93q0 64 20.5 123t55.5 110.5t81 95.5t97 79q-1 5 -1 9v18q0 21 3.5 38.5t8.5 30.5q5 15 12 27l206 -25q-7 -12 -11 -27q-5 -13 -8 -30.5t-3 -37.5q0 -36 9.5 -66 t21.5 -52q13 -26 31 -47l-208 25q-23 26 -37.5 57t-21.5 65q-33 -29 -62 -64.5t-50.5 -75t-33.5 -82.5t-12 -86q0 -27 2 -44t5 -28q3 -12 7 -18q31 -9 66 -9q49 0 101 16t101 40.5t92.5 55t76.5 60.5z" unicode="C" glyph-name="C"/>
<glyph horiz-adv-x="667" d="M359 83q43 4 77.5 26.5t58 56.5t36 75.5t12.5 82.5q0 48 -3 77.5t-7 46.5q-4 19 -9 28q-53 12 -109 18.5t-120 6.5q14 -54 18.5 -110t4.5 -119q0 -45 -1.5 -89.5t-6.5 -87.5q24 -12 49 -12zM266 708q93 -1 166 -14t123.5 -43.5t77.5 -82.5t27 -132q-9 -47 -26.5 -100 t-43.5 -104.5t-60.5 -99t-77.5 -83.5t-93.5 -57.5t-108.5 -21.5q-39 0 -66 21t-44.5 53.5t-25.5 70.5t-8 71l109 113q0 -32 5 -64t22 -68q4 30 8 58t7.5 56.5t5.5 59t2 66.5q0 15 -0.5 31t-1.5 30q-1 16 -1 32q-26 -2 -57 -6.5t-60 -14t-54 -26t-39 -41.5 q-8 -13 -11.5 -29.5t-3.5 -33.5l-36 209q0 37 17 65q15 25 41.5 41t59.5 26t71 14t76 4z" unicode="D" glyph-name="D"/>
<glyph horiz-adv-x="628" d="M158 206q22 8 55.5 17t72.5 16.5t81 12.5t81 5q26 0 51 -2.5t46 -9.5t36 -20t20 -34l38 -225q0 -13 -8.5 -22.5t-21 -16t-26.5 -10t-24 -3.5l-24 133q-24 3 -52 3q-46 0 -88 -4.5t-83.5 -13t-83 -21.5t-86.5 -31q-8 -3 -18 -6t-19 -3q-14 0 -24 10l-21 198l36 166l-29 8 l-14 92l58 -15q5 32 7 64.5t3 67.5q-20 5 -42.5 11.5t-41.5 14.5l109 113q35 -18 78 -32q37 -12 88 -21.5t111 -9.5q22 0 41 11.5t33 25.5q17 16 30 37l31 -62q-21 -36 -49 -63q-24 -23 -60 -42.5t-84 -19.5q-42 0 -76.5 3.5t-58.5 8.5q-29 5 -51 12q4 -25 5.5 -49.5 t1.5 -49.5v-14q0 -6 -1 -13q31 0 54 2.5t39 6.5q18 4 31 9l14 -81q-22 -8 -45 -13q-20 -5 -43 -9t-45 -4h-13q-4 -32 -9 -64z" unicode="E" glyph-name="E"/>
<glyph horiz-adv-x="584" d="M0 415q17 18 35 36l63 63v23q0 19 1 40t3.5 37.5t7.5 16.5q8 0 22 -3t25 -11q1 -1 2 -7t2.5 -12.5t2.5 -13t1 -8.5q42 46 91 82q42 31 96 56.5t114 25.5q23 0 45 -10.5t39 -29.5t27 -45.5t10 -59.5q0 -21 -8 -41t-21.5 -38t-30 -34.5t-34.5 -30.5q-41 -33 -93 -59l-58 62 l45 48q-13 29 -34 40.5t-47 11.5q-35 0 -72 -14.5t-65 -31.5q5 -51 8 -102t5 -103q14 6 36 14t48 15.5t53.5 13t52.5 5.5q32 0 57 -11.5t30 -41.5l16 -97q-5 26 -26.5 37t-52.5 11q-27 0 -58.5 -6.5t-61 -15.5t-53.5 -18t-37 -15q1 -29 1.5 -53t0.5 -45q0 -63 -3.5 -101 t-9.5 -66l-85 23q-1 2 -1 8q0 8 1.5 18t2.5 15q5 39 7 78.5t3 79.5l-16 -13l-19 104q8 7 17 12.5t18 10.5q-1 50 -2 99.5t-3 99.5q-6 -2 -18 -10q-11 -7 -29.5 -21t-48.5 -38z" unicode="F" glyph-name="F"/>
<glyph horiz-adv-x="698" d="M696 129q-30 -17 -64 -22t-68 -5q-1 -35 -9 -69.5t-35 -75.5l-25 9q9 58 9 122q-22 -19 -50 -39.5t-58.5 -38t-63 -28.5t-64.5 -11q-77 0 -128 30.5t-82 80t-43.5 112t-12.5 126.5q2 37 25.5 80.5t61.5 86t87 82t101 70t103.5 48.5t95.5 18q28 0 56.5 -13.5t42.5 -42.5 l49 -267q0 -8 -6.5 -16.5t-15.5 -15.5t-19 -11.5t-17 -4.5l-23 121q-6 1 -12 1.5t-13 0.5q-57 0 -110 -20.5t-102 -53.5t-93.5 -75t-82.5 -85q0 -23 2.5 -51t8.5 -56t15.5 -53.5t23.5 -44.5q26 3 52.5 12.5t51.5 24t47.5 30t41.5 34.5l-29 155q21 -5 48 -8.5t64 -6t86 -2.5 q23 0 46 4t41 9q21 6 40 14z" unicode="G" glyph-name="G"/>
<glyph horiz-adv-x="870" d="M836 71q15 -1 25 -12t10 -26q0 -11 -4 -23t-12 -22t-20 -16t-27 -6l-253 30q-8 1 -14.5 2t-14.5 4q-24 8 -38.5 32t-22 55t-10 64.5t-2.5 61.5v18q0 9 1 17q-7 3 -19 6q-11 2 -29 4t-46 2q-17 0 -30.5 -0.5t-24.5 -1.5q-12 -1 -23 -1l-8 -234l-181 -69q-3 22 -5 52 q-2 25 -3.5 61t-1.5 81q0 39 27.5 60.5t65.5 35.5l100 252q-78 0 -141.5 -18.5t-95.5 -50.5q-5 -5 -9.5 -11.5t-5.5 -14.5l-36 207q0 15 20.5 31.5t52 31t68.5 24t70 9.5q31 0 54.5 -10t31.5 -33q8 -21 15.5 -54.5t13.5 -70t10 -71.5t4 -57q0 -29 -10.5 -57.5t-21.5 -52.5 q42 16 80 23.5t83 9.5q7 77 19.5 159.5t44.5 172.5q1 2 6 5q5 2 14 4t26 2q61 0 130 -8.5t162 -27.5l7 -35l-101 11q-12 -39 -23.5 -91t-20.5 -110t-14.5 -117.5t-5.5 -111.5q0 -27 1.5 -51.5t5.5 -45.5z" unicode="H" glyph-name="H"/>
<glyph horiz-adv-x="324" d="M223 191q15 -2 29 -6t25 -8q13 -4 25 -10l42 -202q-47 10 -96 16.5t-99 6.5q-25 0 -49.5 -2t-48.5 -6l-46 205l35 5q17 2 44 3.5t63 1.5l-22 292h-99v208l220 -13z" unicode="I" glyph-name="I"/>
<glyph horiz-adv-x="564" d="M369 -43q-33 -6 -71 -6q-62 0 -116.5 16.5t-95 49.5t-64 83.5t-23.5 118.5l146 151q0 -121 65.5 -187.5t184.5 -77.5q2 100 8 202t6 200q-4 1 -13 3t-19 5t-18 6t-9 6l-6 154q1 1 7 1q15 0 33 -4t34.5 -11t30 -15.5t19.5 -18.5q9 -15 14.5 -36.5t9 -48.5t5 -57.5 t1.5 -62.5q0 -36 -1.5 -75.5t-4 -76t-5 -67.5t-4.5 -50z" unicode="J" glyph-name="J"/>
<glyph horiz-adv-x="719" d="M692 168q12 -8 19.5 -25t7.5 -35q0 -9 -14 -21t-36.5 -26t-49.5 -27.5t-53 -24.5t-48 -18t-33 -7q-17 0 -38.5 13.5t-44.5 35.5t-45.5 48.5t-42 52t-34.5 47.5t-22 34q-1 -2 -9.5 -19.5t-21.5 -43t-28 -54.5t-29 -54t-24 -41.5t-13 -16.5q-8 0 -21.5 2.5t-26.5 6t-23 7.5 t-11 8q-5 9 -6 49.5t-1 96.5q0 32 2 65t4.5 68t4.5 73.5t2 82.5q0 58 -9.5 103t-20.5 77q-13 37 -30 64q0 2 3 2l80 -22q22 -14 37 -41.5t24 -62t12.5 -72t3.5 -72.5q0 -66 -6 -132t-14 -124l79 117q-14 19 -25 42t-17 44l139 55l59 76q-4 12 -4 28q0 33 6 57.5t14 40.5 q9 18 20 32l206 -25q-11 -14 -19 -33q-8 -17 -13.5 -42t-5.5 -59q0 -16 4 -26l98 -12q-7 -14 -17.5 -24.5t-26.5 -10.5q-13 0 -34 1.5t-45.5 4t-50.5 6t-48 7.5t-38 9t-21 10l-23 -33q13 -33 38 -75.5t55 -85t60.5 -81t53.5 -62.5z" unicode="K" glyph-name="K"/>
<glyph horiz-adv-x="532" d="M129 671q10 -29 16 -60.5t11 -70.5t5 -84q0 -47 -2.5 -83.5t-4.5 -62.5q-3 -30 -6 -53q25 14 54.5 28t61 25t63.5 18t51.5 7t34 -1t29.5 -5t28 -12.5t19 -22.5l39 -227q0 -20 -7.5 -36t-21.5 -35l-24 127q-24 6 -50 6q-56 0 -107.5 -17t-98.5 -42t-89 -53.5t-80 -52.5 l-38 207l8 144l23 -125l34 22q2 45 2.5 89t0.5 89q0 73 -7 130t-16 100.5t-21 77.5z" unicode="L" glyph-name="L"/>
<glyph horiz-adv-x="935" d="M894 673q-17 -46 -29 -104q-11 -50 -19.5 -119.5t-8.5 -156.5q0 -84 14.5 -130.5t32.5 -68.5q21 -26 48 -31l-179 -68q-15 -6 -30 -6q-27 0 -43 16t-24.5 45.5t-11 71t-2.5 93.5q0 117 8 187t17 102q-24 -26 -47 -57t-43 -65t-36 -69t-25 -68q1 -12 3 -26q2 -12 3 -28 t1 -35q0 -28 -1 -47.5t-3 -32.5q-2 -15 -3 -25l-196 -75q4 28 5.5 53.5t1.5 49.5q0 64 -14.5 123t-46.5 125q-21 -98 -43 -161.5t-40 -101.5q-21 -44 -41 -68l-98 27l-5 105l80 -20q35 66 63.5 138.5t46.5 144.5q-9 20 -25.5 40t-32.5 35q-18 18 -39 33l-156 -59 q0 83 46 138l184 73q38 0 70 -12.5t59 -33.5t48 -47.5t38 -54.5q39 -65 62 -147q7 15 20.5 33.5t30 38.5t35 40t49 51.5t80.5 76.5z" unicode="M" glyph-name="M"/>
<glyph horiz-adv-x="777" d="M191 327q0 -101 -10.5 -165t-22.5 -101q-15 -43 -33 -65l-98 27l-5 105l80 -20q8 23 14 67q5 38 10 100.5t5 159.5l-42 79l-100 -38q6 16 14.5 31t21.5 26l222 85q17 -3 33 -22t31 -45.5t28 -55t25 -50.5q50 -93 110.5 -179.5t141.5 -155.5q-16 63 -28 125 q-11 53 -19 111t-8 102q0 25 2 54t9.5 59.5t23 60.5t42.5 59l83 -24l12 -79l-60 12q-14 -34 -20 -77t-6 -86q0 -55 10 -135.5t33 -187.5l97 37q-6 -29 -18.5 -58.5t-43.5 -43.5l-185 -65q-22 0 -41 9.5t-39 22.5q-41 27 -79 64.5t-72.5 80.5t-64 88.5t-53.5 87.5z" unicode="N" glyph-name="N"/>
<glyph horiz-adv-x="635" d="M342 678q76 -22 136 -60q25 -16 49.5 -37t44 -48t31 -59.5t11.5 -71.5q0 -42 -7 -89.5t-21 -95t-35.5 -91t-50.5 -76.5t-66.5 -53t-82.5 -20q-11 0 -23.5 2.5t-34 10.5t-55 24.5t-85.5 45.5q-28 15 -49.5 30.5t-37.5 34.5t-26 43.5t-14 57.5q0 47 8.5 89t22.5 78.5 t32 67.5t37 57q44 60 100 104l54 -15q-43 -60 -76 -124q-29 -55 -52 -121.5t-23 -131.5q0 -42 14.5 -81.5t44.5 -68.5q44 6 79.5 30.5t62 61.5t45.5 83t31.5 94t18 95t5.5 87l-144 82z" unicode="O" glyph-name="O"/>
<glyph horiz-adv-x="659" d="M312 178q35 6 77 15.5t81.5 24.5t73 36.5t51.5 51.5l-18 98q-38 12 -83 16.5t-91 4.5q-50 0 -92 -3q9 -63 9 -128q0 -29 -2 -58t-6 -58zM174 160l62 7q18 82 18 169q0 20 -1 41t-3 41q-35 -3 -71 -7t-72 -9l11 -70l-90 -12v325q45 8 88.5 13t88.5 8l-14 39h39l15 -36 q18 2 47 3t63 1q36 0 77.5 -3t78 -12t63 -25t32.5 -42l45 -257q0 -33 -16.5 -58.5t-44.5 -45t-64 -34t-74 -24.5t-76 -16.5t-69 -10.5q-13 -60 -27 -108q-6 -20 -13 -39.5t-14 -34.5t-15 -24.5t-15 -9.5q-24 0 -49 6t-45.5 21t-34 40t-13.5 63q0 11 2 20q2 8 4 14t7 6 q34 0 49.5 -9.5t21 -25t5.5 -34.5t3 -37q7 8 15.5 27t16.5 41.5t14.5 43.5t9.5 32q-27 -5 -55 -6v29z" unicode="P" glyph-name="P"/>
<glyph horiz-adv-x="716" d="M660 180q13 -56 20 -100t-1.5 -73.5t-17 -35.5t-19.5 -6q-26 0 -57.5 25t-64.5 61q-33 -35 -75 -61t-94 -26q-29 0 -58.5 8.5t-58 22.5t-56.5 31.5t-53 33.5t-45.5 30t-35.5 32t-23.5 41.5t-8.5 58.5q0 70 19.5 134t49.5 121.5t142 206.5l184 -101q-57 -66 -80.5 -102 t-47 -79.5t-42 -90.5t-30 -95.5t-11.5 -85.5t6 -61q26 4 52.5 19t51 34.5t46 41.5t37.5 41l-32 33l-27 155q49 -62 72 -89.5t49.5 -56t53.5 -54.5q9 18 15.5 39.5t11.5 49t5 55t-3 56.5q-31 1 -49 15.5t-27.5 36t-12.5 47.5t-5 50l146 151q5 -77 13 -98.5t25 -36t37 -14.5 t70 15l-128 -136q3 -20 3 -57t-7.5 -79.5t-17.5 -77t-23 -63.5q16 -12 30.5 -19t26.5 -7q11 0 19 5.5t13 14.5t13 40z" unicode="Q" glyph-name="Q"/>
<glyph horiz-adv-x="679" d="M538 110l142 88v-57q0 -36 -22.5 -69t-56.5 -58t-74 -40t-74 -15q-29 0 -57.5 9t-55 23.5t-50.5 31.5t-43 32q-1 -9 -3.5 -27t-6 -36t-9 -31.5t-12.5 -13.5q-12 0 -25.5 2t-24 6.5t-17.5 11.5t-7 16q0 38 7.5 77t12.5 78q-5 4 -11 13.5t-11.5 20.5t-9.5 22.5t-4 20.5 l45 34q2 30 3 60t1 61v40q0 20 -2 40q-44 -6 -84 -21l3 -70l-54 -4l-20 267q19 8 43 15q20 6 46.5 13t56.5 12l-3 35l46 8l5 -36q21 3 46 6q21 2 49.5 4t61.5 2q38 0 71.5 -2t62 -9.5t51.5 -23t38 -42.5l23 -183q-6 -27 -26 -50.5t-47.5 -42.5t-61 -34t-67.5 -27t-66 -20.5 t-57 -13.5q19 -28 48 -57t63 -55t69.5 -46t67.5 -30v65zM544 459q-29 8 -66 10.5t-76 2.5q-43 0 -84 -2.5t-74 -7.5l11 -170l18 -29q12 3 37 10t55 18.5t61.5 27t57.5 36t42.5 46.5t17.5 58z" unicode="R" glyph-name="R"/>
<glyph horiz-adv-x="596" d="M512 453l-11 48q-103 -4 -216 -42q48 -5 90.5 -24.5t78 -50t62 -71.5t41.5 -88q3 -10 6 -22q2 -11 4 -24.5t2 -30.5q0 -35 -21.5 -59.5t-55.5 -41t-76.5 -26t-84 -14.5t-78 -6t-59.5 -1q-25 0 -51 3t-48 7q-26 4 -49 10l-18 283l57 7l25 -114q55 0 110 1.5t106.5 10.5 t98 29t86.5 56q-35 33 -76.5 54t-87 33.5t-93 17t-92.5 4.5l-41 190q39 27 88.5 47t103.5 32.5t110 19t108 6.5l48 -231z" unicode="S" glyph-name="S"/>
<glyph horiz-adv-x="640" d="M639 453q-72 -26 -150.5 -45t-151.5 -27q1 -59 5.5 -117.5t18.5 -116.5l74 -34l-17 -128l-96 25q-32 72 -43 162t-11 196q-20 -4 -51 -7.5t-63 -3.5q-22 0 -42.5 2.5t-37.5 9t-29 18.5t-16 31l-36 214l34 2l11 -58q39 -12 89 -12q43 0 85 5t73 13l24 92l58 -15l-13 -66 q55 11 100.5 22.5t78.5 21.5q39 11 70 23z" unicode="T" glyph-name="T"/>
<glyph horiz-adv-x="726" d="M707 145q16 -30 16 -59v-10q0 -5 -2 -11l-214 -77q-26 0 -44.5 13t-31.5 33.5t-20.5 47t-12 53.5t-6.5 52t-2 43q-9 -30 -24.5 -70t-35.5 -76.5t-45 -62t-54 -25.5q-48 0 -87 17t-66.5 45.5t-42.5 66t-15 79.5q0 30 4.5 61.5t11.5 61.5t16 58t17 51q-15 2 -28 9l-41 196 q9 19 22 22t30 4l9 -36q51 4 98.5 18.5t92.5 37.5l44 -191q-51 -32 -78.5 -38.5t-40.5 -6.5q-11 -25 -22.5 -57.5t-21.5 -68t-16.5 -73t-6.5 -73.5q0 -51 15 -86.5t53 -69.5q24 9 36 17t26 23q30 33 57 93.5t51 136.5t45 160.5t39 165.5l196 75q-11 -47 -19 -87.5t-13 -81 t-7.5 -84.5t-2.5 -96q0 -66 8 -128t31 -103z" unicode="U" glyph-name="U"/>
<glyph horiz-adv-x="692" d="M398 179q13 65 29 140t42.5 146.5t66.5 134t101 103.5l89 -24q-62 -37 -104 -89t-70.5 -114.5t-48.5 -131.5t-39 -140l38 13q10 -15 16 -36t6 -42q0 -23 -8.5 -43t-28.5 -30l-204 -79q-2 -1 -5 -1q-2 -1 -6 -1h-5q-27 0 -57.5 30.5t-60 77.5t-56.5 104.5t-47.5 112.5 t-32.5 100t-12 68q0 21 2.5 43.5t10 43t21 37.5t35.5 28l209 54q-35 -19 -58.5 -50t-23.5 -76q0 -35 17.5 -89t42.5 -111t52 -109.5t46 -86.5z" unicode="V" glyph-name="V"/>
<glyph horiz-adv-x="851" d="M632 148q0 22 1.5 71.5t6 111.5t14 128t25 120.5t39 89.5t56.5 35l77 -27q-50 -41 -78 -101t-42 -128.5t-17.5 -139t-3.5 -131.5l68 26q6 -4 11 -12q4 -7 7.5 -18t3.5 -28q0 -24 -28.5 -52t-71 -52t-90.5 -40t-87 -16q-17 0 -36 8.5t-32 22.5q-17 17 -34 50.5t-33 71.5 t-28 74.5t-18 59.5q-19 -79 -56 -154q6 -9 16.5 -20t21.5 -17l-109 -113q-50 59 -87.5 129t-63 145t-40.5 154t-20 156l110 114q0 -52 11 -117t29.5 -131.5t43.5 -128t52 -105.5q20 43 38 87.5t32 89.5q-4 12 -8 30q-3 15 -5 37t-2 53q0 33 8.5 61.5t31.5 37.5l214 78 q-17 -12 -29 -28q-11 -14 -19.5 -33t-8.5 -42q0 -47 11 -104t28 -114t37.5 -108.5t38.5 -86.5z" unicode="W" glyph-name="W"/>
<glyph horiz-adv-x="825" d="M825 481q-7 -10 -19.5 -24.5t-26.5 -14.5l-197 24l-50 -108q14 -23 35 -57t45 -68t49 -63.5t48 -43.5l107 111q5 -10 7 -22.5t2 -23.5v-6l-190 -199q-8 -7 -18.5 -14t-23.5 -7q-24 0 -48.5 18.5t-47.5 48t-45 65.5t-41.5 70.5t-36 63t-29.5 43.5l-30 -126 q-6 -24 -13.5 -50t-20.5 -48t-32.5 -36.5t-47.5 -14.5q-30 0 -59 8t-51.5 24.5t-36 41t-13.5 56.5q0 19 2.5 41t10 40.5t21 32.5t36.5 19l83 -24l-31 -162l-32 5q2 -13 8 -28.5t15 -25.5q29 9 47.5 41.5t31 73t20.5 81t17 66.5q11 33 24 62q-8 14 -49 56t-136 111l-95 -94 q-12 7 -12 26q1 13 7 24.5t14 21.5q18 24 35.5 44t35.5 38t37.5 35.5t42.5 36.5q10 8 23 16t30 8q16 0 38.5 -12t48.5 -32.5t53 -47t52 -55.5t45.5 -58t32.5 -54l44 102q-2 10 -3 22q-3 21 -3 63v28q0 15 1 26q1 13 2 25l208 -25q-1 -13 -2 -25t-1 -27v-41q0 -27 1.5 -44.5 t5.5 -28.5z" unicode="X" glyph-name="X"/>
<glyph horiz-adv-x="669" d="M402 359q16 43 37 88.5t47.5 88.5t58.5 81.5t70 68.5l63 -17q-41 -48 -72.5 -93.5t-56 -89t-43.5 -85t-34 -81.5q21 0 43 7t41 16q21 11 42 24l28 -33q-9 -12 -24.5 -28t-37 -32.5t-50.5 -30.5t-66 -21q-14 -36 -23.5 -69t-15 -67t-8 -69.5t-2.5 -75.5l-87 23q0 54 7 100 t15 81q10 40 22 75q-51 13 -112.5 46t-115.5 79.5t-90.5 104t-36.5 120.5q0 33 28 47l193 74q-8 -9 -13 -19q-5 -8 -8.5 -19t-3.5 -23q3 -35 25 -74t53 -76t65.5 -69t61.5 -52z" unicode="Y" glyph-name="Y"/>
<glyph horiz-adv-x="607" d="M513 255l45 -2l39 -219q0 -20 -19 -31.5t-45 -17t-54 -7t-46 -1.5q-44 0 -98.5 3t-106.5 8t-95 12t-65 16l-36 206q20 -8 46.5 -13.5t47.5 -5.5q40 22 84.5 51.5t87 63.5t79.5 72t62 78h-23q-9 0 -18.5 0.5t-14.5 0.5q-34 0 -71 -2.5t-73 -8.5t-69 -16t-59 -25l13 -55 q-8 -7 -23.5 -13t-26.5 -6l-61 243q0 28 29 49t74.5 34.5t101.5 20t109 6.5q57 0 110 -6.5t95 -18.5l47 -169q-33 -59 -73 -106.5t-82.5 -85.5t-85.5 -68t-82 -53q29 -2 62 -4t66 -2q37 0 72.5 3.5t65.5 13.5z" unicode="Z" glyph-name="Z"/>
<glyph horiz-adv-x="860" d="M54 750h750v-750h-750v750zM585 474q0 4 -4 4l-3 5q-5 0 -7 -9t-4 -11q2 6 2.5 11.5t0.5 11.5q0 9 -1 21.5t-5 24.5t-11.5 21.5t-20.5 13.5q1 1 3 1q9 0 17 -5q1 1 1 5v5l7 24v-22q0 -9 1.5 -17.5t9.5 -14.5l3 1q0 2 2 12.5t2 15.5q-1 12 -2 23.5t-1 22.5q2 2 2 7 q0 3 -1 6t-2 7h-4q1 -1 1 -6q-5 22 -19 39t-34 28.5t-43.5 17.5t-46.5 6q-21 0 -41.5 -5t-37.5 -16q-9 -6 -21.5 -18t-23.5 -25.5t-18.5 -27t-7.5 -23.5v-8q-1 -8 -3 -13t-2 -13q4 0 5.5 7.5t2.5 10.5q1 -1 1 -4q0 -5 -1.5 -8.5t-1.5 -11.5q0 -19 4 -26q4 5 11 15t7 14l3 -4 q0 -2 -1.5 -5t-1.5 -6q1 -1 3 -1q0 -1 -2.5 -3.5t-4.5 -5.5l-6 -7q-5 -5 -4 -12.5t-2 -13.5q0 -11 8 -22.5t8 -16.5l-3 2q-4 1 -4 4q-5 -2 -6.5 -4t-4.5 -4l-6 4q-7 -1 -7 -11q0 -20 7 -26.5t10 -6.5l2 -3q-1 -1 -1 -6t5 -6.5t10 -4.5q1 0 2.5 2.5t3.5 3.5q0 -5 3 -5 q5 0 9 3t12 3q10 0 20 -7q3 0 4 1q1 -1 1 -3q0 -13 -3.5 -24.5t-3.5 -13.5l2 -4q0 -2 2 -4q2 5 2 8t2 6q2 0 2 -3q0 -2 -1 -5.5t-1 -5.5q0 -1 2 -3q0 -3 -1 -4q0 -4 1 -9t4 -5q1 0 3 5t2 9q-2 2 -2 6q1 0 2 -3.5t2.5 -8t2.5 -8t3 -3.5q5 0 5 13q0 5 -1 6.5t-1 4.5q0 1 2 1.5 t3 0.5q-1 -1 -1 -6v-11q0 -7 4 -8h4q7 0 7 13q0 1 -0.5 4t-1.5 8l10 -1l-1.5 -7.5t-0.5 -3.5v-10q0 -1 2.5 -3.5t3.5 -2.5q14 0 14 8q0 5 -3 10.5t-3 8.5q7 0 8 -3.5t1 -8t1.5 -9t9.5 -6.5q0 6 2 8v6q0 3 -0.5 5t-0.5 4l-1 3h7l-2 -17q0 -8 3 -9t6 -1q1 0 4 4t3 7v7 q0 8 3 10v-22q0 -3 3 -3q7 1 7 11q0 9 -1.5 16t-1.5 9q0 4 1 5q3 -9 3.5 -15.5t0.5 -14.5v-10q5 0 6 3t1 6q0 4 -1 8t-2 6q2 -2 6 -5t4 -8q0 -3 -3 -6q2 -2 3 -2q4 0 4 3q0 4 -3.5 14.5t-3.5 17.5q0 5 2 5q1 -3 1 -9t5 -6q0 2 1 4.5t1 5.5l2 -5l3 1v6l-3 1v6q0 2 1 3 q0 5 -4 6l-14 10q-3 3 -3 8q0 2 1 3q6 0 12 -3t6 -6l12 3q5 2 9 4t4 6q1 -4 3 -4h9q1 1 1 3t1 2q1 -4 6 -10.5t7 -6.5q4 1 5 2q0 3 -2.5 4.5t-2.5 5.5h8q16 0 20.5 7.5t4.5 8.5q0 2 -0.5 4t-0.5 4t5 7.5t5 16.5q0 8 -7 9zM570 186q-4 8 -9 11.5t-10.5 5t-12.5 2.5t-14 4 q-58 20 -117 44t-104 65q51 -36 109.5 -60t116.5 -44q5 -2 13 -3t16 -1q11 0 21 3.5t13 12.5q-72 9 -141.5 36t-133 68t-118 93.5t-96.5 112.5q-1 -1 -1 -12q0 -12 4 -23.5t19.5 -45.5t66.5 -84.5t114 -89.5t131.5 -64.5t129.5 -31.5zM761 549q-63 -91 -142.5 -158.5 t-173.5 -115.5q5 -3 9.5 -5.5t10.5 -3.5q24 11 46.5 24.5t44.5 28.5l2 -4q-18 -17 -36.5 -28.5t-42.5 -25.5q13 -7 28 -9q42 22 83.5 53.5t76.5 69.5t60 82t34 92zM544 537q2 -6 7.5 -11t5.5 -18q0 -19 -10 -35l-3 4q-4 -4 -6.5 -6t-2.5 -5q0 -2 2 -4q-2 0 -4 -0.5t-4 -0.5 q-2 2 -6 2q-2 0 -4 -0.5t-5 -0.5q-14 0 -29.5 4.5t-15.5 21.5l6 -6q1 1 4 1l3 1l-4 5q-4 7 -11.5 17t-9.5 10q0 2 4 5.5t4 6.5q0 4 -1 5l1 4l3 -1l7 7q5 5 11 5q5 -2 5.5 -2.5t2.5 -0.5h4q3 1 5.5 2.5t4.5 1.5q21 0 36 -12zM337 470q-2 -1 -3 -3.5t-3 -2.5v6q0 5 -2 7h-4 q-5 0 -12 2t-7 8q0 2 0.5 3.5t0.5 3.5q0 6 -3 13t-5 10q0 10 8.5 16.5t20 10t23 5t17.5 1.5q7 0 16.5 -2.5t9.5 -10.5q0 -2 -0.5 -4.5t-0.5 -4.5q0 -5 2 -6t2 -7q0 -20 -14 -32t-29 -14q-3 0 -8.5 0.5t-8.5 0.5zM294 203q-9 5 -16 8t-15 10q-8 6 -11 14t-5.5 16.5t-6.5 14.5 t-13 7q-7 0 -15.5 -6.5t-8.5 -11.5l5 -4q14 -11 22.5 -23.5t13.5 -17.5l9 -8q4 -4 7.5 -8t3.5 -10t-1 -7q5 -17 19.5 -30t32.5 -13q6 0 16.5 2.5t10.5 13.5q0 9 -9 9q-4 0 -8 -1.5t-8 -2.5q-12 0 -20 10t-8 18q0 2 5 20zM660 254q-2 7 -9 13t-15 6q-14 0 -19.5 -15t-7.5 -24 q-4 -11 -16 -18.5t-22 -12.5q8 -14 8 -23q0 -20 -27 -26q-7 0 -10.5 2t-8.5 2q-7 0 -8 -3.5t-1 -7.5q0 -7 6.5 -10.5t15.5 -3.5q25 0 41.5 15.5t16.5 44.5q9 6 14.5 16t11 19t12 16.5t18.5 9.5zM433 439q0 5 1 10t1 10q0 6 -3 11q-3 -5 -5.5 -9t-2.5 -9q0 -2 0.5 -5t0.5 -8 q0 -6 -2 -11.5t-8 -5.5q-1 0 -5.5 2.5t-8.5 4.5q0 14 2.5 22t5.5 13t6 9.5t4 11.5q0 1 -0.5 2.5t-0.5 3.5l5 -3q2 -1 4.5 -0.5t4.5 -1.5l9 8l1 -6l5 -17.5t3 -13.5l5 -15q4 -7 4 -16q0 -2 -5 -3.5t-7 -1.5q-5 0 -9.5 5t-4.5 13zM390 228q-9 -5 -24 -8.5t-30 -8t-27 -10.5 t-15 -16q13 0 34 3.5t40.5 8t34 10t14.5 8.5q0 1 -3.5 3t-8 4.5t-9 4t-6.5 1.5zM273 226q0 -3 10.5 -10.5t19.5 -7.5q2 2 3 1.5t5 0.5l70 21q-7 5 -12 8.5t-13 5.5q-21 -8 -41.5 -11.5t-41.5 -7.5zM183 211l-5 -3q5 -6 6.5 -14t9.5 -13l54 4q0 17 -10 22t-20 5 q-8 0 -14.5 -0.5t-13.5 -0.5h-7zM685 211q-5 1 -9 1.5t-6 0.5q-9 0 -17.5 -1.5t-17.5 -1.5h-5q-2 -2 -8 -9.5t-6 -12.5q0 -3 3 -3h55q11 9 11 26zM171 208q2 4 6 3.5t4 4.5q-5 1 -9 1.5t-8 0.5h-6q-18 -5 -18 -21q0 -10 6.5 -18.5t16.5 -8.5q8 0 13 6.5t5 9.5q0 6 -4 11 t-6 11zM683 218q1 -5 5 -5.5t6 -2.5q-2 -6 -5.5 -11.5t-3.5 -13.5q8 -11 18 -11q8 0 14.5 7.5t6.5 17.5q0 11 -8 16t-19 5q-2 0 -5.5 -0.5t-8.5 -1.5zM188 180q-5 -5 -11 -9t-6 -8q0 -1 2 -3q6 1 13 6t8 12q0 2 -2 2h-4zM678 180q-3 0 -3.5 -1.5t-1.5 -3.5q2 -5 7 -9t10 -4 q4 0 6 2q0 5 -7 8t-11 8zM403 371q0 4 0.5 6.5t0.5 4.5q0 3 -1 5t-1 6q5 0 5 -7v-4q-1 -1 -1.5 -6t-2.5 -5zM426 374q-1 5 -1.5 7t-0.5 7q1 1 1 6q2 0 2.5 -3t0.5 -5q0 -1 -0.5 -4t-1.5 -8zM372 372q-3 1 -3 4q0 5 1 5q3 0 3 -4t-1 -5zM446 369q-3 3 -3 6q0 6 1 7q0 -6 2 -6 v-7zM421 415l3 -1v-8q-3 0 -3 -1v10zM385 375q1 5 1.5 8t0.5 4q2 -2 2 -4zM357 17v43h29v15h-29v25h45v15h-61v-98h16zM432 17v43h29v15h-29v25h45v15h-61v-98h16zM518 100q8 0 14 -3.5t6 -12.5q0 -11 -7 -14.5t-15 -3.5h-9v34h11zM491 17h16v34h11q15 0 25.5 8t10.5 25 t-11.5 24t-27.5 7h-24v-98z" unicode="\" glyph-name="backslash"/>
<glyph horiz-adv-x="500" d="M1 -82q24 6 60 10q31 4 78 7t113 3q53 0 100 -2.5t83 -5.5q42 -4 78 -7l-16 -106q-35 3 -75 7q-35 3 -81 5.5t-99 2.5q-66 0 -114 -3t-80 -7q-37 -4 -63 -10z" unicode="_" glyph-name="underscore"/>
<glyph horiz-adv-x="314" d="M179 495q-27 18 -50.5 39.5t-41.5 42.5t-30 40.5t-17 32.5l103 5q7 -19 16.5 -36t24.5 -35t36.5 -38.5t52.5 -44.5z" unicode="`" glyph-name="grave"/>
<glyph horiz-adv-x="830" d="M711 644q-1 38 -18 68t-53 42q-20 -24 -41 -68.5t-38.5 -95t-30 -98t-14.5 -76.5q18 8 41 14t43 6q23 0 36.5 -12.5t13.5 -38.5l-58 -209q0 11 -2.5 22.5t-8 20.5t-15.5 15t-25 6q-17 0 -35 -4t-32 -9q-3 -12 -7.5 -28.5t-9 -34.5t-10 -36t-9.5 -32q-19 -63 -47 -116 t-68 -91.5t-93.5 -59.5t-123.5 -21q-6 0 -12 0.5t-13 0.5q-22 7 -37 23.5t-24.5 38.5t-14 47.5t-5.5 50.5l120 5q3 -21 8.5 -42t15 -38.5t24 -30.5t34.5 -19q36 27 61 69.5t43 90.5t29.5 97.5t20.5 92.5q-27 -6 -58.5 -20t-54.5 -34l55 183q5 6 18.5 16t29.5 19.5t31 16.5 t23 9q6 24 15.5 59.5t22 75t28 80t33 73.5t37 56t41.5 28l154 39q22 0 40.5 -10t31 -26t19.5 -37t7 -43q0 -17 -3 -35h-115z" unicode="" glyph-name="florin"/>
<glyph horiz-adv-x="366" d="M55 -119v194l91 43v-194zM206 -119v194l91 43v-194z" unicode="" glyph-name="quotedblbase"/>
<glyph horiz-adv-x="408" d="M67 575q31 33 74.5 62.5t85.5 45.5l119 -132l-36 -34l-61 69q-32 0 -121 -99z" unicode="" glyph-name="circumflex"/>
<glyph horiz-adv-x="355" d="M322 398q-20 -14 -48.5 -37.5t-56 -52t-48 -58.5t-22.5 -55l128 -124l-47 -55l-216 183q1 39 23.5 78.5t54 76t67.5 68.5t65 55z" unicode="" glyph-name="guilsinglleft"/>
<glyph horiz-adv-x="234" d="M162 473q-30 -3 -59 -3q-26 0 -47 9.5t-21 38.5l16 120q2 15 10 30.5t19.5 30t25.5 25.5t28 16l-12 -125l61 3z" unicode="" glyph-name="quoteleft"/>
<glyph horiz-adv-x="201" d="M59 680q30 3 59 3q26 0 47 -9.5t21 -38.5l-16 -120q-2 -15 -10 -30.5t-19.5 -30t-25.5 -25.5t-28 -16l12 125l-61 -3z" unicode="" glyph-name="quoteright"/>
<glyph horiz-adv-x="386" d="M331 473q-30 -3 -59 -3q-26 0 -47 9.5t-21 38.5l16 120q2 15 10 30.5t19.5 30t25.5 25.5t28 16l-12 -125l61 3zM142 473q-30 -3 -59 -3q-26 0 -47 9.5t-21 38.5l16 120q2 15 10 30.5t19.5 30t25.5 25.5t28 16l-12 -125l61 3z" unicode="" glyph-name="quotedblleft"/>
<glyph horiz-adv-x="406" d="M59 680q30 3 59 3q26 0 47 -9.5t21 -38.5l-16 -120q-2 -15 -10 -30.5t-19.5 -30t-25.5 -25.5t-28 -16l12 125l-61 -3zM248 680q30 3 59 3q26 0 47 -9.5t21 -38.5l-16 -120q-2 -15 -10 -30.5t-19.5 -30t-25.5 -25.5t-28 -16l12 125l-61 -3z" unicode="" glyph-name="quotedblright"/>
<glyph horiz-adv-x="262" d="M131 326q18 0 34.5 -7t29.5 -19.5t20.5 -29t7.5 -35.5q0 -18 -7 -35t-19.5 -29.5t-29.5 -20.5t-36 -8q-18 0 -35 7t-29.5 20t-20 29.5t-7.5 36.5q0 18 7 34.5t19.5 29t29.5 20t36 7.5z" unicode="" glyph-name="bullet"/>
<glyph horiz-adv-x="626" d="M47 316q17 6 52.5 11t75.5 9t76 6t54 2q24 0 60.5 -1.5t75.5 -4t75.5 -6.5t61.5 -9l-24 -173q-22 5 -57 9t-72.5 6.5t-74 3.5t-61.5 1q-26 0 -62 -2t-74 -5.5t-73 -8.5t-57 -11z" unicode="" glyph-name="endash"/>
<glyph horiz-adv-x="889" d="M62 314q36 8 91 14q47 5 117.5 10t169.5 5q79 0 150.5 -3.5t125.5 -7.5q63 -5 117 -11l-24 -173q-51 6 -113 11q-53 5 -122.5 8.5t-149.5 3.5q-100 0 -172 -5t-120 -10q-56 -7 -94 -15z" unicode="" glyph-name="emdash"/>
<glyph horiz-adv-x="452" d="M393 586q-27 -24 -65 -45t-74 -33l-45 61q-16 0 -41 -17.5t-66 -55.5l-44 77q28 25 66.5 46.5t73.5 31.5l45 -61q14 0 40 18t66 56z" unicode="" glyph-name="tilde"/>
<glyph horiz-adv-x="312" d="M163 466l132 -468l-266 -29l104 494zM230 524h-188l24 173h188z" unicode="" glyph-name="exclamdown"/>
<glyph horiz-adv-x="552" d="M436 477h-42l-13 76q-53 29 -110 29q-36 0 -69 -12.5t-60 -34t-47.5 -52t-32.5 -66.5h186l-38 -64h-137q20 -33 44.5 -69t41.5 -70q15 4 43.5 9.5t64 10t72.5 8t69 3.5q27 0 47 -4t28 -12l56 -213l-47 -49l-17 64q-42 0 -98 -5t-113 -13.5t-108 -21t-84 -27.5l-55 213 q4 2 15.5 5.5t24 7t24 7t17.5 4.5q-21 38 -31 74t-18 78h-96l38 64h46q-5 24 -8 46.5t-3 45.5q0 43 17 84.5t47 73t70 51t86 19.5q29 0 68.5 -12t88.5 -49z" unicode="" glyph-name="sterling"/>
<glyph horiz-adv-x="385" d="M161 513h-118l18 134h119zM319 513h-118l18 134h119z" unicode="" glyph-name="dieresis"/>
<glyph horiz-adv-x="606" d="M322 397q-20 -14 -48.5 -37.5t-56 -52t-48 -58.5t-22.5 -55l128 -124l-47 -55l-216 183q1 39 23.5 78.5t54 76t67.5 68.5t65 55zM580 397q-20 -14 -48.5 -37.5t-56 -52t-48 -58.5t-22.5 -55l128 -124l-47 -55l-216 183q1 39 23.5 78.5t54 76t67.5 68.5t65 55z" unicode="" glyph-name="guillemotleft"/>
<glyph horiz-adv-x="480" d="M216 -18q-14 0 -22.5 8t-16.5 19q-45 60 -74 97t-45 60t-22 35.5t-6 23.5q0 30 15.5 62.5t38.5 63.5t50.5 56.5t51.5 41.5q-18 7 -30 27.5t-19 43.5t-10 44t-4 30q11 -14 26 -25q13 -9 32 -16.5t43 -7.5q26 0 50.5 7.5t39.5 17.5l28 -113q-17 -11 -41 -16t-47 -5 q-8 0 -15.5 0.5t-14.5 1.5q-24 -24 -47 -50.5t-41.5 -55.5t-30 -61.5t-11.5 -68.5l17 -23q23 7 51.5 22.5t55.5 35t49.5 41t34.5 40.5l-41 55h43l136 -179l6 -10q2 -5 4.5 -10.5t2.5 -10.5q0 -17 -13 -37.5t-34.5 -40.5t-47.5 -38.5t-52.5 -33t-50 -23t-39.5 -8.5zM313 624 h-188l-16 114h188z" unicode="" glyph-name="questiondown"/>
<glyph horiz-adv-x="675" d="M23 -230q14 41 24.5 102t18.5 132t13.5 148.5t8.5 151.5q8 174 9 368q51 18 100.5 34t100 28.5t102.5 19.5t108 7q69 0 101.5 -25.5t32.5 -79.5q0 -33 -12.5 -61.5t-31.5 -54t-42 -48.5t-44 -45l-53 -55q18 -9 41.5 -26t45 -40t36 -50.5t14.5 -56.5t-17 -52 q-34 -44 -60.5 -79.5t-55.5 -60.5t-65 -38t-90 -13q-17 0 -33.5 2.5t-29.5 9t-21.5 16.5t-8.5 25q0 18 14.5 39.5t34.5 42t40 38.5t31 28q-11 -22 -11 -36q0 -15 8.5 -24.5t22.5 -15.5t31.5 -8.5t35.5 -2.5q12 0 19.5 0.5t13.5 2t13 5.5t19 10q-1 28 -14.5 55t-34 49.5 t-46 40.5t-50.5 29l-102 -28l197 205q-5 47 -34.5 68.5t-74.5 21.5q-55 0 -92 -2.5t-71 -9.5v-590q0 -29 -3 -65t-11.5 -67.5t-24 -52.5t-39.5 -21z" unicode="" glyph-name="germandbls"/>
<glyph horiz-adv-x="244" unicode=" " glyph-name="space"/>
<glyph horiz-adv-x="408" d="M128 683q89 -99 121 -99l61 69l36 -34l-119 -132q-42 16 -85.5 45.5t-74.5 62.5z" unicode="" glyph-name="caron"/>
<glyph horiz-adv-x="314" d="M40 501q31 24 52.5 44.5t36.5 38.5t24.5 35t16.5 36l103 -5q-5 -13 -17 -32.5t-30 -40.5t-41.5 -42.5t-50.5 -39.5z" unicode="" glyph-name="acute"/>
<glyph horiz-adv-x="280" d="M189 530h-118l18 117h119z" unicode="" glyph-name="dotaccent"/>
<glyph horiz-adv-x="358" d="M210 603q-10 -26 -31.5 -55.5t-57.5 -52.5l-94 6q39 31 56 55t23 47h104zM357 603q-10 -26 -31.5 -55.5t-57.5 -52.5l-94 6q39 31 56 55t23 47h104z" unicode="" glyph-name="hungarumlaut"/>
<glyph horiz-adv-x="328" d="M135 -139q44 -24 88 -25l45 -89q-33 0 -66 14.5t-59 38.5t-42.5 56.5t-16.5 68.5q0 18 10 32t25 23.5t33 14.5t34 5v41h45v-128q-29 0 -47.5 -8t-29.5 -18q-12 -11 -19 -26z" unicode="" glyph-name="ogonek"/>
<glyph horiz-adv-x="328" d="M217 -139q-7 15 -19 26q-11 10 -29.5 18t-47.5 8v128h45v-41q16 0 34 -5t33 -14.5t25 -23.5t10 -32q0 -36 -16.5 -68.5t-42.5 -56.5t-59 -38.5t-66 -14.5l45 89q44 1 88 25z" unicode="" glyph-name="cedilla"/>
<glyph horiz-adv-x="408" d="M406 613q-9 -22 -24 -42t-35 -35t-44 -23.5t-50 -8.5q-36 0 -74 6.5t-72 22.5t-62 42t-45 64l132 -35q5 -14 12 -27.5t20 -30.5q20 8 36.5 16.5t30 20t24 27t19.5 38.5z" unicode="" glyph-name="breve"/>
<glyph horiz-adv-x="408" d="M73 569q1 22 15.5 35.5t34.5 21t41.5 10t37.5 2.5q19 0 43 -1.5t44.5 -7.5t34.5 -17.5t14 -30.5q0 -20 -13.5 -34.5t-32 -24t-39.5 -14.5t-36 -5q-21 0 -46 2t-46.5 9t-36.5 20t-15 35zM211 627q-27 -7 -42.5 -23.5t-15.5 -35.5q0 -15 11 -29t35 -23q25 10 41.5 28 t16.5 38q0 14 -10.5 26t-35.5 19z" unicode="" glyph-name="ring"/>
<glyph horiz-adv-x="314" d="M198 -52q-10 -26 -31.5 -55.5t-57.5 -52.5l-106 6q39 31 56 55t23 47h116z" unicode="" glyph-name="commaaccent"/>
<glyph horiz-adv-x="408" d="M73 595q12 4 30 8t37.5 6.5t37.5 4t32 1.5q35 0 72.5 -3.5t74.5 -11.5l-18 -90q-33 8 -69 11.5t-72 3.5q-38 0 -74.5 -5.5t-68.5 -14.5z" unicode="" glyph-name="macron"/>
<glyph horiz-adv-x="455" d="M411 174q1 -38 9.5 -72t34.5 -64l-102 -69q-20 19 -30 50.5t-12 57.5q-12 -15 -29.5 -30t-38.5 -27t-44.5 -19.5t-46.5 -7.5q-15 0 -39 11t-46.5 27t-39 34.5t-16.5 33.5q0 22 18.5 48t45 49t54.5 40.5t47 23.5l116 -85q-42 -17 -78.5 -44t-64.5 -65q6 -17 18.5 -28 t35.5 -13q16 0 31.5 7.5t29 19t25.5 26t20 28.5l34 24q2 21 4 42.5t2 43.5q0 24 -3 48q-17 8 -38.5 11.5t-46.5 3.5q-26 0 -53 -3t-52.5 -8.5t-48.5 -12.5t-40 -14l-41 196q10 5 30.5 11.5t47.5 12.5t57 10t59 4q55 0 87.5 -19.5t49.5 -51.5t21.5 -73.5t4.5 -86.5v-45 q0 -22 -1 -44zM51 575q31 33 74.5 62.5t85.5 45.5l119 -132l-36 -34l-61 69q-32 0 -121 -99z" unicode="" glyph-name="acircumflex"/>
<glyph horiz-adv-x="455" d="M411 174q1 -38 9.5 -72t34.5 -64l-102 -69q-20 19 -30 50.5t-12 57.5q-12 -15 -29.5 -30t-38.5 -27t-44.5 -19.5t-46.5 -7.5q-15 0 -39 11t-46.5 27t-39 34.5t-16.5 33.5q0 22 18.5 48t45 49t54.5 40.5t47 23.5l116 -85q-42 -17 -78.5 -44t-64.5 -65q6 -17 18.5 -28 t35.5 -13q16 0 31.5 7.5t29 19t25.5 26t20 28.5l34 24q2 21 4 42.5t2 43.5q0 24 -3 48q-17 8 -38.5 11.5t-46.5 3.5q-26 0 -53 -3t-52.5 -8.5t-48.5 -12.5t-40 -14l-41 196q10 5 30.5 11.5t47.5 12.5t57 10t59 4q55 0 87.5 -19.5t49.5 -51.5t21.5 -73.5t4.5 -86.5v-45 q0 -22 -1 -44zM170 513h-118l18 134h119zM328 513h-118l18 134h119z" unicode="" glyph-name="adieresis"/>
<glyph horiz-adv-x="455" d="M411 174q1 -38 9.5 -72t34.5 -64l-102 -69q-20 19 -30 50.5t-12 57.5q-12 -15 -29.5 -30t-38.5 -27t-44.5 -19.5t-46.5 -7.5q-15 0 -39 11t-46.5 27t-39 34.5t-16.5 33.5q0 22 18.5 48t45 49t54.5 40.5t47 23.5l116 -85q-42 -17 -78.5 -44t-64.5 -65q6 -17 18.5 -28 t35.5 -13q16 0 31.5 7.5t29 19t25.5 26t20 28.5l34 24q2 21 4 42.5t2 43.5q0 24 -3 48q-17 8 -38.5 11.5t-46.5 3.5q-26 0 -53 -3t-52.5 -8.5t-48.5 -12.5t-40 -14l-41 196q10 5 30.5 11.5t47.5 12.5t57 10t59 4q55 0 87.5 -19.5t49.5 -51.5t21.5 -73.5t4.5 -86.5v-45 q0 -22 -1 -44zM180 495q-27 18 -50.5 39.5t-41.5 42.5t-30 40.5t-17 32.5l103 5q7 -19 16.5 -36t24.5 -35t36.5 -38.5t52.5 -44.5z" unicode="" glyph-name="agrave"/>
<glyph horiz-adv-x="455" d="M411 174q1 -38 9.5 -72t34.5 -64l-102 -69q-20 19 -30 50.5t-12 57.5q-12 -15 -29.5 -30t-38.5 -27t-44.5 -19.5t-46.5 -7.5q-15 0 -39 11t-46.5 27t-39 34.5t-16.5 33.5q0 22 18.5 48t45 49t54.5 40.5t47 23.5l116 -85q-42 -17 -78.5 -44t-64.5 -65q6 -17 18.5 -28 t35.5 -13q16 0 31.5 7.5t29 19t25.5 26t20 28.5l34 24q2 21 4 42.5t2 43.5q0 24 -3 48q-17 8 -38.5 11.5t-46.5 3.5q-26 0 -53 -3t-52.5 -8.5t-48.5 -12.5t-40 -14l-41 196q10 5 30.5 11.5t47.5 12.5t57 10t59 4q55 0 87.5 -19.5t49.5 -51.5t21.5 -73.5t4.5 -86.5v-45 q0 -22 -1 -44zM56 569q1 22 15.5 35.5t34.5 21t41.5 10t37.5 2.5q19 0 43 -1.5t44.5 -7.5t34.5 -17.5t14 -30.5q0 -20 -13.5 -34.5t-32 -24t-39.5 -14.5t-36 -5q-21 0 -46 2t-46.5 9t-36.5 20t-15 35zM194 627q-27 -7 -42.5 -23.5t-15.5 -35.5q0 -15 11 -29t35 -23 q25 10 41.5 28t16.5 38q0 14 -10.5 26t-35.5 19z" unicode="" glyph-name="aring"/>
<glyph horiz-adv-x="455" d="M411 174q1 -38 9.5 -72t34.5 -64l-102 -69q-20 19 -30 50.5t-12 57.5q-12 -15 -29.5 -30t-38.5 -27t-44.5 -19.5t-46.5 -7.5q-15 0 -39 11t-46.5 27t-39 34.5t-16.5 33.5q0 22 18.5 48t45 49t54.5 40.5t47 23.5l116 -85q-42 -17 -78.5 -44t-64.5 -65q6 -17 18.5 -28 t35.5 -13q16 0 31.5 7.5t29 19t25.5 26t20 28.5l34 24q2 21 4 42.5t2 43.5q0 24 -3 48q-17 8 -38.5 11.5t-46.5 3.5q-26 0 -53 -3t-52.5 -8.5t-48.5 -12.5t-40 -14l-41 196q10 5 30.5 11.5t47.5 12.5t57 10t59 4q55 0 87.5 -19.5t49.5 -51.5t21.5 -73.5t4.5 -86.5v-45 q0 -22 -1 -44zM360 586q-27 -24 -65 -45t-74 -33l-45 61q-16 0 -41 -17.5t-66 -55.5l-44 77q28 25 66.5 46.5t73.5 31.5l45 -61q14 0 40 18t66 56z" unicode="" glyph-name="atilde"/>
<glyph horiz-adv-x="745" d="M786 71q-47 -36 -97 -59.5t-113 -23.5q-33 0 -61 6l-140 106q-13 -19 -32.5 -38t-46.5 -34.5t-63 -25t-81 -9.5q-15 0 -39 11t-46.5 27t-39 34.5t-16.5 33.5q0 22 18.5 48t45 49t54.5 40.5t47 23.5l116 -85q-42 -17 -78.5 -44t-64.5 -65q6 -17 18.5 -28t35.5 -13 q16 0 31.5 7.5t29 19t25.5 26t20 28.5l34 24q2 21 4 42.5t2 43.5q0 24 -3 48q-17 8 -38.5 11.5t-46.5 3.5q-26 0 -53 -3t-52.5 -8.5t-48.5 -12.5t-40 -14l-41 196q10 5 30.5 11.5t47.5 12.5t57 10t59 4q39 0 66 -9.5t45.5 -27t29 -41t15.5 -50.5q10 23 23.5 43.5t30.5 36 t39 24.5t48 9q15 0 34 -8t36.5 -21.5t29 -30t11.5 -34.5q0 -26 -8.5 -50t-23.5 -45.5t-34 -40.5t-40 -34l-65 45q57 48 81 90.5t24 80.5q-37 -11 -64.5 -34.5t-45.5 -55t-27 -69t-9 -76.5q0 -46 10 -82q24 0 48.5 4t50.5 13.5t55 26t62 40.5z" unicode="" glyph-name="ae"/>
<glyph horiz-adv-x="406" d="M459 71q-47 -36 -97 -59.5t-113 -23.5q-33 0 -61 6l-152 107q-8 17 -13 39q-5 19 -9 46t-4 62t13 72.5t39 68.5t65 51t91 20q19 0 37 -8t31.5 -22.5t21.5 -34t8 -42.5q0 -26 -11.5 -49t-29.5 -42.5t-40.5 -35.5t-45.5 -28l-59 53q63 41 92.5 79.5t34.5 76.5 q-38 -6 -70 -25.5t-55.5 -48t-37 -65t-13.5 -75.5q0 -22 5.5 -50.5t12.5 -47.5q24 0 48.5 4t50.5 13.5t55 26t62 40.5zM133 501q31 24 52.5 44.5t36.5 38.5t24.5 35t16.5 36l103 -5q-5 -13 -17 -32.5t-30 -40.5t-41.5 -42.5t-50.5 -39.5z" unicode="" glyph-name="eacute"/>
<glyph horiz-adv-x="406" d="M459 71q-47 -36 -97 -59.5t-113 -23.5q-33 0 -61 6l-152 107q-8 17 -13 39q-5 19 -9 46t-4 62t13 72.5t39 68.5t65 51t91 20q19 0 37 -8t31.5 -22.5t21.5 -34t8 -42.5q0 -26 -11.5 -49t-29.5 -42.5t-40.5 -35.5t-45.5 -28l-59 53q63 41 92.5 79.5t34.5 76.5 q-38 -6 -70 -25.5t-55.5 -48t-37 -65t-13.5 -75.5q0 -22 5.5 -50.5t12.5 -47.5q24 0 48.5 4t50.5 13.5t55 26t62 40.5zM27 575q31 33 74.5 62.5t85.5 45.5l119 -132l-36 -34l-61 69q-32 0 -121 -99z" unicode="" glyph-name="ecircumflex"/>
<glyph horiz-adv-x="406" d="M459 71q-47 -36 -97 -59.5t-113 -23.5q-33 0 -61 6l-152 107q-8 17 -13 39q-5 19 -9 46t-4 62t13 72.5t39 68.5t65 51t91 20q19 0 37 -8t31.5 -22.5t21.5 -34t8 -42.5q0 -26 -11.5 -49t-29.5 -42.5t-40.5 -35.5t-45.5 -28l-59 53q63 41 92.5 79.5t34.5 76.5 q-38 -6 -70 -25.5t-55.5 -48t-37 -65t-13.5 -75.5q0 -22 5.5 -50.5t12.5 -47.5q24 0 48.5 4t50.5 13.5t55 26t62 40.5zM168 513h-118l18 134h119zM326 513h-118l18 134h119z" unicode="" glyph-name="edieresis"/>
<glyph horiz-adv-x="406" d="M459 71q-47 -36 -97 -59.5t-113 -23.5q-33 0 -61 6l-152 107q-8 17 -13 39q-5 19 -9 46t-4 62t13 72.5t39 68.5t65 51t91 20q19 0 37 -8t31.5 -22.5t21.5 -34t8 -42.5q0 -26 -11.5 -49t-29.5 -42.5t-40.5 -35.5t-45.5 -28l-59 53q63 41 92.5 79.5t34.5 76.5 q-38 -6 -70 -25.5t-55.5 -48t-37 -65t-13.5 -75.5q0 -22 5.5 -50.5t12.5 -47.5q24 0 48.5 4t50.5 13.5t55 26t62 40.5zM149 495q-27 18 -50.5 39.5t-41.5 42.5t-30 40.5t-17 32.5l103 5q7 -19 16.5 -36t24.5 -35t36.5 -38.5t52.5 -44.5z" unicode="" glyph-name="egrave"/>
<glyph horiz-adv-x="218" d="M156 452q13 -63 17 -127.5t4 -134.5q0 -72 -5 -117.5t-16 -83.5l-99 11q14 52 17.5 107.5t3.5 116.5q0 20 -1 35t-2 26q-2 12 -3 23l-60 14l34 144z" unicode="" glyph-name="dotlessi"/>
<glyph horiz-adv-x="460" d="M452 491l-33 -112q9 -33 16 -67q6 -30 11 -66.5t5 -74.5q0 -53 -16.5 -86.5t-49.5 -52.5t-83.5 -25.5t-118.5 -6.5q-23 0 -45.5 1.5t-36.5 9.5q-20 10 -33 32.5t-21 50t-11.5 57.5t-3.5 56q0 30 4.5 63t13 66t20.5 63t27 53h177zM374 150q0 49 -10 93.5t-23.5 81 t-28.5 64.5t-25 44q-27 -52 -41 -112t-14 -118q0 -11 2 -35t9 -51.5t20 -53t35 -38.5q18 1 32.5 12.5t24 29.5t14.5 39.5t5 43.5zM166 501q31 24 52.5 44.5t36.5 38.5t24.5 35t16.5 36l103 -5q-5 -13 -17 -32.5t-30 -40.5t-41.5 -42.5t-50.5 -39.5z" unicode="" glyph-name="oacute"/>
<glyph horiz-adv-x="460" d="M452 491l-33 -112q9 -33 16 -67q6 -30 11 -66.5t5 -74.5q0 -53 -16.5 -86.5t-49.5 -52.5t-83.5 -25.5t-118.5 -6.5q-23 0 -45.5 1.5t-36.5 9.5q-20 10 -33 32.5t-21 50t-11.5 57.5t-3.5 56q0 30 4.5 63t13 66t20.5 63t27 53h177zM374 150q0 49 -10 93.5t-23.5 81 t-28.5 64.5t-25 44q-27 -52 -41 -112t-14 -118q0 -11 2 -35t9 -51.5t20 -53t35 -38.5q18 1 32.5 12.5t24 29.5t14.5 39.5t5 43.5zM107 575q31 33 74.5 62.5t85.5 45.5l119 -132l-36 -34l-61 69q-32 0 -121 -99z" unicode="" glyph-name="ocircumflex"/>
<glyph horiz-adv-x="460" d="M452 491l-33 -112q9 -33 16 -67q6 -30 11 -66.5t5 -74.5q0 -53 -16.5 -86.5t-49.5 -52.5t-83.5 -25.5t-118.5 -6.5q-23 0 -45.5 1.5t-36.5 9.5q-20 10 -33 32.5t-21 50t-11.5 57.5t-3.5 56q0 30 4.5 63t13 66t20.5 63t27 53h177zM374 150q0 49 -10 93.5t-23.5 81 t-28.5 64.5t-25 44q-27 -52 -41 -112t-14 -118q0 -11 2 -35t9 -51.5t20 -53t35 -38.5q18 1 32.5 12.5t24 29.5t14.5 39.5t5 43.5zM226 513h-118l18 134h119zM384 513h-118l18 134h119z" unicode="" glyph-name="odieresis"/>
<glyph horiz-adv-x="460" d="M452 491l-33 -112q9 -33 16 -67q6 -30 11 -66.5t5 -74.5q0 -53 -16.5 -86.5t-49.5 -52.5t-83.5 -25.5t-118.5 -6.5q-23 0 -45.5 1.5t-36.5 9.5q-20 10 -33 32.5t-21 50t-11.5 57.5t-3.5 56q0 30 4.5 63t13 66t20.5 63t27 53h177zM374 150q0 49 -10 93.5t-23.5 81 t-28.5 64.5t-25 44q-27 -52 -41 -112t-14 -118q0 -11 2 -35t9 -51.5t20 -53t35 -38.5q18 1 32.5 12.5t24 29.5t14.5 39.5t5 43.5zM223 495q-27 18 -50.5 39.5t-41.5 42.5t-30 40.5t-17 32.5l103 5q7 -19 16.5 -36t24.5 -35t36.5 -38.5t52.5 -44.5z" unicode="" glyph-name="ograve"/>
<glyph horiz-adv-x="460" d="M452 491l-33 -112q9 -33 16 -67q6 -30 11 -66.5t5 -74.5q0 -53 -16.5 -86.5t-49.5 -52.5t-83.5 -25.5t-118.5 -6.5q-23 0 -45.5 1.5t-36.5 9.5q-20 10 -33 32.5t-21 50t-11.5 57.5t-3.5 56q0 30 4.5 63t13 66t20.5 63t27 53h177zM374 150q0 49 -10 93.5t-23.5 81 t-28.5 64.5t-25 44q-27 -52 -41 -112t-14 -118q0 -11 2 -35t9 -51.5t20 -53t35 -38.5q18 1 32.5 12.5t24 29.5t14.5 39.5t5 43.5zM422 586q-27 -24 -65 -45t-74 -33l-45 61q-16 0 -41 -17.5t-66 -55.5l-44 77q28 25 66.5 46.5t73.5 31.5l45 -61q14 0 40 18t66 56z" unicode="" glyph-name="otilde"/>
<glyph horiz-adv-x="759" d="M821 71q-47 -36 -97 -59.5t-113 -23.5q-33 0 -61 6l-116 88q-13 -25 -34.5 -41t-53 -25t-72 -12.5t-91.5 -3.5q-23 0 -45.5 1.5t-36.5 9.5q-20 10 -33 32.5t-21 50t-11.5 57.5t-3.5 56q0 30 4.5 62t13 63t20.5 60t27 52q25 5 51 6.5t52 1.5q24 0 48.5 -1.5t48.5 -6.5 q41 0 84 8.5t71 38.5v-79q20 22 44 35t56 13q15 0 34 -8t36.5 -21.5t29 -30t11.5 -34.5q0 -26 -8.5 -50t-23.5 -45.5t-34 -40.5t-40 -34l-65 45q57 48 81 90.5t24 80.5q-37 -11 -64.5 -34.5t-45.5 -55t-27 -69t-9 -76.5q0 -29 2.5 -47.5t7.5 -34.5q24 0 48.5 4t50.5 13.5 t55 26t62 40.5zM374 150q0 61 -11.5 113.5t-25.5 91.5t-26.5 62t-14.5 26q-31 -54 -47.5 -115.5t-16.5 -124.5q0 -11 2 -35t9 -51.5t20 -53t35 -38.5q18 1 32.5 12.5t24 29.5t14.5 39.5t5 43.5z" unicode="" glyph-name="oe"/>
<glyph horiz-adv-x="526" d="M494 424q-10 -42 -17 -103t-7 -128q0 -63 11 -113t69 -80h-172q-39 0 -63 24t-35 63q-20 -40 -39 -63.5t-28 -27.5q-5 -2 -27 -2q-81 2 -124 47.5t-43 130.5q0 64 15.5 126.5t39.5 131.5q40 5 80 0q30 -22 58 -62q-42 -5 -79 -1q-34 -103 -34 -195q0 -48 13 -87.5 t47 -62.5q31 40 54 88t39 100t26 106t16 108h200zM194 501q31 24 52.5 44.5t36.5 38.5t24.5 35t16.5 36l103 -5q-5 -13 -17 -32.5t-30 -40.5t-41.5 -42.5t-50.5 -39.5z" unicode="" glyph-name="uacute"/>
<glyph horiz-adv-x="526" d="M494 424q-10 -42 -17 -103t-7 -128q0 -63 11 -113t69 -80h-172q-39 0 -63 24t-35 63q-20 -40 -39 -63.5t-28 -27.5q-5 -2 -27 -2q-81 2 -124 47.5t-43 130.5q0 64 15.5 126.5t39.5 131.5q40 5 80 0q30 -22 58 -62q-42 -5 -79 -1q-34 -103 -34 -195q0 -48 13 -87.5 t47 -62.5q31 40 54 88t39 100t26 106t16 108h200zM110 575q31 33 74.5 62.5t85.5 45.5l119 -132l-36 -34l-61 69q-32 0 -121 -99z" unicode="" glyph-name="ucircumflex"/>
<glyph horiz-adv-x="526" d="M494 424q-10 -42 -17 -103t-7 -128q0 -63 11 -113t69 -80h-172q-39 0 -63 24t-35 63q-20 -40 -39 -63.5t-28 -27.5q-5 -2 -27 -2q-81 2 -124 47.5t-43 130.5q0 64 15.5 126.5t39.5 131.5q40 5 80 0q30 -22 58 -62q-42 -5 -79 -1q-34 -103 -34 -195q0 -48 13 -87.5 t47 -62.5q31 40 54 88t39 100t26 106t16 108h200zM265 513h-118l18 134h119zM423 513h-118l18 134h119z" unicode="" glyph-name="udieresis"/>
<glyph horiz-adv-x="526" d="M494 424q-10 -42 -17 -103t-7 -128q0 -63 11 -113t69 -80h-172q-39 0 -63 24t-35 63q-20 -40 -39 -63.5t-28 -27.5q-5 -2 -27 -2q-81 2 -124 47.5t-43 130.5q0 64 15.5 126.5t39.5 131.5q40 5 80 0q30 -22 58 -62q-42 -5 -79 -1q-34 -103 -34 -195q0 -48 13 -87.5 t47 -62.5q31 40 54 88t39 100t26 106t16 108h200zM253 495q-27 18 -50.5 39.5t-41.5 42.5t-30 40.5t-17 32.5l103 5q7 -19 16.5 -36t24.5 -35t36.5 -38.5t52.5 -44.5z" unicode="" glyph-name="ugrave"/>
<glyph horiz-adv-x="470" d="M276 -139q-7 15 -19 26q-11 10 -29.5 18t-47.5 8v71q-52 1 -83.5 20t-49 48t-23.5 63t-6 64q0 36 17.5 87t47 98t68.5 80t83 33l149 -45q23 -11 32 -38t9 -56q0 -20 -3 -37.5t-9 -31.5l-171 53q3 8 6 18l4 18q3 10 3 21q0 5 -0.5 9t-1.5 9q-39 -11 -76 -41t-65.5 -70.5 t-46 -86t-17.5 -86.5q1 -12 12 -21q9 -8 29 -14t58 -6q49 13 95.5 46.5t80.5 79.5l166 -68q-44 -50 -99.5 -86t-123.5 -51q24 -8 43 -25t19 -43q0 -36 -16.5 -68.5t-42.5 -56.5t-59 -38.5t-66 -14.5l45 89q44 1 88 25z" unicode="" glyph-name="ccedilla"/>
<glyph horiz-adv-x="473" d="M266 -5q-14 27 -25 63q-10 31 -17.5 75t-7.5 101q0 41 3 70q2 17 4 31q-8 -14 -20.5 -41t-26.5 -60.5t-28 -70.5t-25.5 -70.5t-18.5 -61t-7 -41.5q-5 0 -13.5 9.5t-16 22.5t-13 26.5t-5.5 22.5v186l-42 65l54 163q13 -11 24 -24q9 -11 17 -25.5t8 -30.5v-181 q17 55 35.5 108.5t52.5 101.5l246 27q-14 -51 -21.5 -104t-7.5 -107q0 -62 12 -121.5t38 -114.5zM416 586q-27 -24 -65 -45t-74 -33l-45 61q-16 0 -41 -17.5t-66 -55.5l-44 77q28 25 66.5 46.5t73.5 31.5l45 -61q14 0 40 18t66 56z" unicode="" glyph-name="ntilde"/>
<glyph horiz-adv-x="429" d="M301 437q27 -19 50.5 -45t41 -56.5t28 -64.5t10.5 -69q0 -60 -29.5 -112t-77.5 -90h-170q-14 0 -38 11.5t-47 30t-40 42.5t-17 49q0 14 9.5 27.5t23.5 13.5q3 0 14 -6.5t23 -14t21.5 -14.5t8.5 -8q-14 -6 -23 -16.5t-9 -26.5q0 -11 2 -19t4 -13q3 -6 6 -9q7 -2 15 -4 q13 -3 37 -3h9q5 0 8 1q4 0 7 1q20 17 37 41q14 20 26 50t12 68q0 37 -13 70t-29 58q-18 29 -42 53q-1 -9 -5.5 -27t-12.5 -36.5t-18.5 -32t-22.5 -13.5l-56 57q27 18 41 46.5t17 60.5h199zM122 683q89 -99 121 -99l61 69l36 -34l-119 -132q-42 16 -85.5 45.5t-74.5 62.5z " unicode="" glyph-name="scaron"/>
<glyph horiz-adv-x="457" d="M349 135q1 1 1 4v5q0 3 1 8l-191 -68q-46 0 -74.5 33.5t-44 86.5t-20.5 118.5t-5 129.5h196q0 -24 0.5 -54.5t3 -62t7.5 -61.5t15 -54.5t25.5 -41t37.5 -19.5l52 19q2 23 4.5 55.5t4.5 71t3.5 81.5t1.5 87l73 -30q-5 -119 -11 -208t-13.5 -156t-16 -115.5t-18.5 -87.5 t-22 -71.5t-25 -66.5q-72 0 -130 17.5t-100 39.5q-49 26 -87 58v155q42 -33 90 -59q41 -22 91 -40t104 -18q9 35 18 75q8 34 15.5 77.5t13.5 91.5zM176 501q31 24 52.5 44.5t36.5 38.5t24.5 35t16.5 36l103 -5q-5 -13 -17 -32.5t-30 -40.5t-41.5 -42.5t-50.5 -39.5z" unicode="" glyph-name="yacute"/>
<glyph horiz-adv-x="457" d="M349 135q1 1 1 4v5q0 3 1 8l-191 -68q-46 0 -74.5 33.5t-44 86.5t-20.5 118.5t-5 129.5h196q0 -24 0.5 -54.5t3 -62t7.5 -61.5t15 -54.5t25.5 -41t37.5 -19.5l52 19q2 23 4.5 55.5t4.5 71t3.5 81.5t1.5 87l73 -30q-5 -119 -11 -208t-13.5 -156t-16 -115.5t-18.5 -87.5 t-22 -71.5t-25 -66.5q-72 0 -130 17.5t-100 39.5q-49 26 -87 58v155q42 -33 90 -59q41 -22 91 -40t104 -18q9 35 18 75q8 34 15.5 77.5t13.5 91.5zM223 513h-118l18 134h119zM381 513h-118l18 134h119z" unicode="" glyph-name="ydieresis"/>
<glyph horiz-adv-x="495" d="M502 2q-13 -11 -31 -20q-16 -8 -40.5 -13.5t-59.5 -5.5q-26 0 -51.5 8t-51 18t-51.5 18t-53 8q-35 0 -63 -13.5t-43 -51.5l-39 182q0 15 10.5 27t26 21t34 13.5t33.5 4.5q28 0 54 -6q42 20 83.5 43.5t77.5 52.5q-7 1 -14 3q-6 2 -14 3t-17 1q-21 0 -42.5 -4t-43 -9 t-43 -9t-42.5 -4q-12 0 -23.5 3t-17.5 11q-14 17 -22 39.5t-13 47t-6.5 48.5t-1.5 43q8 -4 17 -8q17 -7 36 -7q22 0 48 4.5t55 10.5t61.5 10.5t67.5 4.5q25 0 47.5 -5.5t33.5 -13.5q2 -1 8 -16t13 -40.5t15 -60.5t14 -77q-8 7 -16 12t-16.5 8.5t-18.5 3.5q-14 -15 -34 -30 t-42.5 -29.5t-44.5 -27t-41 -21.5q14 -10 30 -17q14 -6 30 -11t32 -5q38 0 63 5.5t40 13.5q18 8 27 19zM142 683q89 -99 121 -99l61 69l36 -34l-119 -132q-42 16 -85.5 45.5t-74.5 62.5z" unicode="" glyph-name="zcaron"/>
<glyph horiz-adv-x="840" d="M225 0h-188l24 173h188zM505 0h-188l24 173h188zM785 0h-188l24 173h188z" unicode="" glyph-name="ellipsis"/>
<glyph horiz-adv-x="956" d="M225 561q-10 0 -21.5 1t-20.5 7l318 118q72 -26 146 -40t149 -22l86 73l31 -62l-95 -97q-13 -8 -28 -14q-13 -5 -31 -9.5t-39 -4.5q-26 0 -53 2.5t-52.5 6.5t-46.5 8t-34 7q4 -25 5.5 -49.5t1.5 -49.5q0 -17 -0.5 -34t-2.5 -34q22 10 46 20.5t48 18.5t45.5 13.5t38.5 5.5 q9 0 23.5 -6t22.5 -13l-231 -102q-5 -33 -9 -56.5t-9 -56.5q22 8 55.5 17t72.5 16.5t81 12.5t81 5q26 0 51 -2.5t46 -9.5t36 -20t20 -34l38 -225q0 -13 -8.5 -22.5t-21 -16t-26.5 -10t-24 -3.5l-24 133q-24 3 -52 3q-69 0 -134 -12t-144 -42q-40 48 -72.5 101.5t-58.5 107.5 q-47 -16 -95.5 -26.5t-97.5 -16.5q-6 -15 -18 -40.5t-27.5 -51t-34 -44t-37.5 -18.5q-15 0 -34.5 3t-37.5 10.5t-30 20.5t-12 33q0 6 2.5 17t7.5 22.5t11.5 20t15.5 8.5q7 0 19.5 -2.5t25 -6.5t23.5 -7.5t15 -5.5q28 51 50 106.5t39 114t31.5 118.5t28.5 120q-7 -2 -15 -3 q-7 -1 -16 -1.5t-18 -0.5zM250 180q45 12 84 25.5t75 30.5q-26 62 -47.5 125.5t-35.5 129.5q-11 -80 -29 -158t-47 -153z" unicode="" glyph-name="AE"/>
<glyph horiz-adv-x="624" d="M353 -139q-7 15 -19 26q-11 10 -29.5 18t-47.5 8v60q-5 -1 -9 -1h-8q-41 0 -79.5 15t-68.5 43t-48 69t-18 93q0 64 20.5 123t55.5 110.5t81 95.5t97 79q-1 5 -1 9v18q0 21 3.5 38.5t8.5 30.5q5 15 12 27l206 -25q-7 -12 -11 -27q-5 -13 -8 -30.5t-3 -37.5q0 -36 9.5 -66 t21.5 -52q13 -26 31 -47l-208 25q-23 26 -37.5 57t-21.5 65q-33 -29 -62 -64.5t-50.5 -75t-33.5 -82.5t-12 -86q0 -27 2 -44t5 -28q3 -12 7 -18q31 -9 66 -9q49 0 101 16t101 40.5t92.5 55t76.5 60.5l36 -207q-55 -48 -121 -89.5t-139 -63.5q22 -9 37.5 -25.5t15.5 -39.5 q0 -36 -16.5 -68.5t-42.5 -56.5t-59 -38.5t-66 -14.5l45 89q44 1 88 25z" unicode="" glyph-name="Ccedilla"/>
<glyph horiz-adv-x="973" d="M530 206q22 8 55.5 17t72.5 16.5t81 12.5t81 5q26 0 51 -2.5t46 -9.5t36 -20t20 -34l38 -225q0 -13 -8.5 -22.5t-21 -16t-26.5 -10t-24 -3.5l-24 133q-24 3 -52 3q-46 0 -88 -4.5t-83.5 -13t-83 -21.5t-86.5 -31q-8 -3 -18 -6t-19 -3q-14 0 -24 10q-5 5 -11 20 q-20 -11 -43 -17.5t-48 -6.5q-11 0 -23.5 2.5t-34 10.5t-55 24.5t-85.5 45.5q-28 15 -49.5 30.5t-37.5 34.5t-26 43.5t-14 57.5q0 47 8.5 89t22.5 78.5t32 67.5t37 57q44 60 100 104l54 -15q-43 -60 -76 -124q-29 -55 -52 -121.5t-23 -131.5q0 -42 14.5 -81.5t44.5 -68.5 q44 6 79.5 30.5t62 61.5t45.5 83t31.5 94t18 95t5.5 87l-144 82l56 65q16 -5 32.5 -10.5t36.5 -14.5t41 -20l66 68q72 -26 146 -40t149 -22l57 59q4 3 8 7q4 2 9.5 4.5t11.5 2.5q17 0 30 -8.5t13 -26.5q0 -14 -12 -27l-95 -97q-13 -8 -28 -14q-13 -5 -31 -9.5t-39 -4.5 q-26 0 -53 2.5t-52.5 6.5t-46.5 8t-34 7q4 -25 5.5 -49.5t1.5 -49.5q0 -17 -0.5 -34t-2.5 -34l10 5q18 8 40 17t45 17t44.5 13.5t38.5 5.5q9 0 23.5 -3t22.5 -10q-65 -31 -103.5 -49.5t-59.5 -28t-28.5 -12.5t-10.5 -3q-7 0 -13.5 1t-12.5 3q-5 -33 -10.5 -66t-10.5 -66z " unicode="" glyph-name="OE"/>
<glyph horiz-adv-x="635" d="M-8 -36l87 147q-22 21 -35 48t-18 67q0 47 8.5 89t22.5 78.5t32 67.5t37 57q44 60 100 104l54 -15q-43 -60 -76 -124q-29 -55 -52 -121.5t-23 -131.5v-16q0 -7 2 -15l222 376l-67 38l56 65q7 -2 17 -5q8 -2 18.5 -6.5t24.5 -9.5l37 63h106l-64 -104q25 -16 49 -37 t42.5 -47.5t30 -58.5t11.5 -71q0 -42 -7 -89.5t-21 -95t-35.5 -91t-50.5 -76.5t-66.5 -53t-82.5 -20q-11 0 -23.5 2.5t-34 10.5t-55 24.5t-85.5 45.5l-10 5l-38 -61zM167 104q9 -14 21 -24q44 6 79 30.5t62 61.5t46 83t31 94t17.5 95t5.5 87z" unicode="" glyph-name="Oslash"/>
<glyph horiz-adv-x="460" d="M53 -98l61 103l-13 6q-20 10 -33 32.5t-21 50t-11.5 57.5t-3.5 56q0 30 4.5 63t13 66t20.5 63t27 53h200l-4 -8l97 28l23 38h85l-79 -131q9 -33 16 -67q6 -30 11 -66.5t5 -74.5q0 -53 -16.5 -86.5t-49.5 -52.5t-83 -25.5t-118 -6.5l-40 -66zM374 150q0 37 -4 70.5 t-11 63.5l-112 -183q7 -24 19 -44.5t32 -31.5q18 1 32.5 12.5t24 29.5t14.5 39.5t5 43.5zM332 373q-12 30 -25 48q-12 17 -15 21q-29 -53 -44.5 -115.5t-15.5 -122.5z" unicode="" glyph-name="oslash"/>
<glyph horiz-adv-x="606" d="M370 476q29 -23 65 -55t67.5 -68.5t53.5 -76t24 -78.5l-216 -183l-47 55l128 124q-2 25 -22.5 55t-48 58.5t-56.5 52t-48 37.5zM112 476q29 -23 65 -55t67.5 -68.5t53.5 -76t24 -78.5l-216 -183l-47 55l128 124q-2 25 -22.5 55t-48 58.5t-56.5 52t-48 37.5z" unicode="" glyph-name="guillemotright"/>
<glyph horiz-adv-x="355" d="M112 476q29 -23 65 -55t67.5 -68.5t53.5 -76t24 -78.5l-216 -183l-47 55l128 124q-2 25 -22.5 55t-48 58.5t-56.5 52t-48 37.5z" unicode="" glyph-name="guilsinglright"/>
<glyph horiz-adv-x="218" d="M156 452q13 -63 17 -127.5t4 -134.5q0 -72 -5 -117.5t-16 -83.5l-99 11q14 52 17.5 107.5t3.5 116.5q0 20 -1 35t-2 26q-2 12 -3 23l-60 14l34 144zM48 501q31 24 52.5 44.5t36.5 38.5t24.5 35t16.5 36l103 -5q-5 -13 -17 -32.5t-30 -40.5t-41.5 -42.5t-50.5 -39.5z" unicode="" glyph-name="iacute"/>
<glyph horiz-adv-x="218" d="M156 452q13 -63 17 -127.5t4 -134.5q0 -72 -5 -117.5t-16 -83.5l-99 11q14 52 17.5 107.5t3.5 116.5q0 20 -1 35t-2 26q-2 12 -3 23l-60 14l34 144zM-46 575q31 33 74.5 62.5t85.5 45.5l119 -132l-36 -34l-61 69q-32 0 -121 -99z" unicode="" glyph-name="icircumflex"/>
<glyph horiz-adv-x="218" d="M156 452q13 -63 17 -127.5t4 -134.5q0 -72 -5 -117.5t-16 -83.5l-99 11q14 52 17.5 107.5t3.5 116.5q0 20 -1 35t-2 26q-2 12 -3 23l-60 14l34 144zM80 513h-118l18 134h119zM238 513h-118l18 134h119z" unicode="" glyph-name="idieresis"/>
<glyph horiz-adv-x="218" d="M156 452q13 -63 17 -127.5t4 -134.5q0 -72 -5 -117.5t-16 -83.5l-99 11q14 52 17.5 107.5t3.5 116.5q0 20 -1 35t-2 26q-2 12 -3 23l-60 14l34 144zM56 495q-27 18 -50.5 39.5t-41.5 42.5t-30 40.5t-17 32.5l103 5q7 -19 16.5 -36t24.5 -35t36.5 -38.5t52.5 -44.5z" unicode="" glyph-name="igrave"/>
<glyph horiz-adv-x="760" d="M744 287q-15 -4 -31 -7q-14 -3 -30 -5t-31 -2q-30 -38 -71 -72.5t-77 -56.5q22 -31 46.5 -61.5t53.5 -55.5q17 13 24 37.5t7 44.5q0 9 -0.5 18.5t-1.5 17.5l-2 18l78 -22q6 -8 8 -25t2 -27q0 -13 -3 -29t-9.5 -30t-18 -23.5t-28.5 -9.5q-30 0 -58.5 10t-54 27t-48 38.5 t-42.5 45.5q-27 -14 -74 -37t-99 -46t-101.5 -39.5t-80.5 -16.5q-29 0 -48.5 13.5t-31.5 35t-17 48t-5 52.5q0 22 2.5 51t9 58t16.5 55.5t25 45.5l236 90q-11 -15 -21 -38t-17.5 -50.5t-11.5 -57.5t-4 -60q0 -45 11.5 -83t39.5 -56q37 16 72 35.5t67 42.5q-15 22 -32.5 54 t-35.5 70t-34.5 79.5t-29.5 82t-21 77t-8 65.5q0 50 32.5 78t83.5 28q35 0 64 -7.5t50 -26t33 -50t12 -79.5l-103 29v107q-51 -8 -69.5 -37t-18.5 -67q0 -36 12 -86t30.5 -102.5t40 -100.5t40.5 -80q8 6 19 16t22 22t20 25t14 25q-18 3 -35.5 8t-34.5 10l25 173 q42 -14 81 -21t79 -7q26 0 52.5 3.5t54.5 10.5z" unicode="&amp;" glyph-name="ampersand"/>
<glyph horiz-adv-x="324" d="M241 843q-25 -40 -44 -98q-17 -50 -30.5 -126t-13.5 -179q0 -94 14.5 -173.5t32.5 -139.5q21 -70 48 -127h-135q-31 56 -56 126q-21 60 -38.5 140t-17.5 174q0 101 16 178.5t36 131.5q23 62 53 109z" unicode="(" glyph-name="parenleft"/>
<glyph horiz-adv-x="324" d="M203 859q29 -47 52 -109q20 -54 36.5 -131.5t16.5 -178.5q0 -94 -17.5 -174t-38.5 -140q-25 -70 -56 -126h-135q26 57 47 127q18 60 33 139.5t15 173.5q0 103 -13.5 179t-30.5 126q-19 58 -44 98z" unicode=")" glyph-name="parenright"/>
<glyph horiz-adv-x="354" d="M194 672q17 8 30.5 12.5t28.5 4.5q14 0 30.5 -4t40.5 -15q-5 -1 -9 -2t-9 -3q-28 -11 -52 -25.5t-48 -33.5q29 -17 56 -41.5t48 -50.5l-48 -36q-18 23 -35.5 40.5t-41.5 34.5q-3 -8 -3 -25q0 -19 3.5 -40t11.5 -31l-88 23l-6 24q-8 -12 -13.5 -23t-10.5 -25l-79 21 q0 13 10.5 30.5t25 35t29 32.5t22.5 22q-9 1 -20.5 4.5t-23.5 7.5t-22.5 9.5t-16.5 11.5l48 36q15 -11 30 -16.5t35 -11.5q1 8 4 20.5t7.5 25.5t11.5 22.5t16 11.5l36 -11q1 -5 1.5 -17.5t0.5 -17.5z" unicode="*" glyph-name="asterisk"/>
<glyph horiz-adv-x="337" d="M-68 0q3 41 9 83.5t14 81.5q22 13 49 27t56.5 25.5t60 19t60.5 7.5q34 0 61.5 -12.5t46.5 -33.5t29.5 -49t10.5 -59q0 -25 -3.5 -62.5t-10 -77.5t-14.5 -77.5t-17 -61.5q-27 -74 -77.5 -132.5t-114.5 -102t-137 -73t-146 -44.5l38 176q67 14 135 41.5t128.5 68.5 t109.5 95t79 121q-11 51 -51 80.5t-94 29.5q-27 0 -54.5 -6.5t-54.5 -16.5t-52 -22.5t-47 -25.5h-14z" unicode="|" glyph-name="bar"/>
<glyph horiz-adv-x="470" d="M189 -137v121h-5q-53 0 -85.5 19t-50.5 48t-24 63t-6 65t13 74t36 85.5t54.5 77.5t67.5 51v86l79 43v-130l115 -34q23 -11 32 -38t9 -56q0 -20 -3 -37.5t-9 -31.5l-144 44v-174q15 14 28.5 28t25.5 31l166 -68q-43 -49 -98.5 -85t-121.5 -51v-88zM146 72q11 2 21.5 6 t21.5 9v279q-30 -21 -55.5 -50.5t-45 -64t-30.5 -70t-11 -68.5q1 -12 12 -21q9 -8 29 -14t58 -6z" unicode="" glyph-name="cent"/>
<glyph horiz-adv-x="624" d="M33 -38l444 657q-55 -28 -115 -45.5t-104 -17.5q6 -26 10 -51.5t4 -58.5q0 -22 -4 -46.5t-15 -45t-30 -34t-48 -13.5q-34 0 -62 15t-48.5 39.5t-31.5 56t-11 65.5q0 54 18.5 106t55.5 94l89 -82q-20 -23 -32.5 -59.5t-12.5 -65.5q0 -8 1 -18t4 -19t8.5 -15t15.5 -6 q5 0 10.5 5t10 18t7.5 34t3 53q0 39 -6 98q24 -5 50 -7.5t52 -2.5q52 0 104.5 9.5t99.5 28.5l30 43h79l-491 -716zM536 234q27 -23 41 -55t14 -64v-10q-2 -18 -9 -36.5t-19 -33.5t-30 -25t-42 -10q-33 0 -59 14.5t-45 37.5t-29 51.5t-10 55.5q0 48 21.5 94t53.5 83l108 -73 q-9 -11 -19 -26t-19 -31.5t-14.5 -33.5t-5.5 -32q0 -2 1 -10t3.5 -16.5t8 -15t14.5 -6.5q13 0 21.5 11t13.5 26t7.5 29.5t2.5 21.5q0 14 -2 27.5t-7 26.5z" unicode="%" glyph-name="percent"/>
<glyph horiz-adv-x="859" d="M28 -38l444 657q-55 -28 -115 -45.5t-104 -17.5q6 -26 10 -51.5t4 -58.5q0 -22 -4 -46.5t-15 -45t-30 -34t-48 -13.5q-34 0 -62 15t-48.5 39.5t-31.5 56t-11 65.5q0 54 18.5 106t55.5 94l89 -82q-20 -23 -32.5 -59.5t-12.5 -65.5q0 -8 1 -18t4 -19t8.5 -15t15.5 -6 q5 0 10.5 5t10 18t7.5 34t3 53q0 39 -6 98q24 -5 50 -7.5t52 -2.5q52 0 104.5 9.5t99.5 28.5l30 43h79l-491 -716zM531 234q27 -23 41 -55t14 -64v-10q-2 -18 -9 -36.5t-19 -33.5t-30 -25t-42 -10q-33 0 -59 14.5t-45 37.5t-29 51.5t-10 55.5q0 48 21.5 94t53.5 83l108 -73 q-9 -11 -19 -26t-19 -31.5t-14.5 -33.5t-5.5 -32q0 -2 1 -10t3.5 -16.5t8 -15t14.5 -6.5q13 0 21.5 11t13.5 26t7.5 29.5t2.5 21.5q0 14 -2 27.5t-7 26.5zM778 234q27 -23 41 -55t14 -64v-10q-2 -18 -9 -36.5t-19 -33.5t-30 -25t-42 -10q-33 0 -59 14.5t-45 37.5t-29 51.5 t-10 55.5q0 48 21.5 94t53.5 83l108 -73q-9 -11 -19 -26t-19 -31.5t-14.5 -33.5t-5.5 -32q0 -2 1 -10t3.5 -16.5t8 -15t14.5 -6.5q13 0 21.5 11t13.5 26t7.5 29.5t2.5 21.5q0 14 -2 27.5t-7 26.5z" unicode="" glyph-name="perthousand"/>
<glyph horiz-adv-x="204" d="M-203 -38l497 735h79l-491 -716z" unicode="" glyph-name="fraction"/>
<glyph horiz-adv-x="206" d="M55 392v278l91 43v-278zM55 -25v278l91 43v-278z" unicode="" glyph-name="brokenbar"/>
<glyph horiz-adv-x="206" d="M55 476v194l91 43v-194z" unicode="&apos;" glyph-name="quotesingle"/>
<glyph horiz-adv-x="602" d="M255 -104v105q-18 -1 -34 -1h-27q-25 0 -51 3t-48 7q-26 4 -49 10l-21 299l57 7l28 -130q37 0 73.5 0.5t71.5 2.5v198q-24 3 -47 4t-46 1l-41 190q29 20 62.5 35.5t71.5 27.5v99l91 43v-118q47 9 93.5 13.5t91.5 4.5l48 -231l-67 -13l-11 48q-103 -4 -216 -42 q48 -5 90.5 -24.5t78 -50t62 -71.5t41.5 -88q3 -10 6 -22q2 -11 4 -24.5t2 -30.5q0 -34 -20 -58t-51.5 -40t-71.5 -26t-80 -15v-70zM511 293q-35 33 -77 54.5t-88 33.5v-169q46 10 87.5 29t77.5 52z" unicode="$" glyph-name="dollar"/>
<glyph horiz-adv-x="356" d="M55 476v194l91 43v-194zM206 476v194l91 43v-194z" unicode='&quot;' glyph-name="quotedbl"/>
<glyph horiz-adv-x="312" d="M163 231.028l132 467.972l-266 28.998l104 -493.97zM230 173.032h-188l24 -172.989h188z" unicode="!" glyph-name="exclam"/>
<glyph horiz-adv-x="438" d="M418 491l-236 -191l189 -124l-47 -55l-312 181l306 268z" unicode="&lt;" glyph-name="less"/>
<glyph horiz-adv-x="428" d="M73 235l183 101l-233 216l47 55l348 -274l-247 -178z" unicode="&gt;" glyph-name="greater"/>
<glyph horiz-adv-x="588" d="M152 227q0 -29 0.5 -45.5t2.5 -24.5q2 -10 4 -13q17 -5 31 -6.5t31 -1.5q42 0 82 11.5t80 31.5l121 -160q-29 -21 -71 -32t-87 -11q-38 0 -74 8.5t-62 26.5q-18 12 -41 38.5t-46.5 57t-44 61t-33.5 50.5q-17 26 -25 58.5t-8 67.5q0 52 18.5 111.5t53 110.5t84 84.5 t110.5 33.5q13 0 29 -1t31.5 -4t30 -8.5t24.5 -15.5l141 -186q-29 18 -57.5 29t-56.5 11q-56 0 -105.5 -24.5t-87.5 -78.5h142l-37 -65h-142q-6 -11 -11 -24t-9 -25h197l-39 -65h-176z" unicode="" glyph-name="Euro"/>
<glyph horiz-adv-x="1041" d="M722 181q0 -33 9.5 -53t25.5 -31.5t35 -15.5t39 -4q16 0 32.5 1t31.5 6q11 32 15 66t4 69q0 84 -22.5 159.5t-68.5 133t-116.5 91.5t-167.5 34q-32 0 -81 -10.5t-99.5 -28.5t-95.5 -41.5t-70 -50.5q-16 -17 -28.5 -42.5t-21 -53.5t-13 -56t-4.5 -51q0 -96 31.5 -180.5 t89.5 -147t140 -99t182 -36.5q46 0 91.5 9.5t83.5 30.5l-87 -90q-35 -25 -82.5 -32.5t-93.5 -7.5q-96 0 -177 35t-140.5 97t-92.5 146.5t-33 182.5q0 86 33 159t105 146q45 46 95.5 85t106.5 67t118 43.5t130 15.5q92 0 162 -31t117.5 -86t71.5 -130.5t24 -164.5 q0 -26 -1.5 -53.5t-7.5 -54t-17 -51t-130 -147.5q-17 -11 -41.5 -16.5t-50.5 -5.5q-34 0 -58 15t-41 33q-19 21 -33 48q-12 -15 -29.5 -30t-38.5 -27t-44 -19t-46 -7q-15 0 -39 11t-46.5 27t-39 34.5t-16.5 33.5q0 22 18.5 48t45 49t54.5 40.5t47 23.5l116 -85 q-42 -17 -78.5 -44t-64.5 -65q6 -17 18.5 -28t35.5 -13q16 0 31.5 7.5t29 19t25.5 26t20 28.5l34 24q2 21 4 42.5t2 43.5q0 24 -3 48q-17 8 -38.5 11.5t-46.5 3.5q-26 0 -53 -3t-52.5 -8.5t-48.5 -12.5t-40 -14l-41 196q10 5 30.5 11.5t47.5 12.5t57 10t59 4 q55 0 87.5 -19.5t49.5 -51.5t21.5 -73.5t4.5 -86.5v-45q0 -22 -1 -44z" unicode="@" glyph-name="at"/>
<glyph horiz-adv-x="1041" d="M895 84q11 32 15 66t4 69q0 84 -22.5 159.5t-68.5 133t-116.5 91.5t-167.5 34q-32 0 -81 -10.5t-99.5 -28.5t-95.5 -41.5t-70 -50.5q-16 -17 -28.5 -42.5t-21 -53.5t-13 -56t-4.5 -51q0 -96 31.5 -180.5t89.5 -147t140 -99t182 -36.5q46 0 91.5 9.5t83.5 30.5l-87 -90 q-35 -25 -82.5 -32.5t-93.5 -7.5q-96 0 -177 35t-140.5 97t-92.5 146.5t-33 182.5q0 86 33 159t105 146q45 46 95.5 85t106.5 67t118 43.5t130 15.5q92 0 162 -31t117.5 -86t71.5 -130.5t24 -164.5q0 -26 -1.5 -53.5t-7.5 -54t-17 -51t-130 -147.5zM780 146 q-56 -64 -133 -105t-171 -41q-53 0 -85.5 19t-50.5 48t-24 63t-6 65q0 36 17.5 87t47 98t68.5 80t83 33l149 -45q23 -11 32 -38t9 -56q0 -20 -3 -37.5t-9 -31.5l-171 53q3 8 6 18l4 18q3 10 3 21q0 5 -0.5 9t-1.5 9q-39 -11 -76 -41t-65.5 -70.5t-46 -86t-17.5 -86.5 q1 -12 12 -21q9 -8 29 -14t58 -6q49 13 95.5 46.5t80.5 79.5z" unicode="" glyph-name="copyright"/>
<glyph horiz-adv-x="847" d="M726 342q8 26 11.5 53t3.5 56q0 67 -18 128t-55 107t-94 73.5t-135 27.5q-26 0 -65 -8.5t-80 -22.5t-77 -33.5t-56 -40.5q-13 -14 -23 -34.5t-17 -43t-10.5 -45.5t-3.5 -41q0 -77 25.5 -145t72 -118.5t112 -79.5t146.5 -29q37 0 73.5 7.5t67.5 24.5l-70 -73 q-28 -20 -66 -26t-76 -6q-77 0 -142.5 28.5t-113 78t-74 117.5t-26.5 147q0 69 27 128t84 118q36 37 77 68.5t86 54t94.5 35t104.5 12.5q74 0 130.5 -25t94.5 -69t57.5 -105t19.5 -133q0 -42 -8.5 -93.5t-117.5 -152.5zM481 461q-9 8 -16.5 17.5t-12.5 17.5q-6 10 -11 19 q-19 -49 -31.5 -109.5t-20.5 -142.5q-2 -4 -11.5 -10t-20.5 -11.5t-22.5 -9.5t-17.5 -4q0 54 -3 102t-8 92.5t-13.5 86.5t-18.5 85q-25 -16 -50 -20l5 12q6 13 13.5 28t13.5 28t8 15q4 7 14.5 13t21.5 10.5t21 7.5t14 3q1 0 3.5 -9t5.5 -23.5t6 -33.5l6 -38q7 -46 16 -103 q8 20 19 39t26 35q-8 15 -15 33q-6 16 -12 36.5t-8 45.5h200q7 -42 22.5 -80t32.5 -67q19 -34 41 -65h-197z" unicode="" glyph-name="registered"/>
<glyph horiz-adv-x="663" d="M152 407q19 7 50 12t59 7q-1 14 -1 26.5t-1 23.5q-1 12 -1 24q-26 -2 -57 -6.5t-60 -14t-54 -26t-39 -41.5q-8 -13 -11.5 -29.5t-3.5 -33.5l-36 209q0 37 17 65q15 25 41.5 41t59.5 26t71 14t76 4q94 0 167.5 -12.5t123.5 -43.5t76.5 -83.5t26.5 -132.5 q-9 -47 -26.5 -100t-43.5 -104.5t-60.5 -99t-77.5 -83.5t-93.5 -57.5t-108.5 -21.5q-39 0 -66 21t-44.5 53.5t-25.5 70.5t-8 71l109 113q0 -32 5 -64t22 -68q5 45 11 84.5t9 85.5q-32 -2 -64 -7t-60 -13zM355 83q43 4 77.5 26.5t58 56.5t36 75.5t12.5 82.5q0 48 -3 77.5 t-7 46.5q-4 19 -9 28q-53 12 -109 18.5t-120 6.5q5 -19 8.5 -37t5.5 -37q65 -2 131 -15l-18 -90q-52 11 -105 14q1 -16 1 -32v-32q0 -45 -1.5 -89.5t-6.5 -87.5q24 -12 49 -12z" unicode="" glyph-name="Eth"/>
<glyph horiz-adv-x="471" d="M438.983 329.046q-33.0439 -29.2852 -79.5518 -54.9092q-46.5078 -25.625 -90.5664 -40.2676l-55.0752 74.4336q-19.582 0 -50.1787 -21.3545q-30.5967 -21.3535 -80.7754 -67.7217l-53.8516 93.957q34.2695 30.5049 81.3887 56.7393q47.1191 26.2354 89.9551 38.4365 l55.0742 -74.4326q17.1338 0 48.9551 21.9639q31.8203 21.9639 80.7754 68.332z" unicode="~" glyph-name="asciitilde"/>
<glyph horiz-adv-x="691" d="M245 182q25 -8 52.5 -12.5t56.5 -6.5q4 13 7.5 23.5t5.5 18.5l5 15q-51 13 -112.5 46t-115.5 79.5t-90.5 104t-36.5 120.5q0 33 28 47l193 74q-8 -9 -13 -19q-5 -8 -8.5 -19t-3.5 -23q3 -35 25 -74t53 -76t65.5 -69t61.5 -52q16 43 37 88.5t47.5 88.5t58.5 81.5t70 68.5 l63 -17q-41 -48 -72.5 -93.5t-56 -89t-43.5 -85t-34 -81.5q22 0 44.5 4t40.5 9q21 6 41 14l28 -33q-18 -29 -58 -54.5t-120 -37.5q-6 -15 -11 -29.5t-9 -28.5q22 2 43.5 5t41.5 8l18 -90q-31 -7 -62.5 -10.5t-61.5 -4.5q-5 -31 -6.5 -62.5t-1.5 -68.5l-87 23q0 30 2 58t6 54 q-21 3 -40 7t-33 9z" unicode="" glyph-name="yen"/>
<glyph horiz-adv-x="473" d="M50 417q13 4 31 8.5t38 7.5t40.5 5.5t38.5 4.5l7 152l67 31l-9 -182q86 -2 174 -20l-24 -173q-37 8 -76.5 12.5t-81.5 6.5l-7 -152l-67 -32l8 184q-43 -2 -84 -8.5t-79 -17.5z" unicode="+" glyph-name="plus"/>
<glyph horiz-adv-x="473" d="M50 414q13 4 31 8.5t38 7.5t40.5 5.5t38.5 4.5l7 152l67 31l-9 -182q86 -2 174 -20l-24 -173q-37 8 -76.5 12.5t-81.5 6.5l-7 -152l-67 -32l8 184q-43 -2 -84 -8.5t-79 -17.5zM43 27q12 4 38.5 7.5t55.5 6.5t55.5 4.5t39.5 1.5q18 0 44.5 -1t55 -3t55 -4.5t44.5 -6.5 l-18 -127q-16 4 -41.5 7t-53 4.5t-54 2.5t-44.5 1q-19 0 -45.5 -1.5t-54 -4t-53 -6t-41.5 -8.5z" unicode="" glyph-name="plusminus"/>
<glyph horiz-adv-x="460" d="M43 392q12 4 38.5 7.5t55.5 6.5t55.5 4.5t39.5 1.5q18 0 44.5 -1t55 -3t55 -4.5t44.5 -6.5l-18 -127q-16 4 -41.5 7t-53 4.5t-54 2.5t-44.5 1q-19 0 -45.5 -1.5t-54 -4t-53 -6t-41.5 -8.5z" unicode="" glyph-name="minus"/>
<glyph horiz-adv-x="460" d="M43 503q12 4 38.5 7.5t55.5 6.5t55.5 4.5t39.5 1.5q18 0 44.5 -1t55 -3t55 -4.5t44.5 -6.5l-18 -127q-16 4 -41.5 7t-53 4.5t-54 2.5t-44.5 1q-19 0 -45.5 -1.5t-54 -4t-53 -6t-41.5 -8.5zM43 272q12 4 38.5 7.5t55.5 6.5t55.5 4.5t39.5 1.5q18 0 44.5 -1t55 -3t55 -4.5 t44.5 -6.5l-18 -127q-16 4 -41.5 7t-53 4.5t-54 2.5t-44.5 1q-19 0 -45.5 -1.5t-54 -4t-53 -6t-41.5 -8.5z" unicode="=" glyph-name="equal"/>
<glyph horiz-adv-x="492" d="M39 585l232 316l193 -351l-53 -49l-141 245l-158 -243z" unicode="^" glyph-name="asciicircum"/>
<glyph horiz-adv-x="1039" d="M819 602q38 101 57.5 127t32.5 29q34 6 63 -1q19 -56 27 -116.5t8 -110t-5 -92t-19.5 -75.5t-40.5 -53t-94 -17l25 101h49q33 164 -2 281q-60 -100 -82 -182t-22 -128l-180 -14q16 245 -6 304q-87 -132 -111 -314q-11 11 -20 22.5t-24 41.5l-21 321q-38 -12 -76.5 -19 t-75.5 -9q4 -157 22 -211l66 -30l-15 -115l-87 22q-28 66 -38 145.5t-10 176.5q-122 -12 -166.5 8t-48.5 37l-33 193l31 2l10 -53q118 -15 222 6l22 83l52 -14l-12 -59q80 9 224 60l33 -186l-56 -20v-192q27 90 96 205h160q28 -49 45 -154z" unicode="" glyph-name="trademark"/>
<glyph horiz-adv-x="438" d="M37 514q24 8 62 14.5t73 10.5v131l91 43v-172q40 -2 80.5 -7t80.5 -13l-24 -149q-64 15 -137 18v-367l-91 -43v411q-84 -4 -159 -26z" unicode="" glyph-name="dagger"/>
<glyph horiz-adv-x="438" d="M37 528q24 8 62 14.5t73 10.5v117l91 43v-158q40 -2 80.5 -7t80.5 -13l-24 -149q-64 15 -137 18v-121q40 -2 80.5 -7t80.5 -13l-24 -149q-64 15 -137 18v-109l-91 -43v153q-84 -4 -159 -26l24 149q24 8 62 14.5t73 10.5v124q-84 -4 -159 -26z" unicode="" glyph-name="daggerdbl"/>
<glyph horiz-adv-x="425" d="M284 40h-188l24 161h188zM330 496h-188l24 161h188zM27 394q12 4 38.5 7.5t55.5 6.5t55.5 4.5t39.5 1.5q18 0 44.5 -1t55 -3t55 -4.5t44.5 -6.5l-18 -127q-16 4 -41.5 7t-53 4.5t-54 2.5t-44.5 1q-19 0 -45.5 -1.5t-54 -4t-53 -6t-41.5 -8.5z" unicode="" glyph-name="divide"/>
<glyph horiz-adv-x="473" d="M60 257q12 25 37 60t49 63l-102 113l25 69l122 -135q63 60 138 109l105 -140q-63 -39 -125 -98l102 -112l-24 -70l-125 135q-29 -31 -53 -65t-44 -68z" unicode="" glyph-name="multiply"/>
<glyph horiz-adv-x="206" d="M55 -119v194l91 43v-194z" unicode="" glyph-name="quotesinglbase"/>
<glyph horiz-adv-x="336" d="M260 670q0 -24 5 -45.5t22 -40.5l-66 -45q-11 11 -18.5 25t-9.5 28q-16 -16 -38.5 -27.5t-46.5 -11.5q-9 0 -23.5 7t-28 16.5t-23.5 21t-10 20.5q0 11 7 23t18.5 24t25 22t26.5 18q-13 -3 -24.5 -7t-20.5 -8l-24 121q6 3 19 7.5t29 8t33.5 6t34.5 2.5q33 0 52 -11.5 t29 -30t13 -43t3 -50.5v-39zM169 714q-14 0 -25 -1t-19 -3q-9 -2 -16 -3l91 -46q-26 -11 -48 -25.5t-39 -35.5q3 -8 8 -12t16 -5q17 0 34 16t40 41q2 11 2 22v33q0 6 -1 12q-19 7 -43 7zM191 437h-85l11 78h85z" unicode="" glyph-name="ordfeminine"/>
<glyph horiz-adv-x="263" d="M214 724q-9 -16 -19 -25q-8 -44 -12.5 -87.5t-4.5 -88.5q0 -32 5 -60q3 -15 6 -29l-73 19q-2 6 -3 15q-1 8 -1.5 19t-0.5 27q0 66 15 135q-17 -8 -40.5 -15.5t-35.5 -7.5l-34 137q18 4 41.5 15t46.5 25t42.5 31t30.5 35z" unicode="" glyph-name="onesuperior"/>
<glyph horiz-adv-x="343" d="M285 847l-20 -69q0 -1 3 -12t6.5 -27.5t6 -37t2.5 -41.5q0 -32 -10 -51.5t-29.5 -31t-49 -15.5t-69.5 -4q-13 0 -26 1t-22 6q-12 6 -20 19.5t-13 29.5t-7 33.5t-2 32.5q0 35 11 74.5t28 68.5h126zM227 647q0 54 -14 95.5t-24 59.5q-15 -30 -22.5 -62.5t-7.5 -62.5 q0 -5 1.5 -17.5t5 -26.5t10 -28t16.5 -22q17 2 26 21.5t9 42.5zM196 438h-85l11 78h85z" unicode="" glyph-name="ordmasculine"/>
<glyph horiz-adv-x="357" d="M329 719q1 -3 1 -9q0 -8 -4.5 -18.5t-10.5 -18.5q-18 -23 -44.5 -37.5t-53.5 -25.5q8 1 15.5 1.5t15.5 0.5q15 0 28 -3t18 -8l35 -137l-39 -34l-12 41q-38 0 -99 -8t-119 -31l-39 140q33 10 76.5 26t82.5 35.5t65.5 40t26.5 38.5q0 5 -4 12q-17 0 -39 -4t-42.5 -11.5 t-36 -19t-20.5 -28.5l24 -31l-33 -16l-76 100q-5 8 -7.5 16.5t-2.5 19.5q1 23 17 40.5t39.5 29t50.5 17.5t51 6q19 0 33.5 -4.5t22.5 -12.5z" unicode="" glyph-name="twosuperior"/>
<glyph horiz-adv-x="309" d="M58 680l-14 142q38 12 77 19t77 7q17 0 36 -4.5t41 -18.5l26 -99q0 -3 -0.5 -5.5t-3.5 -5.5q-16 -14 -34.5 -27t-46.5 -28q21 -3 40 -15t30 -41l32 -91q-50 -38 -111.5 -57.5t-115.5 -19.5l-85 113q26 0 57.5 5.5t63 14.5t59.5 21.5t47 27.5q-5 5 -12 10.5t-13 8.5 q-18 0 -32 -1.5t-25 -3.5q-12 -3 -22 -5l-47 17q57 23 93 44.5t63 44.5l-1 5q-42 0 -83.5 -6t-68.5 -15l3 -28z" unicode="" glyph-name="threesuperior"/>
<glyph horiz-adv-x="789" d="M214 604q-9 -16 -19 -25q-8 -44 -12.5 -87.5t-4.5 -88.5q0 -32 5 -60q3 -15 6 -29l-73 19q-2 6 -3 15q-1 8 -1.5 19t-0.5 27q0 66 15 135q-17 -8 -40.5 -15.5t-35.5 -7.5l-34 137q18 4 41.5 15t46.5 25t42.5 31t30.5 35zM681 263q1 -3 1 -9q0 -8 -4.5 -18.5t-10.5 -18.5 q-18 -23 -44.5 -37.5t-53.5 -25.5q8 1 15.5 1.5t15.5 0.5q15 0 28 -3t18 -8l35 -137l-39 -34l-12 41q-38 0 -99 -8t-119 -31l-39 140q33 10 76.5 26t82.5 35.5t65.5 40t26.5 38.5q0 5 -4 12q-17 0 -39 -4t-42.5 -11.5t-36 -19t-20.5 -28.5l24 -31l-33 -16l-76 100 q-5 8 -7.5 16.5t-2.5 19.5q1 23 17 40.5t39.5 29t50.5 17.5t51 6q19 0 33.5 -4.5t22.5 -12.5zM14 -38l497 735h79l-491 -716z" unicode="" glyph-name="onehalf"/>
<glyph horiz-adv-x="777" d="M214 604q-9 -16 -19 -25q-8 -44 -12.5 -87.5t-4.5 -88.5q0 -32 5 -60q3 -15 6 -29l-73 19q-2 6 -3 15q-1 8 -1.5 19t-0.5 27q0 66 15 135q-17 -8 -40.5 -15.5t-35.5 -7.5l-34 137q18 4 41.5 15t46.5 25t42.5 31t30.5 35zM712 257l-20 -29l-26 33q-16 -2 -33 -10t-34 -20 l48 -18q-7 -10 -12 -27q-5 -14 -8 -36.5t-3 -55.5l33 3l13 -48l-39 -24l-4 25h-4l-4 -60l-51 -10v64q-14 -1 -25 -1.5t-20 -0.5q-42 0 -78 9l-97 68q7 21 21 48.5t32.5 56.5t41.5 57t48 50t51.5 35.5t52.5 13.5q22 0 33 -12zM568 88q1 35 5.5 62t10.5 45q6 21 15 36 q-19 -14 -37 -31.5t-34 -36t-29.5 -36.5t-22.5 -32q32 -7 92 -7zM33 -38l497 735h79l-491 -716z" unicode="" glyph-name="onequarter"/>
<glyph horiz-adv-x="864" d="M58 560l-14 142q38 12 77 19t77 7q17 0 36 -4.5t41 -18.5l26 -99q0 -3 -0.5 -5.5t-3.5 -5.5q-16 -14 -34.5 -27t-46.5 -28q21 -3 40 -15t30 -41l32 -91q-50 -38 -111.5 -57.5t-115.5 -19.5l-85 113q26 0 57.5 5.5t63 14.5t59.5 21.5t47 27.5q-5 5 -12 10.5t-13 8.5 q-18 0 -32 -1.5t-25 -3.5q-12 -3 -22 -5l-47 17q57 23 93 44.5t63 44.5l-1 5q-42 0 -83.5 -6t-68.5 -15l3 -28zM807 257l-20 -29l-26 33q-16 -2 -33 -10t-34 -20l48 -18q-7 -10 -12 -27q-5 -14 -8 -36.5t-3 -55.5l33 3l13 -48l-39 -24l-4 25h-4l-4 -60l-51 -10v64 q-14 -1 -25 -1.5t-20 -0.5q-42 0 -78 9l-97 68q7 21 21 48.5t32.5 56.5t41.5 57t48 50t51.5 35.5t52.5 13.5q22 0 33 -12zM663 88q1 35 5.5 62t10.5 45q6 21 15 36q-19 -14 -37 -31.5t-34 -36t-29.5 -36.5t-22.5 -32q32 -7 92 -7zM122 -38l497 735h79l-491 -716z" unicode="" glyph-name="threequarters"/>
<glyph horiz-adv-x="280" d="M220 150h-188l24 173h188z" unicode="" glyph-name="periodcentered"/>
<glyph horiz-adv-x="385" d="M367 326q-30 -20 -63.5 -35t-68.5 -26q26 -8 51 -22t50 -35l31 -150q-60 -39 -129.5 -60t-147.5 -21q-14 0 -31 2t-20 16l-39 182q3 15 6.5 24t8.5 16l15 -62q28 -5 56 -5q47 0 97.5 12t92.5 38q-17 29 -45 54q-10 1 -18 1.5t-16 0.5q-53 -11 -107 -11q-14 0 -31 2 t-20 16l-39 182q3 15 6.5 24t8.5 16l15 -62q28 -5 56 -5q47 0 97.5 12t92.5 38q-17 29 -45 54q-43 0 -68.5 -2.5t-52.5 -8.5q-19 0 -41 6t-39 17q4 38 23 70t48 56.5t67 40t80 19.5l74 -24q17 -11 24 -30.5t8 -39.5q-1 -14 -3 -21.5t-6 -13.5q-2 -2 -11 -2q-11 0 -30.5 4.5 t-38.5 18.5q8 16 8 36q0 10 -2 19t-5 18q-57 -23 -93 -56t-52 -83q24 0 50.5 -2.5t54 -10t55.5 -21t55 -36.5z" unicode="" glyph-name="section"/>
<glyph horiz-adv-x="0" glyph-name="NULL"/>
<glyph horiz-adv-x="0" glyph-name="NULL"/>
<glyph horiz-adv-x="244" unicode="" glyph-name="nonmarkingreturn"/>
<glyph horiz-adv-x="455" d="M411 174q1 -38 9.5 -72t34.5 -64l-102 -69q-20 19 -30 50.5t-12 57.5q-12 -15 -29.5 -30t-38.5 -27t-44.5 -19.5t-46.5 -7.5q-15 0 -39 11t-46.5 27t-39 34.5t-16.5 33.5q0 22 18.5 48t45 49t54.5 40.5t47 23.5l116 -85q-42 -17 -78.5 -44t-64.5 -65q6 -17 18.5 -28 t35.5 -13q16 0 31.5 7.5t29 19t25.5 26t20 28.5l34 24q2 21 4 42.5t2 43.5q0 24 -3 48q-17 8 -38.5 11.5t-46.5 3.5q-26 0 -53 -3t-52.5 -8.5t-48.5 -12.5t-40 -14l-41 196q10 5 30.5 11.5t47.5 12.5t57 10t59 4q55 0 87.5 -19.5t49.5 -51.5t21.5 -73.5t4.5 -86.5v-45 q0 -22 -1 -44z" unicode="a" glyph-name="a"/>
<glyph horiz-adv-x="319" d="M159 438q-22 1 -39 15.5t-29 34.5t-18.5 41.5t-6.5 37.5q0 19 5.5 43t16 44.5t25.5 34.5t34 14t37.5 -13.5t33 -32t23 -39.5t8.5 -36q0 -21 -6 -46t-17 -46.5t-28 -36.5t-39 -15zM89 576q7 -27 29.5 -42.5t41.5 -15.5q15 0 32 11t26 35q-10 25 -31 41.5t-41 16.5 q-14 0 -32 -10.5t-25 -35.5z" unicode="" glyph-name="degree"/>
<glyph horiz-adv-x="532" d="M384 547l28 45l85 30l-71 -120q31 -39 45.5 -81.5t14.5 -85.5q0 -54 -11.5 -100t-37.5 -80l60 -101l-85 30l-20 31q-42 -25 -105 -25q-25 0 -49 3t-47 10l-29 -49h-80l46 76q-37 22 -59.5 55.5t-22.5 80.5q0 70 26.5 138.5t68.5 120.5l-59 97h80l28 -48q11 10 23 17z M321 104q28 10 48 30t32 45.5t17.5 54.5t5.5 56q0 68 -17 128t-61 118q-26 -26 -48 -62t-38 -76t-25 -81t-9 -78q0 -47 25.5 -82t69.5 -53z" unicode="" glyph-name="currency"/>
<glyph horiz-adv-x="441" d="M71 -236q71 -79 166 -126.5t201 -73t216 -34t210 -8.5q223 0 445 30t442 74.5t438 96.5t435 96.5t432 74.5t428 30q98 0 197 -11.5t190.5 -37.5t170.5 -69.5t137.5 -107.5t92 -150.5t33.5 -198.5q0 -45 -5 -82.5t-10 -65.5q-6 -33 -14 -60q0 114 -35 201.5t-95 151.5 t-140.5 106.5t-171.5 68t-187.5 36.5t-188.5 11q-224 0 -442.5 -30t-435 -74.5t-432 -96.5t-431.5 -96.5t-433.5 -74.5t-439.5 -30q-35 0 -89.5 2t-119 7.5t-135 15.5t-138.5 26t-129.5 39.5t-108.5 56t-74.5 74.5t-27.5 95q0 135 41 234t117.5 166.5t185 104t243.5 45.5 l-29 -179l-23 -2q-68 -7 -137 -25t-132.5 -47t-119 -70t-97.5 -93z" unicode="[" glyph-name="bracketleft"/>
<glyph horiz-adv-x="441" d="M332 -236q-42 52 -97.5 93t-119.5 70t-132.5 47t-136.5 25l-23 2l44 172q119 -15 214 -55t162 -106.5t102.5 -161.5t35.5 -220q0 -53 -27.5 -95t-74.5 -74.5t-108.5 -56t-129.5 -39.5t-138.5 -26t-135 -15.5t-119 -7.5t-89.5 -2q-222 0 -439.5 30t-433.5 74.5 t-431.5 96.5t-432 96.5t-435.5 74.5t-442 30q-92 0 -188.5 -11t-187.5 -36.5t-171.5 -68t-140.5 -106.5t-95 -151.5t-35 -201.5q-9 27 -15 60q-5 28 -9.5 65.5t-4.5 82.5q0 112 33.5 198.5t92 150.5t137.5 107.5t170.5 69.5t190.5 37.5t197 11.5q213 0 428 -30t432 -74.5 t435 -96.5t438 -96.5t442 -74.5t445 -30q100 0 210 8.5t216 34t201 73t166 126.5z" unicode="]" glyph-name="bracketright"/>
<glyph horiz-adv-x="401" d="M2577 -456q-43 51 -89.5 90.5t-100.5 66.5t-118 41t-142 14q-121 0 -253.5 -31.5t-269.5 -78.5t-275 -102t-270 -102t-254.5 -78.5t-229.5 -31.5q-87 0 -149 22t-111 61t-90.5 93t-86.5 118q-20 27 -38.5 56t-32.5 60t-22.5 65t-8.5 71q0 61 35 113t103 90t168.5 59.5 t231.5 21.5l-23 -162q-105 0 -178.5 -18t-120.5 -53.5t-68.5 -89.5t-21.5 -126q0 -16 2 -35t5.5 -38t9.5 -35.5t14 -28.5q21 -21 53 -35.5t68 -23.5t72 -13t63 -4q132 0 263 31.5t261.5 78.5t260 101.5t257.5 101.5t255 78.5t253 31.5q109 0 192 -28t150 -78.5t123 -120 t113 -152.5z" unicode="{" glyph-name="braceleft"/>
<glyph horiz-adv-x="401" d="M-2151 -456q57 83 113 152.5t123 120t149.5 78.5t192.5 28q125 0 252.5 -31.5t255.5 -78.5t257.5 -101.5t260 -101.5t261.5 -78.5t263 -31.5q27 0 63 4t72 13t68 23.5t53 35.5q8 12 14 28.5t9.5 35.5t5.5 38t2 35q0 72 -21.5 126t-69.5 89.5t-124.5 53.5t-185.5 18 l49 162q104 0 192 -21.5t151.5 -59.5t99 -90t35.5 -113q0 -37 -8.5 -71t-22.5 -65t-32.5 -60t-38.5 -56q-45 -64 -86.5 -118t-90.5 -93t-111 -61t-149 -22q-107 0 -229.5 31.5t-254.5 78.5t-270 102t-275 102t-269.5 78.5t-253.5 31.5q-78 0 -142 -14t-118 -41t-100.5 -66.5 t-89.5 -90.5z" unicode="}" glyph-name="braceright"/>
<glyph horiz-adv-x="690" d="M-527 797q100 68 200.5 97t201.5 29t175.5 -22.5t128 -67.5t88 -112t54.5 -156q7 -32 12 -59q5 -23 8.5 -46.5t3.5 -33.5q0 -76 -33.5 -140t-86 -116.5t-117.5 -94.5t-129 -75l-16 146q60 32 119.5 76t107.5 99.5t78.5 121t33.5 141.5q-27 45 -68.5 77t-92.5 52.5 t-109 30.5t-118 10q-57 0 -114 -8.5t-109 -25t-97 -39.5t-79 -53z" unicode="#" glyph-name="numbersign"/>
<glyph horiz-adv-x="803" d="M250 180q45 12 84 25.5t75 30.5q-13 31 -25 68t-22.5 75.5t-19.5 76.5t-16 71q-5 -39 -12 -84.5t-16 -91.5t-21 -90t-27 -81zM801 127v-118l-196 -75q-57 54 -100 121t-76 136q-92 -31 -193 -43q-6 -15 -18 -40.5t-28 -51t-34.5 -44t-36.5 -18.5q-15 0 -34.5 3 t-37.5 10.5t-30 20.5t-12 33q0 6 2.5 17t7.5 22.5t11.5 20t15.5 8.5q7 0 19.5 -2.5t25 -6.5t23.5 -7.5t15 -5.5q28 51 50.5 112.5t40.5 126t32 130.5t26 126l-15 -3q-7 -1 -16 -1.5t-18 -0.5q-10 0 -21.5 1t-20.5 7l318 116q9 -72 29 -156.5t49 -169.5t65.5 -163t81.5 -137z M229 816q1 22 15.5 35.5t34.5 21t41.5 10t37.5 2.5q19 0 43 -1.5t44.5 -7.5t34.5 -17.5t14 -30.5q0 -20 -13.5 -34.5t-32 -24t-39.5 -14.5t-36 -5q-21 0 -46 2t-46.5 9t-36.5 20t-15 35zM367 874q-27 -7 -42.5 -23.5t-15.5 -35.5q0 -15 11 -29t35 -23q25 10 41.5 28t16.5 38 q0 14 -10.5 26t-35.5 19z" unicode="" glyph-name="Aring"/>
<glyph horiz-adv-x="803" d="M250 180q45 12 84 25.5t75 30.5q-13 31 -25 68t-22.5 75.5t-19.5 76.5t-16 71q-5 -39 -12 -84.5t-16 -91.5t-21 -90t-27 -81zM801 127v-118l-196 -75q-57 54 -100 121t-76 136q-92 -31 -193 -43q-6 -15 -18 -40.5t-28 -51t-34.5 -44t-36.5 -18.5q-15 0 -34.5 3 t-37.5 10.5t-30 20.5t-12 33q0 6 2.5 17t7.5 22.5t11.5 20t15.5 8.5q7 0 19.5 -2.5t25 -6.5t23.5 -7.5t15 -5.5q28 51 50.5 112.5t40.5 126t32 130.5t26 126l-15 -3q-7 -1 -16 -1.5t-18 -0.5q-10 0 -21.5 1t-20.5 7l318 116q9 -72 29 -156.5t49 -169.5t65.5 -163t81.5 -137z M529 833q-27 -24 -65 -45t-74 -33l-45 61q-16 0 -41 -17.5t-66 -55.5l-44 77q28 25 66.5 46.5t73.5 31.5l45 -61q14 0 40 18t66 56z" unicode="" glyph-name="Atilde"/>
<glyph horiz-adv-x="628" d="M158 206q22 8 55.5 17t72.5 16.5t81 12.5t81 5q26 0 51 -2.5t46 -9.5t36 -20t20 -34l38 -225q0 -13 -8.5 -22.5t-21 -16t-26.5 -10t-24 -3.5l-24 133q-24 3 -52 3q-46 0 -88 -4.5t-83.5 -13t-83 -21.5t-86.5 -31q-8 -3 -18 -6t-19 -3q-14 0 -24 10l-21 198l36 166l-29 8 l-14 92l58 -15q5 32 7 64.5t3 67.5q-20 5 -42.5 11.5t-41.5 14.5l109 113q35 -18 78 -32q37 -12 88 -21.5t111 -9.5q22 0 41 11.5t33 25.5q17 16 30 37l31 -62q-21 -36 -49 -63q-24 -23 -60 -42.5t-84 -19.5q-42 0 -76.5 3.5t-58.5 8.5q-29 5 -51 12q4 -25 5.5 -49.5 t1.5 -49.5v-14q0 -6 -1 -13q31 0 54 2.5t39 6.5q18 4 31 9l14 -81q-22 -8 -45 -13q-20 -5 -43 -9t-45 -4h-13q-4 -32 -9 -64zM151 822q31 33 74.5 62.5t85.5 45.5l119 -132l-36 -34l-61 69q-32 0 -121 -99z" unicode="" glyph-name="Ecircumflex"/>
<glyph horiz-adv-x="628" d="M158 206q22 8 55.5 17t72.5 16.5t81 12.5t81 5q26 0 51 -2.5t46 -9.5t36 -20t20 -34l38 -225q0 -13 -8.5 -22.5t-21 -16t-26.5 -10t-24 -3.5l-24 133q-24 3 -52 3q-46 0 -88 -4.5t-83.5 -13t-83 -21.5t-86.5 -31q-8 -3 -18 -6t-19 -3q-14 0 -24 10l-21 198l36 166l-29 8 l-14 92l58 -15q5 32 7 64.5t3 67.5q-20 5 -42.5 11.5t-41.5 14.5l109 113q35 -18 78 -32q37 -12 88 -21.5t111 -9.5q22 0 41 11.5t33 25.5q17 16 30 37l31 -62q-21 -36 -49 -63q-24 -23 -60 -42.5t-84 -19.5q-42 0 -76.5 3.5t-58.5 8.5q-29 5 -51 12q4 -25 5.5 -49.5 t1.5 -49.5v-14q0 -6 -1 -13q31 0 54 2.5t39 6.5q18 4 31 9l14 -81q-22 -8 -45 -13q-20 -5 -43 -9t-45 -4h-13q-4 -32 -9 -64zM267 748q31 24 52.5 44.5t36.5 38.5t24.5 35t16.5 36l103 -5q-5 -13 -17 -32.5t-30 -40.5t-41.5 -42.5t-50.5 -39.5z" unicode="" glyph-name="Eacute"/>
<glyph horiz-adv-x="628" d="M158 206q22 8 55.5 17t72.5 16.5t81 12.5t81 5q26 0 51 -2.5t46 -9.5t36 -20t20 -34l38 -225q0 -13 -8.5 -22.5t-21 -16t-26.5 -10t-24 -3.5l-24 133q-24 3 -52 3q-46 0 -88 -4.5t-83.5 -13t-83 -21.5t-86.5 -31q-8 -3 -18 -6t-19 -3q-14 0 -24 10l-21 198l36 166l-29 8 l-14 92l58 -15q5 32 7 64.5t3 67.5q-20 5 -42.5 11.5t-41.5 14.5l109 113q35 -18 78 -32q37 -12 88 -21.5t111 -9.5q22 0 41 11.5t33 25.5q17 16 30 37l31 -62q-21 -36 -49 -63q-24 -23 -60 -42.5t-84 -19.5q-42 0 -76.5 3.5t-58.5 8.5q-29 5 -51 12q4 -25 5.5 -49.5 t1.5 -49.5v-14q0 -6 -1 -13q31 0 54 2.5t39 6.5q18 4 31 9l14 -81q-22 -8 -45 -13q-20 -5 -43 -9t-45 -4h-13q-4 -32 -9 -64zM301 760h-118l18 134h119zM459 760h-118l18 134h119z" unicode="" glyph-name="Edieresis"/>
<glyph horiz-adv-x="628" d="M158 206q22 8 55.5 17t72.5 16.5t81 12.5t81 5q26 0 51 -2.5t46 -9.5t36 -20t20 -34l38 -225q0 -13 -8.5 -22.5t-21 -16t-26.5 -10t-24 -3.5l-24 133q-24 3 -52 3q-46 0 -88 -4.5t-83.5 -13t-83 -21.5t-86.5 -31q-8 -3 -18 -6t-19 -3q-14 0 -24 10l-21 198l36 166l-29 8 l-14 92l58 -15q5 32 7 64.5t3 67.5q-20 5 -42.5 11.5t-41.5 14.5l109 113q35 -18 78 -32q37 -12 88 -21.5t111 -9.5q22 0 41 11.5t33 25.5q17 16 30 37l31 -62q-21 -36 -49 -63q-24 -23 -60 -42.5t-84 -19.5q-42 0 -76.5 3.5t-58.5 8.5q-29 5 -51 12q4 -25 5.5 -49.5 t1.5 -49.5v-14q0 -6 -1 -13q31 0 54 2.5t39 6.5q18 4 31 9l14 -81q-22 -8 -45 -13q-20 -5 -43 -9t-45 -4h-13q-4 -32 -9 -64zM282 742q-27 18 -50.5 39.5t-41.5 42.5t-30 40.5t-17 32.5l103 5q7 -19 16.5 -36t24.5 -35t36.5 -38.5t52.5 -44.5z" unicode="" glyph-name="Egrave"/>
<glyph horiz-adv-x="324" d="M223 191q15 -2 29 -6t25 -8q13 -4 25 -10l42 -202q-47 10 -96 16.5t-99 6.5q-25 0 -49.5 -2t-48.5 -6l-46 205l35 5q17 2 44 3.5t63 1.5l-22 292h-99v208l220 -13zM73 748q31 24 52.5 44.5t36.5 38.5t24.5 35t16.5 36l103 -5q-5 -13 -17 -32.5t-30 -40.5t-41.5 -42.5 t-50.5 -39.5z" unicode="" glyph-name="Iacute"/>
<glyph horiz-adv-x="324" d="M223 191q15 -2 29 -6t25 -8q13 -4 25 -10l42 -202q-47 10 -96 16.5t-99 6.5q-25 0 -49.5 -2t-48.5 -6l-46 205l35 5q17 2 44 3.5t63 1.5l-22 292h-99v208l220 -13zM-7 822q31 33 74.5 62.5t85.5 45.5l119 -132l-36 -34l-61 69q-32 0 -121 -99z" unicode="" glyph-name="Icircumflex"/>
<glyph horiz-adv-x="324" d="M223 191q15 -2 29 -6t25 -8q13 -4 25 -10l42 -202q-47 10 -96 16.5t-99 6.5q-25 0 -49.5 -2t-48.5 -6l-46 205l35 5q17 2 44 3.5t63 1.5l-22 292h-99v208l220 -13zM115 760h-118l18 134h119zM273 760h-118l18 134h119z" unicode="" glyph-name="Idieresis"/>
<glyph horiz-adv-x="324" d="M223 191q15 -2 29 -6t25 -8q13 -4 25 -10l42 -202q-47 10 -96 16.5t-99 6.5q-25 0 -49.5 -2t-48.5 -6l-46 205l35 5q17 2 44 3.5t63 1.5l-22 292h-99v208l220 -13zM115 742q-27 18 -50.5 39.5t-41.5 42.5t-30 40.5t-17 32.5l103 5q7 -19 16.5 -36t24.5 -35t36.5 -38.5 t52.5 -44.5z" unicode="" glyph-name="Igrave"/>
<glyph horiz-adv-x="777" d="M191 327q0 -101 -10.5 -165t-22.5 -101q-15 -43 -33 -65l-98 27l-5 105l80 -20q8 23 14 67q5 38 10 100.5t5 159.5l-42 79l-100 -38q6 16 14.5 31t21.5 26l222 85q17 -3 33 -22t31 -45.5t28 -55t25 -50.5q50 -93 110.5 -179.5t141.5 -155.5q-16 63 -28 125 q-11 53 -19 111t-8 102q0 25 2 54t9.5 59.5t23 60.5t42.5 59l83 -24l12 -79l-60 12q-14 -34 -20 -77t-6 -86q0 -55 10 -135.5t33 -187.5l97 37q-6 -29 -18.5 -58.5t-43.5 -43.5l-185 -65q-22 0 -41 9.5t-39 22.5q-41 27 -79 64.5t-72.5 80.5t-64 88.5t-53.5 87.5zM556 833 q-27 -24 -65 -45t-74 -33l-45 61q-16 0 -41 -17.5t-66 -55.5l-44 77q28 25 66.5 46.5t73.5 31.5l45 -61q14 0 40 18t66 56z" unicode="" glyph-name="Ntilde"/>
<glyph horiz-adv-x="635" d="M342 678q76 -22 136 -60q25 -16 49.5 -37t44 -48t31 -59.5t11.5 -71.5q0 -42 -7 -89.5t-21 -95t-35.5 -91t-50.5 -76.5t-66.5 -53t-82.5 -20q-11 0 -23.5 2.5t-34 10.5t-55 24.5t-85.5 45.5q-28 15 -49.5 30.5t-37.5 34.5t-26 43.5t-14 57.5q0 47 8.5 89t22.5 78.5 t32 67.5t37 57q44 60 100 104l54 -15q-43 -60 -76 -124q-29 -55 -52 -121.5t-23 -131.5q0 -42 14.5 -81.5t44.5 -68.5q44 6 79.5 30.5t62 61.5t45.5 83t31.5 94t18 95t5.5 87l-144 82zM249 748q31 24 52.5 44.5t36.5 38.5t24.5 35t16.5 36l103 -5q-5 -13 -17 -32.5 t-30 -40.5t-41.5 -42.5t-50.5 -39.5z" unicode="" glyph-name="Oacute"/>
<glyph horiz-adv-x="635" d="M342 678q76 -22 136 -60q25 -16 49.5 -37t44 -48t31 -59.5t11.5 -71.5q0 -42 -7 -89.5t-21 -95t-35.5 -91t-50.5 -76.5t-66.5 -53t-82.5 -20q-11 0 -23.5 2.5t-34 10.5t-55 24.5t-85.5 45.5q-28 15 -49.5 30.5t-37.5 34.5t-26 43.5t-14 57.5q0 47 8.5 89t22.5 78.5 t32 67.5t37 57q44 60 100 104l54 -15q-43 -60 -76 -124q-29 -55 -52 -121.5t-23 -131.5q0 -42 14.5 -81.5t44.5 -68.5q44 6 79.5 30.5t62 61.5t45.5 83t31.5 94t18 95t5.5 87l-144 82zM179 822q31 33 74.5 62.5t85.5 45.5l119 -132l-36 -34l-61 69q-32 0 -121 -99z" unicode="" glyph-name="Ocircumflex"/>
<glyph horiz-adv-x="635" d="M342 678q76 -22 136 -60q25 -16 49.5 -37t44 -48t31 -59.5t11.5 -71.5q0 -42 -7 -89.5t-21 -95t-35.5 -91t-50.5 -76.5t-66.5 -53t-82.5 -20q-11 0 -23.5 2.5t-34 10.5t-55 24.5t-85.5 45.5q-28 15 -49.5 30.5t-37.5 34.5t-26 43.5t-14 57.5q0 47 8.5 89t22.5 78.5 t32 67.5t37 57q44 60 100 104l54 -15q-43 -60 -76 -124q-29 -55 -52 -121.5t-23 -131.5q0 -42 14.5 -81.5t44.5 -68.5q44 6 79.5 30.5t62 61.5t45.5 83t31.5 94t18 95t5.5 87l-144 82zM315 760h-118l18 134h119zM473 760h-118l18 134h119z" unicode="" glyph-name="Odieresis"/>
<glyph horiz-adv-x="635" d="M342 678q76 -22 136 -60q25 -16 49.5 -37t44 -48t31 -59.5t11.5 -71.5q0 -42 -7 -89.5t-21 -95t-35.5 -91t-50.5 -76.5t-66.5 -53t-82.5 -20q-11 0 -23.5 2.5t-34 10.5t-55 24.5t-85.5 45.5q-28 15 -49.5 30.5t-37.5 34.5t-26 43.5t-14 57.5q0 47 8.5 89t22.5 78.5 t32 67.5t37 57q44 60 100 104l54 -15q-43 -60 -76 -124q-29 -55 -52 -121.5t-23 -131.5q0 -42 14.5 -81.5t44.5 -68.5q44 6 79.5 30.5t62 61.5t45.5 83t31.5 94t18 95t5.5 87l-144 82zM322 742q-27 18 -50.5 39.5t-41.5 42.5t-30 40.5t-17 32.5l103 5q7 -19 16.5 -36 t24.5 -35t36.5 -38.5t52.5 -44.5z" unicode="" glyph-name="Ograve"/>
<glyph horiz-adv-x="635" d="M342 678q76 -22 136 -60q25 -16 49.5 -37t44 -48t31 -59.5t11.5 -71.5q0 -42 -7 -89.5t-21 -95t-35.5 -91t-50.5 -76.5t-66.5 -53t-82.5 -20q-11 0 -23.5 2.5t-34 10.5t-55 24.5t-85.5 45.5q-28 15 -49.5 30.5t-37.5 34.5t-26 43.5t-14 57.5q0 47 8.5 89t22.5 78.5 t32 67.5t37 57q44 60 100 104l54 -15q-43 -60 -76 -124q-29 -55 -52 -121.5t-23 -131.5q0 -42 14.5 -81.5t44.5 -68.5q44 6 79.5 30.5t62 61.5t45.5 83t31.5 94t18 95t5.5 87l-144 82zM526 833q-27 -24 -65 -45t-74 -33l-45 61q-16 0 -41 -17.5t-66 -55.5l-44 77 q28 25 66.5 46.5t73.5 31.5l45 -61q14 0 40 18t66 56z" unicode="" glyph-name="Otilde"/>
<glyph horiz-adv-x="596" d="M512 453l-11 48q-103 -4 -216 -42q48 -5 90.5 -24.5t78 -50t62 -71.5t41.5 -88q3 -10 6 -22q2 -11 4 -24.5t2 -30.5q0 -35 -21.5 -59.5t-55.5 -41t-76.5 -26t-84 -14.5t-78 -6t-59.5 -1q-25 0 -51 3t-48 7q-26 4 -49 10l-18 283l57 7l25 -114q55 0 110 1.5t106.5 10.5 t98 29t86.5 56q-35 33 -76.5 54t-87 33.5t-93 17t-92.5 4.5l-41 190q39 27 88.5 47t103.5 32.5t110 19t108 6.5l48 -231zM241 930q89 -99 121 -99l61 69l36 -34l-119 -132q-42 16 -85.5 45.5t-74.5 62.5z" unicode="" glyph-name="Scaron"/>
<glyph horiz-adv-x="726" d="M707 145q16 -30 16 -59v-10q0 -5 -2 -11l-214 -77q-26 0 -44.5 13t-31.5 33.5t-20.5 47t-12 53.5t-6.5 52t-2 43q-9 -30 -24.5 -70t-35.5 -76.5t-45 -62t-54 -25.5q-48 0 -87 17t-66.5 45.5t-42.5 66t-15 79.5q0 30 4.5 61.5t11.5 61.5t16 58t17 51q-15 2 -28 9l-41 196 q9 19 22 22t30 4l9 -36q51 4 98.5 18.5t92.5 37.5l44 -191q-51 -32 -78.5 -38.5t-40.5 -6.5q-11 -25 -22.5 -57.5t-21.5 -68t-16.5 -73t-6.5 -73.5q0 -51 15 -86.5t53 -69.5q24 9 36 17t26 23q30 33 57 93.5t51 136.5t45 160.5t39 165.5l196 75q-11 -47 -19 -87.5t-13 -81 t-7.5 -84.5t-2.5 -96q0 -66 8 -128t31 -103zM314 748q31 24 52.5 44.5t36.5 38.5t24.5 35t16.5 36l103 -5q-5 -13 -17 -32.5t-30 -40.5t-41.5 -42.5t-50.5 -39.5z" unicode="" glyph-name="Uacute"/>
<glyph horiz-adv-x="726" d="M707 145q16 -30 16 -59v-10q0 -5 -2 -11l-214 -77q-26 0 -44.5 13t-31.5 33.5t-20.5 47t-12 53.5t-6.5 52t-2 43q-9 -30 -24.5 -70t-35.5 -76.5t-45 -62t-54 -25.5q-48 0 -87 17t-66.5 45.5t-42.5 66t-15 79.5q0 30 4.5 61.5t11.5 61.5t16 58t17 51q-15 2 -28 9l-41 196 q9 19 22 22t30 4l9 -36q51 4 98.5 18.5t92.5 37.5l44 -191q-51 -32 -78.5 -38.5t-40.5 -6.5q-11 -25 -22.5 -57.5t-21.5 -68t-16.5 -73t-6.5 -73.5q0 -51 15 -86.5t53 -69.5q24 9 36 17t26 23q30 33 57 93.5t51 136.5t45 160.5t39 165.5l196 75q-11 -47 -19 -87.5t-13 -81 t-7.5 -84.5t-2.5 -96q0 -66 8 -128t31 -103zM193 822q31 33 74.5 62.5t85.5 45.5l119 -132l-36 -34l-61 69q-32 0 -121 -99z" unicode="" glyph-name="Ucircumflex"/>
<glyph horiz-adv-x="726" d="M707 145q16 -30 16 -59v-10q0 -5 -2 -11l-214 -77q-26 0 -44.5 13t-31.5 33.5t-20.5 47t-12 53.5t-6.5 52t-2 43q-9 -30 -24.5 -70t-35.5 -76.5t-45 -62t-54 -25.5q-48 0 -87 17t-66.5 45.5t-42.5 66t-15 79.5q0 30 4.5 61.5t11.5 61.5t16 58t17 51q-15 2 -28 9l-41 196 q9 19 22 22t30 4l9 -36q51 4 98.5 18.5t92.5 37.5l44 -191q-51 -32 -78.5 -38.5t-40.5 -6.5q-11 -25 -22.5 -57.5t-21.5 -68t-16.5 -73t-6.5 -73.5q0 -51 15 -86.5t53 -69.5q24 9 36 17t26 23q30 33 57 93.5t51 136.5t45 160.5t39 165.5l196 75q-11 -47 -19 -87.5t-13 -81 t-7.5 -84.5t-2.5 -96q0 -66 8 -128t31 -103zM322 760h-118l18 134h119zM480 760h-118l18 134h119z" unicode="" glyph-name="Udieresis"/>
<glyph horiz-adv-x="726" d="M707 145q16 -30 16 -59v-10q0 -5 -2 -11l-214 -77q-26 0 -44.5 13t-31.5 33.5t-20.5 47t-12 53.5t-6.5 52t-2 43q-9 -30 -24.5 -70t-35.5 -76.5t-45 -62t-54 -25.5q-48 0 -87 17t-66.5 45.5t-42.5 66t-15 79.5q0 30 4.5 61.5t11.5 61.5t16 58t17 51q-15 2 -28 9l-41 196 q9 19 22 22t30 4l9 -36q51 4 98.5 18.5t92.5 37.5l44 -191q-51 -32 -78.5 -38.5t-40.5 -6.5q-11 -25 -22.5 -57.5t-21.5 -68t-16.5 -73t-6.5 -73.5q0 -51 15 -86.5t53 -69.5q24 9 36 17t26 23q30 33 57 93.5t51 136.5t45 160.5t39 165.5l196 75q-11 -47 -19 -87.5t-13 -81 t-7.5 -84.5t-2.5 -96q0 -66 8 -128t31 -103zM319 742q-27 18 -50.5 39.5t-41.5 42.5t-30 40.5t-17 32.5l103 5q7 -19 16.5 -36t24.5 -35t36.5 -38.5t52.5 -44.5z" unicode="" glyph-name="Ugrave"/>
<glyph horiz-adv-x="669" d="M402 359q16 43 37 88.5t47.5 88.5t58.5 81.5t70 68.5l63 -17q-41 -48 -72.5 -93.5t-56 -89t-43.5 -85t-34 -81.5q21 0 43 7t41 16q21 11 42 24l28 -33q-9 -12 -24.5 -28t-37 -32.5t-50.5 -30.5t-66 -21q-14 -36 -23.5 -69t-15 -67t-8 -69.5t-2.5 -75.5l-87 23q0 54 7 100 t15 81q10 40 22 75q-51 13 -112.5 46t-115.5 79.5t-90.5 104t-36.5 120.5q0 33 28 47l193 74q-8 -9 -13 -19q-5 -8 -8.5 -19t-3.5 -23q3 -35 25 -74t53 -76t65.5 -69t61.5 -52zM329 748q31 24 52.5 44.5t36.5 38.5t24.5 35t16.5 36l103 -5q-5 -13 -17 -32.5t-30 -40.5 t-41.5 -42.5t-50.5 -39.5z" unicode="" glyph-name="Yacute"/>
<glyph horiz-adv-x="669" d="M402 359q16 43 37 88.5t47.5 88.5t58.5 81.5t70 68.5l63 -17q-41 -48 -72.5 -93.5t-56 -89t-43.5 -85t-34 -81.5q21 0 43 7t41 16q21 11 42 24l28 -33q-9 -12 -24.5 -28t-37 -32.5t-50.5 -30.5t-66 -21q-14 -36 -23.5 -69t-15 -67t-8 -69.5t-2.5 -75.5l-87 23q0 54 7 100 t15 81q10 40 22 75q-51 13 -112.5 46t-115.5 79.5t-90.5 104t-36.5 120.5q0 33 28 47l193 74q-8 -9 -13 -19q-5 -8 -8.5 -19t-3.5 -23q3 -35 25 -74t53 -76t65.5 -69t61.5 -52zM359 760h-118l18 134h119zM517 760h-118l18 134h119z" unicode="" glyph-name="Ydieresis"/>
<glyph horiz-adv-x="607" d="M513 255l45 -2l39 -219q0 -20 -19 -31.5t-45 -17t-54 -7t-46 -1.5q-44 0 -98.5 3t-106.5 8t-95 12t-65 16l-36 206q20 -8 46.5 -13.5t47.5 -5.5q40 22 84.5 51.5t87 63.5t79.5 72t62 78h-23q-9 0 -18.5 0.5t-14.5 0.5q-34 0 -71 -2.5t-73 -8.5t-69 -16t-59 -25l13 -55 q-8 -7 -23.5 -13t-26.5 -6l-61 243q0 28 29 49t74.5 34.5t101.5 20t109 6.5q57 0 110 -6.5t95 -18.5l47 -169q-33 -59 -73 -106.5t-82.5 -85.5t-85.5 -68t-82 -53q29 -2 62 -4t66 -2q37 0 72.5 3.5t65.5 13.5zM206 930q89 -99 121 -99l61 69l36 -34l-119 -132 q-42 16 -85.5 45.5t-74.5 62.5z" unicode="" glyph-name="Zcaron"/>
<glyph horiz-adv-x="803" d="M250 180q45 12 84 25.5t75 30.5q-13 31 -25 68t-22.5 75.5t-19.5 76.5t-16 71q-5 -39 -12 -84.5t-16 -91.5t-21 -90t-27 -81zM801 127v-118l-196 -75q-57 54 -100 121t-76 136q-92 -31 -193 -43q-6 -15 -18 -40.5t-28 -51t-34.5 -44t-36.5 -18.5q-15 0 -34.5 3 t-37.5 10.5t-30 20.5t-12 33q0 6 2.5 17t7.5 22.5t11.5 20t15.5 8.5q7 0 19.5 -2.5t25 -6.5t23.5 -7.5t15 -5.5q28 51 50.5 112.5t40.5 126t32 130.5t26 126l-15 -3q-7 -1 -16 -1.5t-18 -0.5q-10 0 -21.5 1t-20.5 7l318 116q9 -72 29 -156.5t49 -169.5t65.5 -163t81.5 -137z M341 760h-118l18 134h119zM499 760h-118l18 134h119z" unicode="" glyph-name="Adieresis"/>
<glyph horiz-adv-x="803" d="M250 180q45 12 84 25.5t75 30.5q-13 31 -25 68t-22.5 75.5t-19.5 76.5t-16 71q-5 -39 -12 -84.5t-16 -91.5t-21 -90t-27 -81zM801 127v-118l-196 -75q-57 54 -100 121t-76 136q-92 -31 -193 -43q-6 -15 -18 -40.5t-28 -51t-34.5 -44t-36.5 -18.5q-15 0 -34.5 3 t-37.5 10.5t-30 20.5t-12 33q0 6 2.5 17t7.5 22.5t11.5 20t15.5 8.5q7 0 19.5 -2.5t25 -6.5t23.5 -7.5t15 -5.5q28 51 50.5 112.5t40.5 126t32 130.5t26 126l-15 -3q-7 -1 -16 -1.5t-18 -0.5q-10 0 -21.5 1t-20.5 7l318 116q9 -72 29 -156.5t49 -169.5t65.5 -163t81.5 -137z M332 742q-27 18 -50.5 39.5t-41.5 42.5t-30 40.5t-17 32.5l103 5q7 -19 16.5 -36t24.5 -35t36.5 -38.5t52.5 -44.5z" unicode="" glyph-name="Agrave"/>
<glyph horiz-adv-x="803" d="M250 180q45 12 84 25.5t75 30.5q-13 31 -25 68t-22.5 75.5t-19.5 76.5t-16 71q-5 -39 -12 -84.5t-16 -91.5t-21 -90t-27 -81zM801 127v-118l-196 -75q-57 54 -100 121t-76 136q-92 -31 -193 -43q-6 -15 -18 -40.5t-28 -51t-34.5 -44t-36.5 -18.5q-15 0 -34.5 3 t-37.5 10.5t-30 20.5t-12 33q0 6 2.5 17t7.5 22.5t11.5 20t15.5 8.5q7 0 19.5 -2.5t25 -6.5t23.5 -7.5t15 -5.5q28 51 50.5 112.5t40.5 126t32 130.5t26 126l-15 -3q-7 -1 -16 -1.5t-18 -0.5q-10 0 -21.5 1t-20.5 7l318 116q9 -72 29 -156.5t49 -169.5t65.5 -163t81.5 -137z M209 822q31 33 74.5 62.5t85.5 45.5l119 -132l-36 -34l-61 69q-32 0 -121 -99z" unicode="" glyph-name="Acircumflex"/>
<glyph horiz-adv-x="803" d="M250 180q45 12 84 25.5t75 30.5q-13 31 -25 68t-22.5 75.5t-19.5 76.5t-16 71q-5 -39 -12 -84.5t-16 -91.5t-21 -90t-27 -81zM801 127v-118l-196 -75q-57 54 -100 121t-76 136q-92 -31 -193 -43q-6 -15 -18 -40.5t-28 -51t-34.5 -44t-36.5 -18.5q-15 0 -34.5 3 t-37.5 10.5t-30 20.5t-12 33q0 6 2.5 17t7.5 22.5t11.5 20t15.5 8.5q7 0 19.5 -2.5t25 -6.5t23.5 -7.5t15 -5.5q28 51 50.5 112.5t40.5 126t32 130.5t26 126l-15 -3q-7 -1 -16 -1.5t-18 -0.5q-10 0 -21.5 1t-20.5 7l318 116q9 -72 29 -156.5t49 -169.5t65.5 -163t81.5 -137z M285 748q31 24 52.5 44.5t36.5 38.5t24.5 35t16.5 36l103 -5q-5 -13 -17 -32.5t-30 -40.5t-41.5 -42.5t-50.5 -39.5z" unicode="" glyph-name="Aacute"/>
<glyph horiz-adv-x="455" d="M411 174q1 -38 9.5 -72t34.5 -64l-102 -69q-20 19 -30 50.5t-12 57.5q-12 -15 -29.5 -30t-38.5 -27t-44.5 -19.5t-46.5 -7.5q-15 0 -39 11t-46.5 27t-39 34.5t-16.5 33.5q0 22 18.5 48t45 49t54.5 40.5t47 23.5l116 -85q-42 -17 -78.5 -44t-64.5 -65q6 -17 18.5 -28 t35.5 -13q16 0 31.5 7.5t29 19t25.5 26t20 28.5l34 24q2 21 4 42.5t2 43.5q0 24 -3 48q-17 8 -38.5 11.5t-46.5 3.5q-26 0 -53 -3t-52.5 -8.5t-48.5 -12.5t-40 -14l-41 196q10 5 30.5 11.5t47.5 12.5t57 10t59 4q55 0 87.5 -19.5t49.5 -51.5t21.5 -73.5t4.5 -86.5v-45 q0 -22 -1 -44zM111 501q31 24 52.5 44.5t36.5 38.5t24.5 35t16.5 36l103 -5q-5 -13 -17 -32.5t-30 -40.5t-41.5 -42.5t-50.5 -39.5z" unicode="" glyph-name="aacute"/>
<glyph horiz-adv-x="526" d="M479 131q-38 -47 -62 -77.5t-41 -48.5t-29.5 -25.5t-26.5 -7.5q-36 0 -83 20.5t-91 49t-78 60t-45 52.5q-10 20 -10 43q0 38 19 77.5t49.5 71t68 51.5t74.5 20q25 0 56.5 -13.5t62.5 -33.5t57.5 -42t43.5 -40q-16 71 -55.5 135.5t-87.5 124.5q-32 -8 -62 -20t-56 -26 l3 68q12 8 31.5 16t39.5 15q-19 23 -37.5 44t-35.5 41l89 23q16 -20 32.5 -41t33.5 -44q29 5 60.5 8.5t63.5 3.5l-4 -69q-19 0 -38 -1.5t-39 -3.5q26 -39 49.5 -80t41 -82t28 -81.5t10.5 -78.5q0 -29 -6.5 -56.5t-25.5 -52.5zM182 395q-8 -10 -13 -22t-10 -25 q11 -27 44 -57.5t74 -57.5t82.5 -46.5t70.5 -25.5q0 31 -13 59.5t-34.5 53t-48 45t-54 36t-53.5 26t-45 14.5z" unicode="" glyph-name="eth"/>
<glyph horiz-adv-x="528" d="M51 823l91 43v-439q20 23 42 42.5t41 34.5q22 18 44 32h188q6 -8 11 -27t8 -42t4.5 -45.5t1.5 -37.5q0 -40 -6 -83t-19 -83t-34.5 -75t-52.5 -59h-207q-12 0 -21 3v-213l-91 -43v992zM276 515q-25 -21 -45 -52t-36.5 -66.5t-29.5 -71t-23 -65.5v-85h94l9 -11 q49 103 49 218q0 68 -18 133z" unicode="" glyph-name="thorn"/>
<glyph horiz-adv-x="536" d="M51 -169v992l91 43v-209l12 14q93 -11 167 -44q31 -14 61 -34t53.5 -47t38 -63t14.5 -81q0 -71 -15.5 -146t-48 -137t-82 -102t-117.5 -40q-14 0 -31.5 4t-51.5 19v-126zM304 468q0 19 -17 37.5t-41.5 34.5t-53 28.5t-50.5 21.5v-484q9 2 24.5 7.5t33.5 20t36.5 39.5 t33.5 64.5t24.5 96t9.5 134.5z" unicode="" glyph-name="Thorn"/>
<glyph horiz-adv-x="330" d="M-197 185q95 0 185 -22t160.5 -62.5t115.5 -99t51 -131.5l-25 -209q-13 -74 -53 -127t-97 -87.5t-125.5 -50.5t-139.5 -16q-131 0 -259.5 24.5t-256.5 61t-255.5 79t-256 79t-258 61t-261.5 24.5q-63 0 -124 -8t-119 -27.5t-110.5 -51t-98.5 -77.5l32 190 q46 45 98.5 75.5t109 48.5t116.5 26t122 8q130 0 258.5 -24.5t256.5 -61t256.5 -79t257 -79t258.5 -61t262 -24.5q59 0 114.5 10t104.5 31.5t89.5 56t69.5 84.5q-18 60 -61 107t-101 80t-127 50.5t-140 17.5z" unicode="" glyph-name="logicalnot"/>
<glyph horiz-adv-x="262" d="M131 326q18 0 34.5 -7t29.5 -19.5t20.5 -29t7.5 -35.5q0 -18 -7 -35t-19.5 -29.5t-29.5 -20.5t-36 -8q-18 0 -35 7t-29.5 20t-20 29.5t-7.5 36.5q0 18 7 34.5t19.5 29t29.5 20t36 7.5z" unicode="" glyph-name="paragraph"/>
<glyph horiz-adv-x="860" d="M54 750h750v-750h-750v750zM585 415q0 4 -4 4l-3 5q-5 0 -7 -9t-4 -11q2 6 2.5 11.5t0.5 11.5q0 9 -1 21.5t-5 24.5t-11.5 21.5t-20.5 13.5q1 1 3 1q9 0 17 -5q1 1 1 5v5l7 24v-22q0 -9 1.5 -17.5t9.5 -14.5l3 1q0 2 2 12.5t2 15.5q-1 12 -2 23.5t-1 22.5q2 2 2 7 q0 3 -1 6t-2 7h-4q1 -1 1 -6q-5 22 -19 39t-34 28.5t-43.5 17.5t-46.5 6q-21 0 -41.5 -5t-37.5 -16q-9 -6 -21.5 -18t-23.5 -25.5t-18.5 -27t-7.5 -23.5v-8q-1 -8 -3 -13t-2 -13q4 0 5.5 7.5t2.5 10.5q1 -1 1 -4q0 -5 -1.5 -8.5t-1.5 -11.5q0 -19 4 -26q4 5 11 15t7 14l3 -4 q0 -2 -1.5 -5t-1.5 -6q1 -1 3 -1q0 -1 -2.5 -3.5t-4.5 -5.5l-6 -7q-5 -5 -4 -12.5t-2 -13.5q0 -11 8 -22.5t8 -16.5l-3 2q-4 1 -4 4q-5 -2 -6.5 -4t-4.5 -4l-6 4q-7 -1 -7 -11q0 -20 7 -26.5t10 -6.5l2 -3q-1 -1 -1 -6t5 -6.5t10 -4.5q1 0 2.5 2.5t3.5 3.5q0 -5 3 -5 q5 0 9 3t12 3q10 0 20 -7q3 0 4 1q1 -1 1 -3q0 -13 -3.5 -24.5t-3.5 -13.5l2 -4q0 -2 2 -4q2 5 2 8t2 6q2 0 2 -3q0 -2 -1 -5.5t-1 -5.5q0 -1 2 -3q0 -3 -1 -4q0 -4 1 -9t4 -5q1 0 3 5t2 9q-2 2 -2 6q1 0 2 -3.5t2.5 -8t2.5 -8t3 -3.5q5 0 5 13q0 5 -1 6.5t-1 4.5q0 1 2 1.5 t3 0.5q-1 -1 -1 -6v-11q0 -7 4 -8h4q7 0 7 13q0 1 -0.5 4t-1.5 8l10 -1l-1.5 -7.5t-0.5 -3.5v-10q0 -1 2.5 -3.5t3.5 -2.5q14 0 14 8q0 5 -3 10.5t-3 8.5q7 0 8 -3.5t1 -8t1.5 -9t9.5 -6.5q0 6 2 8v6q0 3 -0.5 5t-0.5 4l-1 3h7l-2 -17q0 -8 3 -9t6 -1q1 0 4 4t3 7v7 q0 8 3 10v-22q0 -3 3 -3q7 1 7 11q0 9 -1.5 16t-1.5 9q0 4 1 5q3 -9 3.5 -15.5t0.5 -14.5v-10q5 0 6 3t1 6q0 4 -1 8t-2 6q2 -2 6 -5t4 -8q0 -3 -3 -6q2 -2 3 -2q4 0 4 3q0 4 -3.5 14.5t-3.5 17.5q0 5 2 5q1 -3 1 -9t5 -6q0 2 1 4.5t1 5.5l2 -5l3 1v6l-3 1v6q0 2 1 3 q0 5 -4 6l-14 10q-3 3 -3 8q0 2 1 3q6 0 12 -3t6 -6l12 3q5 2 9 4t4 6q1 -4 3 -4h9q1 1 1 3t1 2q1 -4 6 -10.5t7 -6.5q4 1 5 2q0 3 -2.5 4.5t-2.5 5.5h8q16 0 20.5 7.5t4.5 8.5q0 2 -0.5 4t-0.5 4t5 7.5t5 16.5q0 8 -7 9zM570 127q-4 8 -9 11.5t-10.5 5t-12.5 2.5t-14 4 q-58 20 -117 44t-104 65q51 -36 109.5 -60t116.5 -44q5 -2 13 -3t16 -1q11 0 21 3.5t13 12.5q-72 9 -141.5 36t-133 68t-118 93.5t-96.5 112.5q-1 -1 -1 -12q0 -12 4 -23.5t9 -22.5q26 -57 77 -107.5t114 -89.5t131.5 -64.5t129.5 -31.5zM761 490q-63 -91 -142.5 -158.5 t-173.5 -115.5q5 -3 9.5 -5.5t10.5 -3.5q24 11 46.5 24.5t44.5 28.5l2 -4q-18 -17 -36.5 -28.5t-42.5 -25.5q13 -7 28 -9q42 22 83.5 53.5t76.5 69.5t60 82t34 92zM544 478q2 -6 7.5 -11t5.5 -18q0 -19 -10 -35l-3 4q-4 -4 -6.5 -6t-2.5 -5q0 -2 2 -4q-2 0 -4 -0.5t-4 -0.5 q-2 2 -6 2q-2 0 -4 -0.5t-5 -0.5q-14 0 -29.5 4.5t-15.5 21.5l6 -6q1 1 4 1l3 1l-4 5q-4 7 -11.5 17t-9.5 10q0 2 4 5.5t4 6.5q0 4 -1 5l1 4l3 -1l7 7q5 5 11 5q5 -2 5.5 -2.5t2.5 -0.5h4q3 1 5.5 2.5t4.5 1.5q21 0 36 -12zM337 411q-2 -1 -3 -3.5t-3 -2.5v6q0 5 -2 7h-4 q-5 0 -12 2t-7 8q0 2 0.5 3.5t0.5 3.5q0 6 -3 13t-5 10q0 10 8.5 16.5t20 10t23 5t17.5 1.5q7 0 16.5 -2.5t9.5 -10.5q0 -2 -0.5 -4.5t-0.5 -4.5q0 -5 2 -6t2 -7q0 -20 -14 -32t-29 -14q-3 0 -8.5 0.5t-8.5 0.5zM294 144q-9 5 -16 8t-15 10q-8 6 -11 14t-5.5 16.5t-6.5 14.5 t-13 7q-7 0 -15.5 -6.5t-8.5 -11.5l5 -4q14 -11 22.5 -23.5t13.5 -17.5l9 -8q4 -4 7.5 -8t3.5 -10t-1 -7q5 -17 19.5 -30t32.5 -13q6 0 16.5 2.5t10.5 13.5q0 9 -9 9q-4 0 -8 -1.5t-8 -2.5q-12 0 -20 10t-8 18q0 2 5 20zM660 195q-2 7 -9 13t-15 6q-14 0 -19.5 -15t-7.5 -24 q-4 -11 -16 -18.5t-22 -12.5q8 -14 8 -23q0 -20 -27 -26q-7 0 -10.5 2t-8.5 2q-7 0 -8 -3.5t-1 -7.5q0 -7 6.5 -10.5t15.5 -3.5q25 0 41.5 15.5t16.5 44.5q9 6 14.5 16t11 19t12 16.5t18.5 9.5zM433 380q0 5 1 10t1 10q0 6 -3 11q-3 -5 -5.5 -9t-2.5 -9q0 -2 0.5 -5t0.5 -8 q0 -6 -2 -11.5t-8 -5.5q-1 0 -5.5 2.5t-8.5 4.5q0 14 2.5 22t5.5 13t6 9.5t4 11.5q0 1 -0.5 2.5t-0.5 3.5l5 -3q2 -1 4.5 -0.5t4.5 -1.5l9 8l1 -6l5 -17.5t3 -13.5l5 -15q4 -7 4 -16q0 -2 -5 -3.5t-7 -1.5q-5 0 -9.5 5t-4.5 13zM390 169q-9 -5 -24 -8.5t-30 -8t-27 -10.5 t-15 -16q13 0 34 3.5t40.5 8t34 10t14.5 8.5q0 1 -3.5 3t-8 4.5t-9 4t-6.5 1.5zM273 167q0 -3 10.5 -10.5t19.5 -7.5q2 2 3 1.5t5 0.5l70 21q-7 5 -12 8.5t-13 5.5q-21 -8 -41.5 -11.5t-41.5 -7.5zM183 152l-5 -3q5 -6 6.5 -14t9.5 -13l54 4q0 17 -10 22t-20 5 q-8 0 -14.5 -0.5t-13.5 -0.5h-7zM685 152q-5 1 -9 1.5t-6 0.5q-9 0 -17.5 -1.5t-17.5 -1.5h-5q-2 -2 -8 -9.5t-6 -12.5q0 -3 3 -3h55q11 9 11 26zM171 149q2 4 6 3.5t4 4.5q-5 1 -9 1.5t-8 0.5h-6q-18 -5 -18 -21q0 -10 6.5 -18.5t16.5 -8.5q8 0 13 6.5t5 9.5q0 6 -4 11 t-6 11zM683 159q1 -5 5 -5.5t6 -2.5q-2 -6 -5.5 -11.5t-3.5 -13.5q8 -11 18 -11q8 0 14.5 7.5t6.5 17.5q0 11 -8 16t-19 5q-2 0 -5.5 -0.5t-8.5 -1.5zM188 121q-5 -5 -11 -9t-6 -8q0 -1 2 -3q6 1 13 6t8 12q0 2 -2 2h-4zM678 121q-3 0 -3.5 -1.5t-1.5 -3.5q2 -5 7 -9t10 -4 q4 0 6 2q0 5 -7 8t-11 8zM403 312q0 4 0.5 6.5t0.5 4.5q0 3 -1 5t-1 6q5 0 5 -7v-4q-1 -1 -1.5 -6t-2.5 -5zM426 315q-1 5 -1.5 7t-0.5 7q1 1 1 6q2 0 2.5 -3t0.5 -5q0 -1 -0.5 -4t-1.5 -8zM372 313q-3 1 -3 4q0 5 1 5q3 0 3 -4t-1 -5zM446 310q-3 3 -3 6q0 6 1 7q0 -6 2 -6 v-7zM421 356l3 -1v-8q-3 0 -3 -1v10zM385 316q1 5 1.5 8t0.5 4q2 -2 2 -4z" unicode="" glyph-name="apple"/>
<glyph horiz-adv-x="526" d="M494 424q-46 -360 70 -424h-186q-39 0 -63 24t-35 63q-18 -35 -39.5 -62t-29 -29t-25.5 -2q-49 1 -85 18q5 -56 13 -113.5t21 -111.5l-73 -99q-20 87 -32 179.5t-12 188.5q0 95 13.5 189t42.5 185q37 6 80 0q37 -26 58 -62q-40 -6 -79 -1q-11 -37 -22.5 -89.5 t-11.5 -105.5q0 -47 13 -87t47 -63q31 40 54 88t39 100t26 106t16 108h200z" unicode="" glyph-name="mu"/>
<glyph d="M117 183q71 -79 166 -126.5t201 -73t216 -34t210 -8.5q223 0 445 30t442 74.5t438 96.5t435 96.5t432 74.5t428 30q98 0 197 -11.5t190.5 -37.5t170.5 -69.5t137.5 -107.5t92 -150.5t33.5 -198.5q0 -45 -5 -82.5t-10 -65.5q-6 -33 -14 -60q0 114 -35 201.5t-95 151.5 t-140.5 106.5t-171.5 68t-187.5 36.5t-188.5 11q-224 0 -442.5 -30t-435 -74.5t-432 -96.5t-431.5 -96.5t-433.5 -74.5t-439.5 -30q-35 0 -89.5 2t-119 7.5t-135 15.5t-138.5 26t-129.5 39.5t-108.5 56t-74.5 74.5t-27.5 95q0 135 41 234t117.5 166.5t185 104t243.5 45.5 l-29 -179l-23 -2q-68 -7 -137 -25t-132.5 -47t-119 -70t-97.5 -93z" horiz-adv-x="441" glyph-name="bracketleft.end"/>
<glyph d="M308 183q-42 52 -97.5 93t-119.5 70t-132.5 47t-136.5 25l-23 2l-29 179q135 -9 243.5 -45.5t185 -104t117.5 -166.5t41 -234q0 -53 -27.5 -95t-74.5 -74.5t-108.5 -56t-129.5 -39.5t-138.5 -26t-135 -15.5t-119 -7.5t-89.5 -2q-222 0 -439.5 30t-433.5 74.5t-431.5 96.5 t-432 96.5t-435.5 74.5t-442 30q-92 0 -188.5 -11t-187.5 -36.5t-171.5 -68t-140.5 -106.5t-95 -151.5t-35 -201.5q-9 27 -15 60q-5 28 -9.5 65.5t-4.5 82.5q0 112 33.5 198.5t92 150.5t137.5 107.5t170.5 69.5t190.5 37.5t197 11.5q213 0 428 -30t432 -74.5t435 -96.5 t438 -96.5t442 -74.5t445 -30q100 0 210 8.5t216 34t201 73t166 126.5z" horiz-adv-x="441" glyph-name="bracketright.ini"/>
<glyph d="M2625 -48q-43 51 -89.5 90.5t-100.5 66.5t-118 41t-142 14q-121 0 -253.5 -31.5t-269.5 -78.5t-275 -102t-270 -102t-254.5 -78.5t-229.5 -31.5q-87 0 -149 22t-111 61t-90.5 93t-86.5 118q-20 27 -38.5 56t-32.5 60t-22.5 65t-8.5 71q0 61 35 113t103 90t168.5 59.5 t231.5 21.5l-23 -162q-105 0 -178.5 -18t-120.5 -53.5t-68.5 -89.5t-21.5 -126q0 -16 2 -35t5.5 -38t9.5 -35.5t14 -28.5q21 -21 53 -35.5t68 -23.5t72 -13t63 -4q132 0 263 31.5t261.5 78.5t260 101.5t257.5 101.5t255 78.5t253 31.5q109 0 192 -28t150 -78.5t123 -120 t113 -152.5z" horiz-adv-x="401" glyph-name="braceleft.end"/>
<glyph d="M-2230 -48q57 83 113 152.5t123 120t149.5 78.5t192.5 28q125 0 252.5 -31.5t255.5 -78.5t257.5 -101.5t260 -101.5t261.5 -78.5t263 -31.5q27 0 63 4t72 13t68 23.5t53 35.5q8 12 14 28.5t9.5 35.5t5.5 38t2 35q0 72 -21.5 126t-68.5 89.5t-120.5 53.5t-178.5 18 l-23 162q131 0 231.5 -21.5t168.5 -59.5t103 -90t35 -113q0 -37 -8.5 -71t-22.5 -65t-32.5 -60t-38.5 -56q-45 -64 -86.5 -118t-90.5 -93t-111 -61t-149 -22q-107 0 -229.5 31.5t-254.5 78.5t-270 102t-275 102t-269.5 78.5t-253.5 31.5q-78 0 -142 -14t-118 -41 t-100.5 -66.5t-89.5 -90.5z" horiz-adv-x="401" glyph-name="braceright.ini"/>
<glyph d="M-93 666q22 13 49 27t56.5 25.5t60 19t60.5 7.5q34 0 61.5 -12.5t46.5 -33.5t29.5 -49t10.5 -59q0 -25 -3.5 -62.5t-10 -77.5t-14.5 -77.5t-17 -61.5q-27 -73 -76.5 -131t-112.5 -101.5t-135 -73t-144 -44.5q-27 -45 -68 -78t-90.5 -54.5t-105 -31.5t-111.5 -10 q-131 0 -259.5 24.5t-256.5 61t-255.5 79t-256 79t-258 61t-261.5 24.5q-63 0 -124 -8t-119 -27.5t-110.5 -51t-98.5 -77.5l32 190q46 45 98.5 75.5t109 48.5t116.5 26t122 8q130 0 258.5 -24.5t256.5 -61t256.5 -79t257 -79t258.5 -61t262 -24.5q59 0 114.5 10t104.5 31.5 t89.5 56t69.5 84.5q-18 60 -61 107t-101 80t-127 50.5t-140 17.5l-49 184q95 0 185 -22t160.5 -62.5t115.5 -99t51 -131.5l-17 -138q65 15 130.5 43t123.5 68.5t105 93t76 117.5q-11 51 -51 80.5t-94 29.5q-27 0 -55 -6.5t-56 -16.5t-56 -22.5t-55 -25.5z" horiz-adv-x="330" glyph-name="logicalnot.end"/>
<glyph d="M459 501q-27 13 -55 25.5t-56 22.5t-56 16.5t-55 6.5q-54 0 -94 -29.5t-51 -80.5q29 -65 76 -117.5t105 -93t123.5 -68.5t130.5 -43l-17 138q6 73 51 131.5t115.5 99t160.5 62.5t185 22l-49 -184q-71 0 -140 -17.5t-127 -50.5t-101 -80t-61 -107q29 -50 69.5 -84.5 t89.5 -56t104.5 -31.5t114.5 -10q132 0 262 24.5t258.5 61t257 79t256.5 79t256.5 61t258.5 24.5q61 0 121.5 -8t117 -26t109 -48.5t98.5 -75.5l32 -190q-46 46 -98.5 77.5t-110.5 51t-119 27.5t-124 8q-132 0 -261.5 -24.5t-258 -61t-256 -79t-255.5 -79t-256.5 -61 t-259.5 -24.5q-56 0 -111.5 10t-105 31.5t-90.5 54.5t-68 78q-72 15 -144 44.5t-135 73t-112.5 101.5t-76.5 131q-9 24 -17 61.5t-14.5 77.5t-10 77.5t-3.5 62.5q0 31 10.5 59t29.5 49t46.5 33.5t61.5 12.5q30 0 60.5 -7.5t60 -19t56.5 -25.5t65 -36z" horiz-adv-x="330" glyph-name="logicalnot.ini"/>
</font>
</defs>
</svg>
